%TF.GenerationSoftware,KiCad,Pcbnew,(6.0.11-0)*%
%TF.CreationDate,2023-03-16T18:41:31-05:00*%
%TF.ProjectId,STEP,53544550-2e6b-4696-9361-645f70636258,rev?*%
%TF.SameCoordinates,Original*%
%TF.FileFunction,Legend,Top*%
%TF.FilePolarity,Positive*%
%FSLAX46Y46*%
G04 Gerber Fmt 4.6, Leading zero omitted, Abs format (unit mm)*
G04 Created by KiCad (PCBNEW (6.0.11-0)) date 2023-03-16 18:41:31*
%MOMM*%
%LPD*%
G01*
G04 APERTURE LIST*
%ADD10C,0.100000*%
%ADD11C,0.150000*%
%ADD12C,0.120000*%
%ADD13C,0.127000*%
%ADD14C,0.300000*%
%ADD15C,0.200000*%
G04 APERTURE END LIST*
D10*
X97737666Y-127231000D02*
X97737666Y-127697666D01*
X97437666Y-127231000D02*
X97437666Y-127597666D01*
X97471000Y-127664333D01*
X97537666Y-127697666D01*
X97637666Y-127697666D01*
X97704333Y-127664333D01*
X97737666Y-127631000D01*
X98304333Y-127331000D02*
X98071000Y-127331000D01*
X98071000Y-127697666D02*
X98071000Y-126997666D01*
X98404333Y-126997666D01*
X99004333Y-127697666D02*
X98671000Y-127697666D01*
X98671000Y-126997666D01*
X95200000Y-112162333D02*
X95233333Y-112062333D01*
X95266666Y-112029000D01*
X95333333Y-111995666D01*
X95433333Y-111995666D01*
X95500000Y-112029000D01*
X95533333Y-112062333D01*
X95566666Y-112129000D01*
X95566666Y-112395666D01*
X94866666Y-112395666D01*
X94866666Y-112162333D01*
X94900000Y-112095666D01*
X94933333Y-112062333D01*
X95000000Y-112029000D01*
X95066666Y-112029000D01*
X95133333Y-112062333D01*
X95166666Y-112095666D01*
X95200000Y-112162333D01*
X95200000Y-112395666D01*
X95566666Y-111595666D02*
X95533333Y-111662333D01*
X95500000Y-111695666D01*
X95433333Y-111729000D01*
X95233333Y-111729000D01*
X95166666Y-111695666D01*
X95133333Y-111662333D01*
X95100000Y-111595666D01*
X95100000Y-111495666D01*
X95133333Y-111429000D01*
X95166666Y-111395666D01*
X95233333Y-111362333D01*
X95433333Y-111362333D01*
X95500000Y-111395666D01*
X95533333Y-111429000D01*
X95566666Y-111495666D01*
X95566666Y-111595666D01*
X95566666Y-110962333D02*
X95533333Y-111029000D01*
X95500000Y-111062333D01*
X95433333Y-111095666D01*
X95233333Y-111095666D01*
X95166666Y-111062333D01*
X95133333Y-111029000D01*
X95100000Y-110962333D01*
X95100000Y-110862333D01*
X95133333Y-110795666D01*
X95166666Y-110762333D01*
X95233333Y-110729000D01*
X95433333Y-110729000D01*
X95500000Y-110762333D01*
X95533333Y-110795666D01*
X95566666Y-110862333D01*
X95566666Y-110962333D01*
X95100000Y-110529000D02*
X95100000Y-110262333D01*
X94866666Y-110429000D02*
X95466666Y-110429000D01*
X95533333Y-110395666D01*
X95566666Y-110329000D01*
X95566666Y-110262333D01*
X98751333Y-107947666D02*
X98751333Y-108447666D01*
X98718000Y-108547666D01*
X98651333Y-108614333D01*
X98551333Y-108647666D01*
X98484666Y-108647666D01*
X98984666Y-107947666D02*
X99384666Y-107947666D01*
X99184666Y-108647666D02*
X99184666Y-107947666D01*
X99584666Y-108447666D02*
X99918000Y-108447666D01*
X99518000Y-108647666D02*
X99751333Y-107947666D01*
X99984666Y-108647666D01*
X100584666Y-107981000D02*
X100518000Y-107947666D01*
X100418000Y-107947666D01*
X100318000Y-107981000D01*
X100251333Y-108047666D01*
X100218000Y-108114333D01*
X100184666Y-108247666D01*
X100184666Y-108347666D01*
X100218000Y-108481000D01*
X100251333Y-108547666D01*
X100318000Y-108614333D01*
X100418000Y-108647666D01*
X100484666Y-108647666D01*
X100584666Y-108614333D01*
X100618000Y-108581000D01*
X100618000Y-108347666D01*
X100484666Y-108347666D01*
X101182666Y-115886666D02*
X101182666Y-115186666D01*
X101349333Y-115186666D01*
X101449333Y-115220000D01*
X101516000Y-115286666D01*
X101549333Y-115353333D01*
X101582666Y-115486666D01*
X101582666Y-115586666D01*
X101549333Y-115720000D01*
X101516000Y-115786666D01*
X101449333Y-115853333D01*
X101349333Y-115886666D01*
X101182666Y-115886666D01*
X102149333Y-115853333D02*
X102082666Y-115886666D01*
X101949333Y-115886666D01*
X101882666Y-115853333D01*
X101849333Y-115786666D01*
X101849333Y-115520000D01*
X101882666Y-115453333D01*
X101949333Y-115420000D01*
X102082666Y-115420000D01*
X102149333Y-115453333D01*
X102182666Y-115520000D01*
X102182666Y-115586666D01*
X101849333Y-115653333D01*
X102482666Y-115886666D02*
X102482666Y-115186666D01*
X102482666Y-115453333D02*
X102549333Y-115420000D01*
X102682666Y-115420000D01*
X102749333Y-115453333D01*
X102782666Y-115486666D01*
X102816000Y-115553333D01*
X102816000Y-115753333D01*
X102782666Y-115820000D01*
X102749333Y-115853333D01*
X102682666Y-115886666D01*
X102549333Y-115886666D01*
X102482666Y-115853333D01*
X103416000Y-115420000D02*
X103416000Y-115886666D01*
X103116000Y-115420000D02*
X103116000Y-115786666D01*
X103149333Y-115853333D01*
X103216000Y-115886666D01*
X103316000Y-115886666D01*
X103382666Y-115853333D01*
X103416000Y-115820000D01*
X104049333Y-115420000D02*
X104049333Y-115986666D01*
X104016000Y-116053333D01*
X103982666Y-116086666D01*
X103916000Y-116120000D01*
X103816000Y-116120000D01*
X103749333Y-116086666D01*
X104049333Y-115853333D02*
X103982666Y-115886666D01*
X103849333Y-115886666D01*
X103782666Y-115853333D01*
X103749333Y-115820000D01*
X103716000Y-115753333D01*
X103716000Y-115553333D01*
X103749333Y-115486666D01*
X103782666Y-115453333D01*
X103849333Y-115420000D01*
X103982666Y-115420000D01*
X104049333Y-115453333D01*
X101128666Y-117664666D02*
X101128666Y-116964666D01*
X101362000Y-117464666D01*
X101595333Y-116964666D01*
X101595333Y-117664666D01*
X101928666Y-117664666D02*
X101928666Y-117198000D01*
X101928666Y-116964666D02*
X101895333Y-116998000D01*
X101928666Y-117031333D01*
X101962000Y-116998000D01*
X101928666Y-116964666D01*
X101928666Y-117031333D01*
X102562000Y-117631333D02*
X102495333Y-117664666D01*
X102362000Y-117664666D01*
X102295333Y-117631333D01*
X102262000Y-117598000D01*
X102228666Y-117531333D01*
X102228666Y-117331333D01*
X102262000Y-117264666D01*
X102295333Y-117231333D01*
X102362000Y-117198000D01*
X102495333Y-117198000D01*
X102562000Y-117231333D01*
X102862000Y-117664666D02*
X102862000Y-117198000D01*
X102862000Y-117331333D02*
X102895333Y-117264666D01*
X102928666Y-117231333D01*
X102995333Y-117198000D01*
X103062000Y-117198000D01*
X103395333Y-117664666D02*
X103328666Y-117631333D01*
X103295333Y-117598000D01*
X103262000Y-117531333D01*
X103262000Y-117331333D01*
X103295333Y-117264666D01*
X103328666Y-117231333D01*
X103395333Y-117198000D01*
X103495333Y-117198000D01*
X103562000Y-117231333D01*
X103595333Y-117264666D01*
X103628666Y-117331333D01*
X103628666Y-117531333D01*
X103595333Y-117598000D01*
X103562000Y-117631333D01*
X103495333Y-117664666D01*
X103395333Y-117664666D01*
X92727666Y-124029000D02*
X92827666Y-124062333D01*
X92861000Y-124095666D01*
X92894333Y-124162333D01*
X92894333Y-124262333D01*
X92861000Y-124329000D01*
X92827666Y-124362333D01*
X92761000Y-124395666D01*
X92494333Y-124395666D01*
X92494333Y-123695666D01*
X92727666Y-123695666D01*
X92794333Y-123729000D01*
X92827666Y-123762333D01*
X92861000Y-123829000D01*
X92861000Y-123895666D01*
X92827666Y-123962333D01*
X92794333Y-123995666D01*
X92727666Y-124029000D01*
X92494333Y-124029000D01*
X93527666Y-124395666D02*
X93194333Y-124395666D01*
X93194333Y-123695666D01*
X93761000Y-124029000D02*
X93994333Y-124029000D01*
X94094333Y-124395666D02*
X93761000Y-124395666D01*
X93761000Y-123695666D01*
X94094333Y-123695666D01*
X94894333Y-124195666D02*
X95227666Y-124195666D01*
X94827666Y-124395666D02*
X95061000Y-123695666D01*
X95294333Y-124395666D01*
X95527666Y-123929000D02*
X95527666Y-124395666D01*
X95527666Y-123995666D02*
X95561000Y-123962333D01*
X95627666Y-123929000D01*
X95727666Y-123929000D01*
X95794333Y-123962333D01*
X95827666Y-124029000D01*
X95827666Y-124395666D01*
X96061000Y-123929000D02*
X96327666Y-123929000D01*
X96161000Y-123695666D02*
X96161000Y-124295666D01*
X96194333Y-124362333D01*
X96261000Y-124395666D01*
X96327666Y-124395666D01*
X92855333Y-101885000D02*
X92788666Y-101851666D01*
X92688666Y-101851666D01*
X92588666Y-101885000D01*
X92522000Y-101951666D01*
X92488666Y-102018333D01*
X92455333Y-102151666D01*
X92455333Y-102251666D01*
X92488666Y-102385000D01*
X92522000Y-102451666D01*
X92588666Y-102518333D01*
X92688666Y-102551666D01*
X92755333Y-102551666D01*
X92855333Y-102518333D01*
X92888666Y-102485000D01*
X92888666Y-102251666D01*
X92755333Y-102251666D01*
X93122000Y-102085000D02*
X93288666Y-102551666D01*
X93455333Y-102085000D02*
X93288666Y-102551666D01*
X93222000Y-102718333D01*
X93188666Y-102751666D01*
X93122000Y-102785000D01*
X93722000Y-102551666D02*
X93722000Y-102085000D01*
X93722000Y-102218333D02*
X93755333Y-102151666D01*
X93788666Y-102118333D01*
X93855333Y-102085000D01*
X93922000Y-102085000D01*
X94255333Y-102551666D02*
X94188666Y-102518333D01*
X94155333Y-102485000D01*
X94122000Y-102418333D01*
X94122000Y-102218333D01*
X94155333Y-102151666D01*
X94188666Y-102118333D01*
X94255333Y-102085000D01*
X94355333Y-102085000D01*
X94422000Y-102118333D01*
X94455333Y-102151666D01*
X94488666Y-102218333D01*
X94488666Y-102418333D01*
X94455333Y-102485000D01*
X94422000Y-102518333D01*
X94355333Y-102551666D01*
X94255333Y-102551666D01*
X105412333Y-114828000D02*
X104712333Y-115061333D01*
X105412333Y-115294666D01*
X104712333Y-115894666D02*
X104712333Y-115494666D01*
X104712333Y-115694666D02*
X105412333Y-115694666D01*
X105312333Y-115628000D01*
X105245666Y-115561333D01*
X105212333Y-115494666D01*
X104712333Y-116194666D02*
X105412333Y-116194666D01*
X105412333Y-116461333D01*
X105379000Y-116528000D01*
X105345666Y-116561333D01*
X105279000Y-116594666D01*
X105179000Y-116594666D01*
X105112333Y-116561333D01*
X105079000Y-116528000D01*
X105045666Y-116461333D01*
X105045666Y-116194666D01*
X105112333Y-116994666D02*
X105145666Y-116928000D01*
X105179000Y-116894666D01*
X105245666Y-116861333D01*
X105279000Y-116861333D01*
X105345666Y-116894666D01*
X105379000Y-116928000D01*
X105412333Y-116994666D01*
X105412333Y-117128000D01*
X105379000Y-117194666D01*
X105345666Y-117228000D01*
X105279000Y-117261333D01*
X105245666Y-117261333D01*
X105179000Y-117228000D01*
X105145666Y-117194666D01*
X105112333Y-117128000D01*
X105112333Y-116994666D01*
X105079000Y-116928000D01*
X105045666Y-116894666D01*
X104979000Y-116861333D01*
X104845666Y-116861333D01*
X104779000Y-116894666D01*
X104745666Y-116928000D01*
X104712333Y-116994666D01*
X104712333Y-117128000D01*
X104745666Y-117194666D01*
X104779000Y-117228000D01*
X104845666Y-117261333D01*
X104979000Y-117261333D01*
X105045666Y-117228000D01*
X105079000Y-117194666D01*
X105112333Y-117128000D01*
X94905666Y-96009666D02*
X95139000Y-96709666D01*
X95372333Y-96009666D01*
X95572333Y-96509666D02*
X95905666Y-96509666D01*
X95505666Y-96709666D02*
X95739000Y-96009666D01*
X95972333Y-96709666D01*
X96205666Y-96009666D02*
X96205666Y-96576333D01*
X96239000Y-96643000D01*
X96272333Y-96676333D01*
X96339000Y-96709666D01*
X96472333Y-96709666D01*
X96539000Y-96676333D01*
X96572333Y-96643000D01*
X96605666Y-96576333D01*
X96605666Y-96009666D01*
X96872333Y-96009666D02*
X97339000Y-96709666D01*
X97339000Y-96009666D02*
X96872333Y-96709666D01*
D11*
%TO.C,U1*%
X94067380Y-103454200D02*
X94305476Y-103454200D01*
X94210238Y-103692295D02*
X94305476Y-103454200D01*
X94210238Y-103216104D01*
X94495952Y-103597057D02*
X94305476Y-103454200D01*
X94495952Y-103311342D01*
D12*
%TO.C,R5*%
X102490000Y-113945641D02*
X102490000Y-113638359D01*
X103250000Y-113945641D02*
X103250000Y-113638359D01*
D13*
%TO.C,J2*%
X102616000Y-112268000D02*
X102616000Y-108712000D01*
X102616000Y-108712000D02*
X96012000Y-108712000D01*
X96012000Y-108712000D02*
X96012000Y-112268000D01*
X96012000Y-112268000D02*
X102616000Y-112268000D01*
D14*
X101496000Y-109220000D02*
G75*
G03*
X101496000Y-109220000I-150000J0D01*
G01*
D12*
%TO.C,U5*%
X97471000Y-125754000D02*
X97471000Y-125254000D01*
X98871000Y-125754000D02*
X98871000Y-125254000D01*
X96671000Y-125954000D02*
X96671000Y-125754000D01*
X96671000Y-125754000D02*
X97471000Y-125754000D01*
X97471000Y-128754000D02*
X96671000Y-128754000D01*
X98871000Y-125754000D02*
X99471000Y-125754000D01*
X99671000Y-128754000D02*
X98871000Y-128754000D01*
X99671000Y-128554000D02*
X99671000Y-128754000D01*
X99471000Y-125754000D02*
X99671000Y-125954000D01*
X96671000Y-128754000D02*
X96671000Y-128554000D01*
%TO.C,U1*%
G36*
X94547500Y-107492800D02*
G01*
X94166499Y-107492800D01*
X94166499Y-107238800D01*
X94547500Y-107238800D01*
X94547500Y-107492800D01*
G37*
D10*
X94547500Y-107492800D02*
X94166499Y-107492800D01*
X94166499Y-107238800D01*
X94547500Y-107238800D01*
X94547500Y-107492800D01*
D12*
X95529400Y-104579987D02*
X95529400Y-103860600D01*
X95314015Y-107213400D02*
X95529400Y-107213400D01*
X92684600Y-106494013D02*
X92684600Y-107213400D01*
X92899985Y-103860600D02*
X92684600Y-103860600D01*
X95529400Y-103860600D02*
X95314015Y-103860600D01*
X95529400Y-107213400D02*
X95529400Y-106494013D01*
X92684600Y-107213400D02*
X92899985Y-107213400D01*
X92684600Y-103860600D02*
X92684600Y-104579987D01*
%TO.C,AE1*%
X98605340Y-124074791D02*
G75*
G03*
X98605340Y-123987209I62360J43791D01*
G01*
D10*
%TO.C,Y1*%
X104682000Y-122009000D02*
G75*
G03*
X104682000Y-122009000I-50000J0D01*
G01*
D12*
%TO.C,U7*%
X104960000Y-99960000D02*
X104960000Y-98160000D01*
X101740000Y-98160000D02*
X101740000Y-100610000D01*
D15*
%TO.C,U4*%
X92506000Y-114725000D02*
G75*
G03*
X92506000Y-114725000I-100000J0D01*
G01*
D13*
X100451000Y-121025000D02*
X100106000Y-121025000D01*
X100451000Y-113925000D02*
X100106000Y-113925000D01*
X93351000Y-121025000D02*
X93696000Y-121025000D01*
X93351000Y-113925000D02*
X93696000Y-113925000D01*
X100451000Y-121025000D02*
X100451000Y-120680000D01*
X100451000Y-113925000D02*
X100451000Y-114270000D01*
X93351000Y-121025000D02*
X93351000Y-120680000D01*
X93351000Y-113925000D02*
X93351000Y-114270000D01*
D12*
%TO.C,U3*%
X100455000Y-107782000D02*
X102255000Y-107782000D01*
X102255000Y-104562000D02*
X99805000Y-104562000D01*
%TO.C,TP3*%
X94172000Y-109982000D02*
G75*
G03*
X94172000Y-109982000I-700000J0D01*
G01*
%TO.C,R16*%
X98460641Y-107695000D02*
X98153359Y-107695000D01*
X98460641Y-106935000D02*
X98153359Y-106935000D01*
%TO.C,R15*%
X98153359Y-104649000D02*
X98460641Y-104649000D01*
X98153359Y-105409000D02*
X98460641Y-105409000D01*
%TO.C,R14*%
X104746000Y-101827359D02*
X104746000Y-102134641D01*
X103986000Y-101827359D02*
X103986000Y-102134641D01*
%TO.C,R13*%
X101954000Y-102136641D02*
X101954000Y-101829359D01*
X102714000Y-102136641D02*
X102714000Y-101829359D01*
%TO.C,R12*%
X97181641Y-103885000D02*
X96874359Y-103885000D01*
X97181641Y-103125000D02*
X96874359Y-103125000D01*
%TO.C,R11*%
X97634359Y-98045000D02*
X97941641Y-98045000D01*
X97634359Y-98805000D02*
X97941641Y-98805000D01*
%TO.C,R10*%
X91794359Y-108459000D02*
X92101641Y-108459000D01*
X91794359Y-109219000D02*
X92101641Y-109219000D01*
%TO.C,R9*%
X98396359Y-101982000D02*
X98703641Y-101982000D01*
X98396359Y-102742000D02*
X98703641Y-102742000D01*
%TO.C,R7*%
X98803000Y-99723641D02*
X98803000Y-99416359D01*
X99563000Y-99723641D02*
X99563000Y-99416359D01*
%TO.C,R6*%
X103267000Y-108709000D02*
X105267000Y-108709000D01*
X103267000Y-111509000D02*
X103267000Y-108709000D01*
X105267000Y-111509000D02*
X103267000Y-111509000D01*
X105267000Y-108709000D02*
X105267000Y-111509000D01*
%TO.C,Q3*%
X97384000Y-102918000D02*
X96164000Y-102918000D01*
X97384000Y-101758000D02*
X97384000Y-102918000D01*
X96164000Y-102918000D02*
X96164000Y-101758000D01*
%TO.C,Q2*%
X97432000Y-99012000D02*
X98652000Y-99012000D01*
X97432000Y-100172000D02*
X97432000Y-99012000D01*
X98652000Y-99012000D02*
X98652000Y-100172000D01*
%TO.C,L2*%
X101982242Y-95579000D02*
X101161758Y-95579000D01*
X101982242Y-96699000D02*
X101161758Y-96699000D01*
%TO.C,L1*%
X104836000Y-105888758D02*
X104836000Y-106709242D01*
X103716000Y-105888758D02*
X103716000Y-106709242D01*
D10*
%TO.C,D1*%
X101777000Y-114882000D02*
G75*
G03*
X101777000Y-114882000I-50000J0D01*
G01*
D12*
%TO.C,C20*%
X98199164Y-106532000D02*
X98414836Y-106532000D01*
X98199164Y-105812000D02*
X98414836Y-105812000D01*
%TO.C,C19*%
X103710000Y-102088836D02*
X103710000Y-101873164D01*
X102990000Y-102088836D02*
X102990000Y-101873164D01*
%TO.C,C18*%
X101297000Y-98035164D02*
X101297000Y-98250836D01*
X100577000Y-98035164D02*
X100577000Y-98250836D01*
%TO.C,C15*%
X101297000Y-100183836D02*
X101297000Y-99968164D01*
X100577000Y-100183836D02*
X100577000Y-99968164D01*
%TO.C,C14*%
X101367000Y-118637164D02*
X101367000Y-118852836D01*
X102087000Y-118637164D02*
X102087000Y-118852836D01*
%TO.C,C12*%
X102383000Y-118637164D02*
X102383000Y-118852836D01*
X103103000Y-118637164D02*
X103103000Y-118852836D01*
%TO.C,C10*%
X103399000Y-118637164D02*
X103399000Y-118852836D01*
X104119000Y-118637164D02*
X104119000Y-118852836D01*
%TO.C,C9*%
X104415000Y-118637164D02*
X104415000Y-118852836D01*
X105135000Y-118637164D02*
X105135000Y-118852836D01*
%TO.C,C5*%
X102351836Y-103272000D02*
X102136164Y-103272000D01*
X102351836Y-103992000D02*
X102136164Y-103992000D01*
%TO.C,C4*%
X92308000Y-106660836D02*
X92308000Y-106445164D01*
X91588000Y-106660836D02*
X91588000Y-106445164D01*
%TO.C,C3*%
X91588000Y-104540164D02*
X91588000Y-104755836D01*
X92308000Y-104540164D02*
X92308000Y-104755836D01*
%TO.C,C1*%
X100231164Y-103992000D02*
X100446836Y-103992000D01*
X100231164Y-103272000D02*
X100446836Y-103272000D01*
%TD*%
M02*
