%TF.GenerationSoftware,KiCad,Pcbnew,(6.0.11-0)*%
%TF.CreationDate,2023-03-16T18:41:31-05:00*%
%TF.ProjectId,STEP,53544550-2e6b-4696-9361-645f70636258,rev?*%
%TF.SameCoordinates,Original*%
%TF.FileFunction,Paste,Top*%
%TF.FilePolarity,Positive*%
%FSLAX46Y46*%
G04 Gerber Fmt 4.6, Leading zero omitted, Abs format (unit mm)*
G04 Created by KiCad (PCBNEW (6.0.11-0)) date 2023-03-16 18:41:31*
%MOMM*%
%LPD*%
G01*
G04 APERTURE LIST*
G04 Aperture macros list*
%AMRoundRect*
0 Rectangle with rounded corners*
0 $1 Rounding radius*
0 $2 $3 $4 $5 $6 $7 $8 $9 X,Y pos of 4 corners*
0 Add a 4 corners polygon primitive as box body*
4,1,4,$2,$3,$4,$5,$6,$7,$8,$9,$2,$3,0*
0 Add four circle primitives for the rounded corners*
1,1,$1+$1,$2,$3*
1,1,$1+$1,$4,$5*
1,1,$1+$1,$6,$7*
1,1,$1+$1,$8,$9*
0 Add four rect primitives between the rounded corners*
20,1,$1+$1,$2,$3,$4,$5,0*
20,1,$1+$1,$4,$5,$6,$7,0*
20,1,$1+$1,$6,$7,$8,$9,0*
20,1,$1+$1,$8,$9,$2,$3,0*%
G04 Aperture macros list end*
%ADD10C,0.010000*%
%ADD11RoundRect,0.135000X0.185000X-0.135000X0.185000X0.135000X-0.185000X0.135000X-0.185000X-0.135000X0*%
%ADD12R,1.050000X2.200000*%
%ADD13R,1.000000X1.000000*%
%ADD14R,0.576580X0.351536*%
%ADD15R,0.351536X0.576580*%
%ADD16R,0.203200X0.203200*%
%ADD17R,0.750000X0.650000*%
%ADD18R,0.650000X1.060000*%
%ADD19RoundRect,0.008100X-0.421900X-0.126900X0.421900X-0.126900X0.421900X0.126900X-0.421900X0.126900X0*%
%ADD20RoundRect,0.008100X0.126900X-0.421900X0.126900X0.421900X-0.126900X0.421900X-0.126900X-0.421900X0*%
%ADD21R,1.060000X0.650000*%
%ADD22RoundRect,0.135000X0.135000X0.185000X-0.135000X0.185000X-0.135000X-0.185000X0.135000X-0.185000X0*%
%ADD23RoundRect,0.135000X-0.135000X-0.185000X0.135000X-0.185000X0.135000X0.185000X-0.135000X0.185000X0*%
%ADD24RoundRect,0.135000X-0.185000X0.135000X-0.185000X-0.135000X0.185000X-0.135000X0.185000X0.135000X0*%
%ADD25RoundRect,0.050000X0.075000X-0.150000X0.075000X0.150000X-0.075000X0.150000X-0.075000X-0.150000X0*%
%ADD26RoundRect,0.050000X0.300000X-0.150000X0.300000X0.150000X-0.300000X0.150000X-0.300000X-0.150000X0*%
%ADD27RoundRect,0.050000X-0.075000X0.150000X-0.075000X-0.150000X0.075000X-0.150000X0.075000X0.150000X0*%
%ADD28RoundRect,0.050000X-0.300000X0.150000X-0.300000X-0.150000X0.300000X-0.150000X0.300000X0.150000X0*%
%ADD29RoundRect,0.250000X0.275000X0.350000X-0.275000X0.350000X-0.275000X-0.350000X0.275000X-0.350000X0*%
%ADD30RoundRect,0.250000X-0.350000X0.275000X-0.350000X-0.275000X0.350000X-0.275000X0.350000X0.275000X0*%
%ADD31RoundRect,0.147500X0.172500X-0.147500X0.172500X0.147500X-0.172500X0.147500X-0.172500X-0.147500X0*%
%ADD32RoundRect,0.140000X-0.140000X-0.170000X0.140000X-0.170000X0.140000X0.170000X-0.140000X0.170000X0*%
%ADD33RoundRect,0.140000X0.170000X-0.140000X0.170000X0.140000X-0.170000X0.140000X-0.170000X-0.140000X0*%
%ADD34RoundRect,0.140000X-0.170000X0.140000X-0.170000X-0.140000X0.170000X-0.140000X0.170000X0.140000X0*%
%ADD35RoundRect,0.079500X0.079500X0.100500X-0.079500X0.100500X-0.079500X-0.100500X0.079500X-0.100500X0*%
%ADD36RoundRect,0.079500X-0.079500X-0.100500X0.079500X-0.100500X0.079500X0.100500X-0.079500X0.100500X0*%
%ADD37RoundRect,0.079500X-0.100500X0.079500X-0.100500X-0.079500X0.100500X-0.079500X0.100500X0.079500X0*%
%ADD38RoundRect,0.140000X0.140000X0.170000X-0.140000X0.170000X-0.140000X-0.170000X0.140000X-0.170000X0*%
G04 APERTURE END LIST*
%TO.C,U4*%
G36*
X96391000Y-116965000D02*
G01*
X94611000Y-116965000D01*
X94611000Y-115185000D01*
X96391000Y-115185000D01*
X96391000Y-116965000D01*
G37*
D10*
X96391000Y-116965000D02*
X94611000Y-116965000D01*
X94611000Y-115185000D01*
X96391000Y-115185000D01*
X96391000Y-116965000D01*
G36*
X99191000Y-116965000D02*
G01*
X97411000Y-116965000D01*
X97411000Y-115185000D01*
X99191000Y-115185000D01*
X99191000Y-116965000D01*
G37*
X99191000Y-116965000D02*
X97411000Y-116965000D01*
X97411000Y-115185000D01*
X99191000Y-115185000D01*
X99191000Y-116965000D01*
G36*
X96391000Y-119765000D02*
G01*
X94611000Y-119765000D01*
X94611000Y-117985000D01*
X96391000Y-117985000D01*
X96391000Y-119765000D01*
G37*
X96391000Y-119765000D02*
X94611000Y-119765000D01*
X94611000Y-117985000D01*
X96391000Y-117985000D01*
X96391000Y-119765000D01*
G36*
X99191000Y-119765000D02*
G01*
X97411000Y-119765000D01*
X97411000Y-117985000D01*
X99191000Y-117985000D01*
X99191000Y-119765000D01*
G37*
X99191000Y-119765000D02*
X97411000Y-119765000D01*
X97411000Y-117985000D01*
X99191000Y-117985000D01*
X99191000Y-119765000D01*
%TD*%
D11*
%TO.C,R5*%
X102870000Y-114302000D03*
X102870000Y-113282000D03*
%TD*%
D12*
%TO.C,U5*%
X99646000Y-127254000D03*
D13*
X98171000Y-128754000D03*
D12*
X96696000Y-127254000D03*
D13*
X98171000Y-125754000D03*
%TD*%
D14*
%TO.C,U1*%
X95063300Y-105037001D03*
X95063300Y-105537000D03*
X95063300Y-106036999D03*
D15*
X94857001Y-106747300D03*
X94357000Y-106747300D03*
X93857000Y-106747300D03*
X93356999Y-106747300D03*
D14*
X93150700Y-106036999D03*
X93150700Y-105537000D03*
X93150700Y-105037001D03*
D15*
X93356999Y-104326700D03*
X93857000Y-104326700D03*
X94357000Y-104326700D03*
X94857001Y-104326700D03*
%TD*%
D16*
%TO.C,AE1*%
X98171000Y-124030999D03*
X98171000Y-123444000D03*
X98171000Y-122857001D03*
X97663000Y-122857001D03*
X97663000Y-123444000D03*
X97663000Y-124030999D03*
%TD*%
D17*
%TO.C,Y1*%
X103107000Y-122434000D03*
X104157000Y-122434000D03*
X103107000Y-123184000D03*
X104157000Y-123184000D03*
%TD*%
D18*
%TO.C,U7*%
X102400000Y-100160000D03*
X103350000Y-100160000D03*
X104300000Y-100160000D03*
X104300000Y-97960000D03*
X102400000Y-97960000D03*
%TD*%
D19*
%TO.C,U4*%
X100336000Y-114725000D03*
X100336000Y-115225000D03*
X100336000Y-115725000D03*
X100336000Y-116225000D03*
X100336000Y-116725000D03*
X100336000Y-117225000D03*
X100336000Y-117725000D03*
X100336000Y-118225000D03*
X100336000Y-118725000D03*
X100336000Y-119225000D03*
X100336000Y-119725000D03*
X100336000Y-120225000D03*
X93466000Y-120225000D03*
X93466000Y-119725000D03*
X93466000Y-119225000D03*
X93466000Y-118725000D03*
X93466000Y-118225000D03*
X93466000Y-117725000D03*
X93466000Y-117225000D03*
X93466000Y-116725000D03*
X93466000Y-116225000D03*
X93466000Y-115725000D03*
X93466000Y-115225000D03*
X93466000Y-114725000D03*
D20*
X94151000Y-114040000D03*
X94651000Y-114040000D03*
X95151000Y-114040000D03*
X95651000Y-114040000D03*
X96151000Y-114040000D03*
X96651000Y-114040000D03*
X97151000Y-114040000D03*
X97651000Y-114040000D03*
X98151000Y-114040000D03*
X98651000Y-114040000D03*
X99151000Y-114040000D03*
X99651000Y-114040000D03*
X99651000Y-120910000D03*
X99151000Y-120910000D03*
X98651000Y-120910000D03*
X98151000Y-120910000D03*
X97651000Y-120910000D03*
X97151000Y-120910000D03*
X96651000Y-120910000D03*
X96151000Y-120910000D03*
X95651000Y-120910000D03*
X95151000Y-120910000D03*
X94651000Y-120910000D03*
X94151000Y-120910000D03*
%TD*%
D21*
%TO.C,U3*%
X100255000Y-105222000D03*
X100255000Y-106172000D03*
X100255000Y-107122000D03*
X102455000Y-107122000D03*
X102455000Y-105222000D03*
%TD*%
D22*
%TO.C,R16*%
X98817000Y-107315000D03*
X97797000Y-107315000D03*
%TD*%
D23*
%TO.C,R15*%
X97797000Y-105029000D03*
X98817000Y-105029000D03*
%TD*%
D24*
%TO.C,R14*%
X104366000Y-101471000D03*
X104366000Y-102491000D03*
%TD*%
D11*
%TO.C,R13*%
X102334000Y-102493000D03*
X102334000Y-101473000D03*
%TD*%
D22*
%TO.C,R12*%
X97538000Y-103505000D03*
X96518000Y-103505000D03*
%TD*%
D23*
%TO.C,R11*%
X97278000Y-98425000D03*
X98298000Y-98425000D03*
%TD*%
%TO.C,R10*%
X91438000Y-108839000D03*
X92458000Y-108839000D03*
%TD*%
%TO.C,R9*%
X98040000Y-102362000D03*
X99060000Y-102362000D03*
%TD*%
D11*
%TO.C,R7*%
X99183000Y-100080000D03*
X99183000Y-99060000D03*
%TD*%
D25*
%TO.C,Q3*%
X96549000Y-102458000D03*
X96999000Y-102458000D03*
D26*
X96774000Y-101758000D03*
%TD*%
D27*
%TO.C,Q2*%
X98267000Y-99472000D03*
X97817000Y-99472000D03*
D28*
X98042000Y-100172000D03*
%TD*%
D29*
%TO.C,L2*%
X100422000Y-96139000D03*
X102722000Y-96139000D03*
%TD*%
D30*
%TO.C,L1*%
X104276000Y-105149000D03*
X104276000Y-107449000D03*
%TD*%
D31*
%TO.C,D1*%
X101727000Y-114277000D03*
X101727000Y-113307000D03*
%TD*%
D32*
%TO.C,C20*%
X97827000Y-106172000D03*
X98787000Y-106172000D03*
%TD*%
D33*
%TO.C,C19*%
X103350000Y-102461000D03*
X103350000Y-101501000D03*
%TD*%
D34*
%TO.C,C18*%
X100937000Y-98623000D03*
X100937000Y-97663000D03*
%TD*%
D33*
%TO.C,C15*%
X100937000Y-100556000D03*
X100937000Y-99596000D03*
%TD*%
D34*
%TO.C,C14*%
X101727000Y-118265000D03*
X101727000Y-119225000D03*
%TD*%
D35*
%TO.C,C13*%
X100203000Y-122809000D03*
X99513000Y-122809000D03*
%TD*%
D34*
%TO.C,C12*%
X102743000Y-118265000D03*
X102743000Y-119225000D03*
%TD*%
D35*
%TO.C,C11*%
X100203000Y-123698000D03*
X99513000Y-123698000D03*
%TD*%
D34*
%TO.C,C10*%
X103759000Y-118265000D03*
X103759000Y-119225000D03*
%TD*%
%TO.C,C9*%
X104775000Y-118265000D03*
X104775000Y-119225000D03*
%TD*%
D36*
%TO.C,C8*%
X103953927Y-124205999D03*
X103263927Y-124205999D03*
%TD*%
D37*
%TO.C,C6*%
X105259926Y-123154000D03*
X105259926Y-122464000D03*
%TD*%
D38*
%TO.C,C5*%
X102724000Y-103632000D03*
X101764000Y-103632000D03*
%TD*%
D33*
%TO.C,C4*%
X91948000Y-107033000D03*
X91948000Y-106073000D03*
%TD*%
D34*
%TO.C,C3*%
X91948000Y-104168000D03*
X91948000Y-105128000D03*
%TD*%
D32*
%TO.C,C1*%
X99859000Y-103632000D03*
X100819000Y-103632000D03*
%TD*%
M02*
