%TF.GenerationSoftware,KiCad,Pcbnew,(6.0.11-0)*%
%TF.CreationDate,2023-03-16T18:41:31-05:00*%
%TF.ProjectId,STEP,53544550-2e6b-4696-9361-645f70636258,rev?*%
%TF.SameCoordinates,Original*%
%TF.FileFunction,Legend,Bot*%
%TF.FilePolarity,Positive*%
%FSLAX46Y46*%
G04 Gerber Fmt 4.6, Leading zero omitted, Abs format (unit mm)*
G04 Created by KiCad (PCBNEW (6.0.11-0)) date 2023-03-16 18:41:31*
%MOMM*%
%LPD*%
G01*
G04 APERTURE LIST*
%ADD10C,0.100000*%
%ADD11C,0.150000*%
%ADD12C,0.200000*%
%ADD13C,0.127000*%
%ADD14C,0.120000*%
%ADD15C,0.050000*%
G04 APERTURE END LIST*
D10*
X104591809Y-111910190D02*
X105091809Y-111910190D01*
X104853714Y-111910190D02*
X104853714Y-111624476D01*
X104591809Y-111624476D02*
X105091809Y-111624476D01*
X104591809Y-111172095D02*
X104853714Y-111172095D01*
X104901333Y-111195904D01*
X104925142Y-111243523D01*
X104925142Y-111338761D01*
X104901333Y-111386380D01*
X104615619Y-111172095D02*
X104591809Y-111219714D01*
X104591809Y-111338761D01*
X104615619Y-111386380D01*
X104663238Y-111410190D01*
X104710857Y-111410190D01*
X104758476Y-111386380D01*
X104782285Y-111338761D01*
X104782285Y-111219714D01*
X104806095Y-111172095D01*
X104925142Y-110934000D02*
X104425142Y-110934000D01*
X104901333Y-110934000D02*
X104925142Y-110886380D01*
X104925142Y-110791142D01*
X104901333Y-110743523D01*
X104877523Y-110719714D01*
X104829904Y-110695904D01*
X104687047Y-110695904D01*
X104639428Y-110719714D01*
X104615619Y-110743523D01*
X104591809Y-110791142D01*
X104591809Y-110886380D01*
X104615619Y-110934000D01*
X104925142Y-110553047D02*
X104925142Y-110362571D01*
X105091809Y-110481619D02*
X104663238Y-110481619D01*
X104615619Y-110457809D01*
X104591809Y-110410190D01*
X104591809Y-110362571D01*
X104591809Y-110195904D02*
X104925142Y-110195904D01*
X105091809Y-110195904D02*
X105068000Y-110219714D01*
X105044190Y-110195904D01*
X105068000Y-110172095D01*
X105091809Y-110195904D01*
X105044190Y-110195904D01*
X104615619Y-109743523D02*
X104591809Y-109791142D01*
X104591809Y-109886380D01*
X104615619Y-109934000D01*
X104639428Y-109957809D01*
X104687047Y-109981619D01*
X104829904Y-109981619D01*
X104877523Y-109957809D01*
X104901333Y-109934000D01*
X104925142Y-109886380D01*
X104925142Y-109791142D01*
X104901333Y-109743523D01*
X104615619Y-109553047D02*
X104591809Y-109505428D01*
X104591809Y-109410190D01*
X104615619Y-109362571D01*
X104663238Y-109338761D01*
X104687047Y-109338761D01*
X104734666Y-109362571D01*
X104758476Y-109410190D01*
X104758476Y-109481619D01*
X104782285Y-109529238D01*
X104829904Y-109553047D01*
X104853714Y-109553047D01*
X104901333Y-109529238D01*
X104925142Y-109481619D01*
X104925142Y-109410190D01*
X104901333Y-109362571D01*
X104782285Y-108743523D02*
X104782285Y-108362571D01*
X104591809Y-108553047D02*
X104972761Y-108553047D01*
X104853714Y-107576857D02*
X104853714Y-107743523D01*
X104591809Y-107743523D02*
X105091809Y-107743523D01*
X105091809Y-107505428D01*
X104615619Y-107124476D02*
X104591809Y-107172095D01*
X104591809Y-107267333D01*
X104615619Y-107314952D01*
X104663238Y-107338761D01*
X104853714Y-107338761D01*
X104901333Y-107314952D01*
X104925142Y-107267333D01*
X104925142Y-107172095D01*
X104901333Y-107124476D01*
X104853714Y-107100666D01*
X104806095Y-107100666D01*
X104758476Y-107338761D01*
X104615619Y-106695904D02*
X104591809Y-106743523D01*
X104591809Y-106838761D01*
X104615619Y-106886380D01*
X104663238Y-106910190D01*
X104853714Y-106910190D01*
X104901333Y-106886380D01*
X104925142Y-106838761D01*
X104925142Y-106743523D01*
X104901333Y-106695904D01*
X104853714Y-106672095D01*
X104806095Y-106672095D01*
X104758476Y-106910190D01*
X104591809Y-106457809D02*
X105091809Y-106457809D01*
X104901333Y-106457809D02*
X104925142Y-106410190D01*
X104925142Y-106314952D01*
X104901333Y-106267333D01*
X104877523Y-106243523D01*
X104829904Y-106219714D01*
X104687047Y-106219714D01*
X104639428Y-106243523D01*
X104615619Y-106267333D01*
X104591809Y-106314952D01*
X104591809Y-106410190D01*
X104615619Y-106457809D01*
X104591809Y-105791142D02*
X104853714Y-105791142D01*
X104901333Y-105814952D01*
X104925142Y-105862571D01*
X104925142Y-105957809D01*
X104901333Y-106005428D01*
X104615619Y-105791142D02*
X104591809Y-105838761D01*
X104591809Y-105957809D01*
X104615619Y-106005428D01*
X104663238Y-106029238D01*
X104710857Y-106029238D01*
X104758476Y-106005428D01*
X104782285Y-105957809D01*
X104782285Y-105838761D01*
X104806095Y-105791142D01*
X104615619Y-105338761D02*
X104591809Y-105386380D01*
X104591809Y-105481619D01*
X104615619Y-105529238D01*
X104639428Y-105553047D01*
X104687047Y-105576857D01*
X104829904Y-105576857D01*
X104877523Y-105553047D01*
X104901333Y-105529238D01*
X104925142Y-105481619D01*
X104925142Y-105386380D01*
X104901333Y-105338761D01*
X104591809Y-105124476D02*
X105091809Y-105124476D01*
X104782285Y-105076857D02*
X104591809Y-104934000D01*
X104925142Y-104934000D02*
X104734666Y-105124476D01*
X104591809Y-104338761D02*
X105091809Y-104338761D01*
X104734666Y-104172095D01*
X105091809Y-104005428D01*
X104591809Y-104005428D01*
X104591809Y-103695904D02*
X104615619Y-103743523D01*
X104639428Y-103767333D01*
X104687047Y-103791142D01*
X104829904Y-103791142D01*
X104877523Y-103767333D01*
X104901333Y-103743523D01*
X104925142Y-103695904D01*
X104925142Y-103624476D01*
X104901333Y-103576857D01*
X104877523Y-103553047D01*
X104829904Y-103529238D01*
X104687047Y-103529238D01*
X104639428Y-103553047D01*
X104615619Y-103576857D01*
X104591809Y-103624476D01*
X104591809Y-103695904D01*
X104591809Y-103100666D02*
X105091809Y-103100666D01*
X104615619Y-103100666D02*
X104591809Y-103148285D01*
X104591809Y-103243523D01*
X104615619Y-103291142D01*
X104639428Y-103314952D01*
X104687047Y-103338761D01*
X104829904Y-103338761D01*
X104877523Y-103314952D01*
X104901333Y-103291142D01*
X104925142Y-103243523D01*
X104925142Y-103148285D01*
X104901333Y-103100666D01*
X104925142Y-102648285D02*
X104591809Y-102648285D01*
X104925142Y-102862571D02*
X104663238Y-102862571D01*
X104615619Y-102838761D01*
X104591809Y-102791142D01*
X104591809Y-102719714D01*
X104615619Y-102672095D01*
X104639428Y-102648285D01*
X104591809Y-102338761D02*
X104615619Y-102386380D01*
X104663238Y-102410190D01*
X105091809Y-102410190D01*
X104615619Y-101957809D02*
X104591809Y-102005428D01*
X104591809Y-102100666D01*
X104615619Y-102148285D01*
X104663238Y-102172095D01*
X104853714Y-102172095D01*
X104901333Y-102148285D01*
X104925142Y-102100666D01*
X104925142Y-102005428D01*
X104901333Y-101957809D01*
X104853714Y-101934000D01*
X104806095Y-101934000D01*
X104758476Y-102172095D01*
X103810619Y-108886380D02*
X103786809Y-108814952D01*
X103786809Y-108695904D01*
X103810619Y-108648285D01*
X103834428Y-108624476D01*
X103882047Y-108600666D01*
X103929666Y-108600666D01*
X103977285Y-108624476D01*
X104001095Y-108648285D01*
X104024904Y-108695904D01*
X104048714Y-108791142D01*
X104072523Y-108838761D01*
X104096333Y-108862571D01*
X104143952Y-108886380D01*
X104191571Y-108886380D01*
X104239190Y-108862571D01*
X104263000Y-108838761D01*
X104286809Y-108791142D01*
X104286809Y-108672095D01*
X104263000Y-108600666D01*
X104286809Y-108457809D02*
X104286809Y-108172095D01*
X103786809Y-108314952D02*
X104286809Y-108314952D01*
X104048714Y-108005428D02*
X104048714Y-107838761D01*
X103786809Y-107767333D02*
X103786809Y-108005428D01*
X104286809Y-108005428D01*
X104286809Y-107767333D01*
X103786809Y-107553047D02*
X104286809Y-107553047D01*
X104286809Y-107362571D01*
X104263000Y-107314952D01*
X104239190Y-107291142D01*
X104191571Y-107267333D01*
X104120142Y-107267333D01*
X104072523Y-107291142D01*
X104048714Y-107314952D01*
X104024904Y-107362571D01*
X104024904Y-107553047D01*
X104239190Y-106695904D02*
X104263000Y-106672095D01*
X104286809Y-106624476D01*
X104286809Y-106505428D01*
X104263000Y-106457809D01*
X104239190Y-106434000D01*
X104191571Y-106410190D01*
X104143952Y-106410190D01*
X104072523Y-106434000D01*
X103786809Y-106719714D01*
X103786809Y-106410190D01*
X104286809Y-106100666D02*
X104286809Y-106053047D01*
X104263000Y-106005428D01*
X104239190Y-105981619D01*
X104191571Y-105957809D01*
X104096333Y-105934000D01*
X103977285Y-105934000D01*
X103882047Y-105957809D01*
X103834428Y-105981619D01*
X103810619Y-106005428D01*
X103786809Y-106053047D01*
X103786809Y-106100666D01*
X103810619Y-106148285D01*
X103834428Y-106172095D01*
X103882047Y-106195904D01*
X103977285Y-106219714D01*
X104096333Y-106219714D01*
X104191571Y-106195904D01*
X104239190Y-106172095D01*
X104263000Y-106148285D01*
X104286809Y-106100666D01*
X104239190Y-105743523D02*
X104263000Y-105719714D01*
X104286809Y-105672095D01*
X104286809Y-105553047D01*
X104263000Y-105505428D01*
X104239190Y-105481619D01*
X104191571Y-105457809D01*
X104143952Y-105457809D01*
X104072523Y-105481619D01*
X103786809Y-105767333D01*
X103786809Y-105457809D01*
X104286809Y-105291142D02*
X104286809Y-104981619D01*
X104096333Y-105148285D01*
X104096333Y-105076857D01*
X104072523Y-105029238D01*
X104048714Y-105005428D01*
X104001095Y-104981619D01*
X103882047Y-104981619D01*
X103834428Y-105005428D01*
X103810619Y-105029238D01*
X103786809Y-105076857D01*
X103786809Y-105219714D01*
X103810619Y-105267333D01*
X103834428Y-105291142D01*
X103481809Y-108291142D02*
X103481809Y-107981619D01*
X103291333Y-108148285D01*
X103291333Y-108076857D01*
X103267523Y-108029238D01*
X103243714Y-108005428D01*
X103196095Y-107981619D01*
X103077047Y-107981619D01*
X103029428Y-108005428D01*
X103005619Y-108029238D01*
X102981809Y-108076857D01*
X102981809Y-108219714D01*
X103005619Y-108267333D01*
X103029428Y-108291142D01*
X103029428Y-107767333D02*
X103005619Y-107743523D01*
X102981809Y-107767333D01*
X103005619Y-107791142D01*
X103029428Y-107767333D01*
X102981809Y-107767333D01*
X102981809Y-107267333D02*
X102981809Y-107553047D01*
X102981809Y-107410190D02*
X103481809Y-107410190D01*
X103410380Y-107457809D01*
X103362761Y-107505428D01*
X103338952Y-107553047D01*
X103481809Y-106838761D02*
X103481809Y-106934000D01*
X103458000Y-106981619D01*
X103434190Y-107005428D01*
X103362761Y-107053047D01*
X103267523Y-107076857D01*
X103077047Y-107076857D01*
X103029428Y-107053047D01*
X103005619Y-107029238D01*
X102981809Y-106981619D01*
X102981809Y-106886380D01*
X103005619Y-106838761D01*
X103029428Y-106814952D01*
X103077047Y-106791142D01*
X103196095Y-106791142D01*
X103243714Y-106814952D01*
X103267523Y-106838761D01*
X103291333Y-106886380D01*
X103291333Y-106981619D01*
X103267523Y-107029238D01*
X103243714Y-107053047D01*
X103196095Y-107076857D01*
X103029428Y-106576857D02*
X103005619Y-106553047D01*
X102981809Y-106576857D01*
X103005619Y-106600666D01*
X103029428Y-106576857D01*
X102981809Y-106576857D01*
X103434190Y-106362571D02*
X103458000Y-106338761D01*
X103481809Y-106291142D01*
X103481809Y-106172095D01*
X103458000Y-106124476D01*
X103434190Y-106100666D01*
X103386571Y-106076857D01*
X103338952Y-106076857D01*
X103267523Y-106100666D01*
X102981809Y-106386380D01*
X102981809Y-106076857D01*
X103481809Y-105910190D02*
X103481809Y-105600666D01*
X103291333Y-105767333D01*
X103291333Y-105695904D01*
X103267523Y-105648285D01*
X103243714Y-105624476D01*
X103196095Y-105600666D01*
X103077047Y-105600666D01*
X103029428Y-105624476D01*
X103005619Y-105648285D01*
X102981809Y-105695904D01*
X102981809Y-105838761D01*
X103005619Y-105886380D01*
X103029428Y-105910190D01*
D11*
X102870000Y-113538000D02*
X105664000Y-113538000D01*
X102870000Y-118618000D02*
X102870000Y-114427000D01*
X102870000Y-120396000D02*
X102870000Y-119761000D01*
X105664000Y-120396000D02*
X102870000Y-120396000D01*
D10*
X105060666Y-119503000D02*
X105094000Y-119536333D01*
X105194000Y-119569666D01*
X105260666Y-119569666D01*
X105360666Y-119536333D01*
X105427333Y-119469666D01*
X105460666Y-119403000D01*
X105494000Y-119269666D01*
X105494000Y-119169666D01*
X105460666Y-119036333D01*
X105427333Y-118969666D01*
X105360666Y-118903000D01*
X105260666Y-118869666D01*
X105194000Y-118869666D01*
X105094000Y-118903000D01*
X105060666Y-118936333D01*
X104760666Y-119203000D02*
X104527333Y-119203000D01*
X104427333Y-119569666D02*
X104760666Y-119569666D01*
X104760666Y-118869666D01*
X104427333Y-118869666D01*
X103794000Y-119569666D02*
X104127333Y-119569666D01*
X104127333Y-118869666D01*
X103227333Y-119569666D02*
X103560666Y-119569666D01*
X103560666Y-118869666D01*
X103136666Y-119176000D02*
X102603333Y-119176000D01*
X102870000Y-119442666D02*
X102870000Y-118909333D01*
X103136666Y-113969000D02*
X102603333Y-113969000D01*
X97005666Y-97906666D02*
X96672333Y-97906666D01*
X97072333Y-98106666D02*
X96839000Y-97406666D01*
X96605666Y-98106666D01*
X96372333Y-97406666D02*
X96372333Y-97973333D01*
X96339000Y-98040000D01*
X96305666Y-98073333D01*
X96239000Y-98106666D01*
X96105666Y-98106666D01*
X96039000Y-98073333D01*
X96005666Y-98040000D01*
X95972333Y-97973333D01*
X95972333Y-97406666D01*
X95705666Y-97406666D02*
X95239000Y-98106666D01*
X95239000Y-97406666D02*
X95705666Y-98106666D01*
X98348000Y-101621333D02*
X98314666Y-101521333D01*
X98281333Y-101488000D01*
X98214666Y-101454666D01*
X98114666Y-101454666D01*
X98048000Y-101488000D01*
X98014666Y-101521333D01*
X97981333Y-101588000D01*
X97981333Y-101854666D01*
X98681333Y-101854666D01*
X98681333Y-101621333D01*
X98648000Y-101554666D01*
X98614666Y-101521333D01*
X98548000Y-101488000D01*
X98481333Y-101488000D01*
X98414666Y-101521333D01*
X98381333Y-101554666D01*
X98348000Y-101621333D01*
X98348000Y-101854666D01*
X98181333Y-101188000D02*
X98181333Y-100854666D01*
X97981333Y-101254666D02*
X98681333Y-101021333D01*
X97981333Y-100788000D01*
X98681333Y-100654666D02*
X98681333Y-100254666D01*
X97981333Y-100454666D02*
X98681333Y-100454666D01*
X98681333Y-100121333D02*
X98681333Y-99721333D01*
X97981333Y-99921333D02*
X98681333Y-99921333D01*
D12*
%TO.C,J1*%
X96415500Y-115033000D02*
G75*
G03*
X96415500Y-115033000I-100000J0D01*
G01*
D13*
X94765500Y-120189000D02*
X94765500Y-121539000D01*
X91765500Y-121539000D02*
X91765500Y-120189000D01*
X91765500Y-111883000D02*
X94765500Y-111883000D01*
X91765500Y-113233000D02*
X91765500Y-111883000D01*
X94765500Y-111883000D02*
X94765500Y-113233000D01*
X94765500Y-121539000D02*
X91765500Y-121539000D01*
%TO.C,U8*%
X100639000Y-98749500D02*
X100639000Y-96269500D01*
X100639000Y-96269500D02*
X91639000Y-96269500D01*
X91639000Y-96269500D02*
X91639000Y-98749500D01*
X91639000Y-102789500D02*
X91639000Y-105269500D01*
X91639000Y-105269500D02*
X100639000Y-105269500D01*
X100639000Y-105269500D02*
X100639000Y-102789500D01*
D12*
X101939000Y-100769500D02*
G75*
G03*
X101939000Y-100769500I-100000J0D01*
G01*
%TO.C,U6*%
X96239000Y-95069500D02*
G75*
G03*
X96239000Y-95069500I-100000J0D01*
G01*
D13*
X100639000Y-96269500D02*
X98159000Y-96269500D01*
X100639000Y-105269500D02*
X100639000Y-96269500D01*
X98159000Y-105269500D02*
X100639000Y-105269500D01*
X91639000Y-105269500D02*
X94119000Y-105269500D01*
X91639000Y-96269500D02*
X91639000Y-105269500D01*
X94119000Y-96269500D02*
X91639000Y-96269500D01*
D14*
%TO.C,U2*%
X99445000Y-116793000D02*
X101145000Y-116793000D01*
X99595000Y-115093000D02*
X101145000Y-115093000D01*
%TO.C,TP2*%
X105344000Y-116781000D02*
X103444000Y-116781000D01*
X105344000Y-118681000D02*
X105344000Y-116781000D01*
X103444000Y-118681000D02*
X105344000Y-118681000D01*
X103444000Y-116781000D02*
X103444000Y-118681000D01*
%TO.C,TP1*%
X105344000Y-114368000D02*
X103444000Y-114368000D01*
X105344000Y-116268000D02*
X105344000Y-114368000D01*
X103444000Y-116268000D02*
X105344000Y-116268000D01*
X103444000Y-114368000D02*
X103444000Y-116268000D01*
%TO.C,R18*%
X104212359Y-99694000D02*
X104519641Y-99694000D01*
X104212359Y-98934000D02*
X104519641Y-98934000D01*
%TO.C,R17*%
X104519641Y-97791000D02*
X104212359Y-97791000D01*
X104519641Y-98551000D02*
X104212359Y-98551000D01*
%TO.C,R8*%
X101218359Y-108965000D02*
X101525641Y-108965000D01*
X101218359Y-108205000D02*
X101525641Y-108205000D01*
%TO.C,R4*%
X98705641Y-118363000D02*
X98398359Y-118363000D01*
X98705641Y-117603000D02*
X98398359Y-117603000D01*
%TO.C,R3*%
X100737641Y-117982000D02*
X100430359Y-117982000D01*
X100737641Y-117222000D02*
X100430359Y-117222000D01*
%TO.C,R2*%
X97890359Y-116460000D02*
X98197641Y-116460000D01*
X97890359Y-117220000D02*
X98197641Y-117220000D01*
%TO.C,R1*%
X102615000Y-116940359D02*
X102615000Y-117247641D01*
X101855000Y-116940359D02*
X101855000Y-117247641D01*
D15*
%TO.C,Q1*%
X97790500Y-115062500D02*
X97790500Y-116212500D01*
X98940500Y-115062500D02*
X98940500Y-116212500D01*
D14*
X97890500Y-115062500D02*
G75*
G03*
X97890500Y-115062500I-100000J0D01*
G01*
D15*
X97790500Y-116212500D02*
X98940500Y-116212500D01*
X97790500Y-115062500D02*
X98940500Y-115062500D01*
D14*
%TO.C,C17*%
X104473836Y-100817000D02*
X104258164Y-100817000D01*
X104473836Y-100097000D02*
X104258164Y-100097000D01*
%TO.C,C16*%
X104286164Y-96668000D02*
X104501836Y-96668000D01*
X104286164Y-97388000D02*
X104501836Y-97388000D01*
%TO.C,C7*%
X99449836Y-108945000D02*
X99234164Y-108945000D01*
X99449836Y-108225000D02*
X99234164Y-108225000D01*
%TO.C,C2*%
X102595000Y-115197836D02*
X102595000Y-114982164D01*
X101875000Y-115197836D02*
X101875000Y-114982164D01*
%TD*%
M02*
