%TF.GenerationSoftware,KiCad,Pcbnew,(6.0.11-0)*%
%TF.CreationDate,2023-03-16T18:41:31-05:00*%
%TF.ProjectId,STEP,53544550-2e6b-4696-9361-645f70636258,rev?*%
%TF.SameCoordinates,Original*%
%TF.FileFunction,Copper,L4,Bot*%
%TF.FilePolarity,Positive*%
%FSLAX46Y46*%
G04 Gerber Fmt 4.6, Leading zero omitted, Abs format (unit mm)*
G04 Created by KiCad (PCBNEW (6.0.11-0)) date 2023-03-16 18:41:31*
%MOMM*%
%LPD*%
G01*
G04 APERTURE LIST*
G04 Aperture macros list*
%AMRoundRect*
0 Rectangle with rounded corners*
0 $1 Rounding radius*
0 $2 $3 $4 $5 $6 $7 $8 $9 X,Y pos of 4 corners*
0 Add a 4 corners polygon primitive as box body*
4,1,4,$2,$3,$4,$5,$6,$7,$8,$9,$2,$3,0*
0 Add four circle primitives for the rounded corners*
1,1,$1+$1,$2,$3*
1,1,$1+$1,$4,$5*
1,1,$1+$1,$6,$7*
1,1,$1+$1,$8,$9*
0 Add four rect primitives between the rounded corners*
20,1,$1+$1,$2,$3,$4,$5,0*
20,1,$1+$1,$4,$5,$6,$7,0*
20,1,$1+$1,$6,$7,$8,$9,0*
20,1,$1+$1,$8,$9,$2,$3,0*%
G04 Aperture macros list end*
%TA.AperFunction,SMDPad,CuDef*%
%ADD10R,1.500000X0.800000*%
%TD*%
%TA.AperFunction,SMDPad,CuDef*%
%ADD11R,1.500000X0.600000*%
%TD*%
%TA.AperFunction,SMDPad,CuDef*%
%ADD12R,1.300000X3.400000*%
%TD*%
%TA.AperFunction,SMDPad,CuDef*%
%ADD13R,3.400000X1.300000*%
%TD*%
%TA.AperFunction,SMDPad,CuDef*%
%ADD14R,0.750000X0.280000*%
%TD*%
%TA.AperFunction,SMDPad,CuDef*%
%ADD15R,0.850000X0.280000*%
%TD*%
%TA.AperFunction,SMDPad,CuDef*%
%ADD16R,1.500000X1.500000*%
%TD*%
%TA.AperFunction,SMDPad,CuDef*%
%ADD17RoundRect,0.135000X-0.135000X-0.185000X0.135000X-0.185000X0.135000X0.185000X-0.135000X0.185000X0*%
%TD*%
%TA.AperFunction,SMDPad,CuDef*%
%ADD18RoundRect,0.135000X0.135000X0.185000X-0.135000X0.185000X-0.135000X-0.185000X0.135000X-0.185000X0*%
%TD*%
%TA.AperFunction,SMDPad,CuDef*%
%ADD19RoundRect,0.135000X-0.185000X0.135000X-0.185000X-0.135000X0.185000X-0.135000X0.185000X0.135000X0*%
%TD*%
%TA.AperFunction,SMDPad,CuDef*%
%ADD20C,0.330000*%
%TD*%
%TA.AperFunction,SMDPad,CuDef*%
%ADD21RoundRect,0.140000X0.140000X0.170000X-0.140000X0.170000X-0.140000X-0.170000X0.140000X-0.170000X0*%
%TD*%
%TA.AperFunction,SMDPad,CuDef*%
%ADD22RoundRect,0.140000X-0.140000X-0.170000X0.140000X-0.170000X0.140000X0.170000X-0.140000X0.170000X0*%
%TD*%
%TA.AperFunction,SMDPad,CuDef*%
%ADD23RoundRect,0.140000X0.170000X-0.140000X0.170000X0.140000X-0.170000X0.140000X-0.170000X-0.140000X0*%
%TD*%
%TA.AperFunction,ViaPad*%
%ADD24C,0.400000*%
%TD*%
%TA.AperFunction,Conductor*%
%ADD25C,0.150000*%
%TD*%
%TA.AperFunction,Conductor*%
%ADD26C,0.400000*%
%TD*%
G04 APERTURE END LIST*
D10*
%TO.P,J1,S4*%
%TO.N,N/C*%
X92215500Y-119483000D03*
%TO.P,J1,S3*%
X95015500Y-119483000D03*
%TO.P,J1,S2*%
X95015500Y-113983000D03*
%TO.P,J1,S1*%
X92215500Y-113983000D03*
D11*
%TO.P,J1,8,8*%
%TO.N,/ADC_IN_3*%
X92215500Y-118483000D03*
%TO.P,J1,7,7*%
%TO.N,/DIO_1*%
X95015500Y-117983000D03*
%TO.P,J1,6,6*%
%TO.N,/DIO_0*%
X92215500Y-117483000D03*
%TO.P,J1,5,5*%
%TO.N,/ADC_IN_1*%
X95015500Y-116983000D03*
%TO.P,J1,4,4*%
%TO.N,/ADC_IN_2*%
X92215500Y-116483000D03*
%TO.P,J1,3,3*%
%TO.N,/ADC_IN_0*%
X95015500Y-115983000D03*
%TO.P,J1,2,2*%
%TO.N,GND*%
X92215500Y-115483000D03*
%TO.P,J1,1,1*%
%TO.N,+1V8*%
X95015500Y-114983000D03*
%TD*%
D12*
%TO.P,U8,1*%
%TO.N,+BATT*%
X100489000Y-100769500D03*
%TO.P,U8,2*%
%TO.N,/BATT_BUZZER_DRAIN*%
X91789000Y-100769500D03*
%TD*%
D13*
%TO.P,U6,2*%
%TO.N,/AUX_BUZZER_DRAIN*%
X96139000Y-105119500D03*
%TO.P,U6,1*%
%TO.N,VAUX*%
X96139000Y-96419500D03*
%TD*%
D14*
%TO.P,U2,6,V-*%
%TO.N,/V_SENSE-*%
X100965000Y-116443000D03*
%TO.P,U2,5,BAT*%
%TO.N,/BATT_FILT*%
X100965000Y-115943000D03*
%TO.P,U2,4,VSS*%
%TO.N,/CELL-*%
X100965000Y-115443000D03*
%TO.P,U2,3,Dout*%
%TO.N,/D_GATE*%
X99815000Y-115443000D03*
%TO.P,U2,2,Cout*%
%TO.N,/C_GATE*%
X99815000Y-115943000D03*
D15*
%TO.P,U2,1,NC*%
%TO.N,unconnected-(U2-Pad1)*%
X99865000Y-116443000D03*
%TD*%
D16*
%TO.P,TP2,1*%
%TO.N,+BATT*%
X104394000Y-117731000D03*
%TD*%
%TO.P,TP1,1*%
%TO.N,/CELL-*%
X104394000Y-115318000D03*
%TD*%
D17*
%TO.P,R18,1*%
%TO.N,GND*%
X103856000Y-99314000D03*
%TO.P,R18,2*%
%TO.N,/VFB_AUX*%
X104876000Y-99314000D03*
%TD*%
D18*
%TO.P,R17,1*%
%TO.N,/VFB_AUX*%
X104876000Y-98171000D03*
%TO.P,R17,2*%
%TO.N,VAUX*%
X103856000Y-98171000D03*
%TD*%
D17*
%TO.P,R8,1*%
%TO.N,/NRST*%
X100862000Y-108585000D03*
%TO.P,R8,2*%
%TO.N,+1V8*%
X101882000Y-108585000D03*
%TD*%
D18*
%TO.P,R4,2*%
%TO.N,GND*%
X98042000Y-117983000D03*
%TO.P,R4,1*%
%TO.N,/BATT_LVL*%
X99062000Y-117983000D03*
%TD*%
%TO.P,R3,2*%
%TO.N,/BATT_LVL*%
X100074000Y-117602000D03*
%TO.P,R3,1*%
%TO.N,+BATT*%
X101094000Y-117602000D03*
%TD*%
D17*
%TO.P,R2,2*%
%TO.N,/V_SENSE-*%
X98554000Y-116840000D03*
%TO.P,R2,1*%
%TO.N,GND*%
X97534000Y-116840000D03*
%TD*%
D19*
%TO.P,R1,2*%
%TO.N,+BATT*%
X102235000Y-117604000D03*
%TO.P,R1,1*%
%TO.N,/BATT_FILT*%
X102235000Y-116584000D03*
%TD*%
D20*
%TO.P,Q1,3,G*%
%TO.N,/C_GATE*%
X98690500Y-115962500D03*
%TO.P,Q1,2,S*%
%TO.N,GND*%
X98040500Y-115962500D03*
%TO.P,Q1,4,G*%
%TO.N,/D_GATE*%
X98690500Y-115312500D03*
%TO.P,Q1,1,S*%
%TO.N,/CELL-*%
X98040500Y-115312500D03*
%TD*%
D21*
%TO.P,C17,1*%
%TO.N,/VFB_AUX*%
X104846000Y-100457000D03*
%TO.P,C17,2*%
%TO.N,GND*%
X103886000Y-100457000D03*
%TD*%
D22*
%TO.P,C16,1*%
%TO.N,VAUX*%
X103914000Y-97028000D03*
%TO.P,C16,2*%
%TO.N,/VFB_AUX*%
X104874000Y-97028000D03*
%TD*%
D21*
%TO.P,C7,1*%
%TO.N,/NRST*%
X99822000Y-108585000D03*
%TO.P,C7,2*%
%TO.N,GND*%
X98862000Y-108585000D03*
%TD*%
D23*
%TO.P,C2,2*%
%TO.N,/CELL-*%
X102235000Y-114610000D03*
%TO.P,C2,1*%
%TO.N,/BATT_FILT*%
X102235000Y-115570000D03*
%TD*%
D24*
%TO.N,+1V8*%
X99695000Y-122174000D03*
%TO.N,GND*%
X105156000Y-124079000D03*
%TO.N,VAUX*%
X103886000Y-96139000D03*
%TO.N,+BATT*%
X105029000Y-120650000D03*
X104267000Y-120650000D03*
X105410000Y-120015000D03*
X104648000Y-120015000D03*
X103886000Y-120015000D03*
X103124000Y-120015000D03*
X100076000Y-101981000D03*
X100076000Y-101346000D03*
X100076000Y-100711000D03*
X100076000Y-100076000D03*
X100076000Y-99441000D03*
X100076000Y-98171000D03*
X100076000Y-98806000D03*
X101473000Y-101854000D03*
X101473000Y-101346000D03*
%TO.N,GND*%
X102235000Y-120015000D03*
X101092000Y-112268000D03*
%TO.N,+1V8*%
X105029000Y-113919000D03*
X104140000Y-113919000D03*
X105029000Y-113157000D03*
X104140000Y-113157000D03*
X105029000Y-112395000D03*
X104140000Y-112395000D03*
X92202000Y-107602500D03*
%TO.N,GND*%
X97282000Y-117602000D03*
X97282000Y-118237000D03*
X96266000Y-115951000D03*
X96266000Y-115316000D03*
X96901000Y-115316000D03*
X96901000Y-115951000D03*
X97917000Y-120015000D03*
X98679000Y-120015000D03*
X98298000Y-119507000D03*
X99060000Y-119507000D03*
X98806000Y-122555000D03*
X98806000Y-123190000D03*
X98806000Y-123825000D03*
X100457000Y-125857000D03*
X99822000Y-125476000D03*
X99314000Y-124968000D03*
X98933000Y-124460000D03*
X100965000Y-124333000D03*
X100965000Y-123698000D03*
X100965000Y-123063000D03*
X100838000Y-122428000D03*
X100330000Y-122047000D03*
X96012000Y-125476000D03*
X96647000Y-125095000D03*
X96774000Y-124460000D03*
X96774000Y-123825000D03*
X96774000Y-123190000D03*
X96774000Y-122555000D03*
X91821000Y-98425000D03*
X91821000Y-97409000D03*
X91821000Y-96393000D03*
X91821000Y-95377000D03*
X92932250Y-98425000D03*
X94043500Y-98425000D03*
X95154750Y-98425000D03*
X96266000Y-98425000D03*
X92964000Y-100965000D03*
X94075250Y-100965000D03*
X95186500Y-100965000D03*
X96297750Y-100965000D03*
X97409000Y-100965000D03*
X98806000Y-103124000D03*
%TO.N,/AUX_BUZZER_DRAIN*%
X95758000Y-101854000D03*
%TO.N,VAUX*%
X99187000Y-101092000D03*
%TO.N,/BATT_BUZZER_DRAIN*%
X92964000Y-100203000D03*
%TO.N,VAUX*%
X93599000Y-96520000D03*
X99060000Y-96520000D03*
X99060000Y-95377000D03*
X97790000Y-95377000D03*
X96520000Y-95377000D03*
X95123000Y-95377000D03*
X93599000Y-95377000D03*
%TO.N,GND*%
X105283000Y-95377000D03*
X104013000Y-95377000D03*
X105424350Y-97548248D03*
X105426438Y-98792693D03*
X105410000Y-99949000D03*
X98298000Y-108204000D03*
%TO.N,/VFB_AUX*%
X104902000Y-96266000D03*
%TO.N,GND*%
X105410000Y-102362000D03*
%TO.N,/VEN_AUX*%
X105056349Y-101161894D03*
X101600000Y-102489000D03*
%TO.N,/VFB_1V8*%
X103378000Y-103632000D03*
X102481738Y-108135975D03*
%TO.N,/VEN_1V8*%
X98817510Y-103874490D03*
X100965000Y-107865500D03*
%TO.N,GND*%
X102235000Y-112268000D03*
X91104500Y-110109000D03*
%TO.N,/SCK*%
X97802477Y-112255523D03*
%TO.N,/NRST*%
X99822000Y-109220000D03*
%TO.N,/VAUX_BUZZER_LSD*%
X95758000Y-102870000D03*
%TO.N,/VBATT_BUZZER_LSD*%
X98298000Y-97663000D03*
%TO.N,GND*%
X94361000Y-102997000D03*
X93853000Y-102997000D03*
%TO.N,/BATT_LVL*%
X91693098Y-123825902D03*
%TO.N,/ADC_IN_1*%
X92329000Y-123119006D03*
%TO.N,/ADC_IN_0*%
X92329000Y-122519503D03*
%TO.N,/ADC_IN_2*%
X92329000Y-121920000D03*
%TO.N,+1V8*%
X91873754Y-110109000D03*
%TO.N,/NRST*%
X91910506Y-110744000D03*
%TO.N,/VAUX_BUZZER_LSD*%
X92385006Y-111633000D03*
%TO.N,/VBATT_BUZZER_LSD*%
X92997500Y-111633000D03*
%TO.N,/DIO_1*%
X92928502Y-123118890D03*
%TO.N,/DIO_0*%
X92936798Y-122519445D03*
%TO.N,/ADC_IN_3*%
X92928503Y-121920000D03*
%TO.N,+1V8*%
X95608204Y-121951500D03*
X98697023Y-112794023D03*
%TO.N,/CS*%
X97363523Y-112730523D03*
%TO.N,/SCK*%
X95377000Y-108331000D03*
%TO.N,/CS*%
X94996000Y-107823000D03*
%TO.N,+1V8*%
X94107000Y-112776000D03*
%TO.N,GND*%
X102489000Y-121539000D03*
%TD*%
D25*
%TO.N,/BATT_LVL*%
X91694902Y-123825902D02*
X92162890Y-124293890D01*
X95312000Y-121477000D02*
X96174948Y-121477000D01*
X95123000Y-122769922D02*
X95123000Y-121666000D01*
X92162890Y-124293890D02*
X93599033Y-124293890D01*
X96174948Y-121477000D02*
X97155000Y-120496948D01*
X91693098Y-123825902D02*
X91694902Y-123825902D01*
X93599033Y-124293890D02*
X95123000Y-122769922D01*
X97155000Y-120496948D02*
X97155000Y-119126000D01*
X95123000Y-121666000D02*
X95312000Y-121477000D01*
X97155000Y-119126000D02*
X97409000Y-118872000D01*
X97409000Y-118872000D02*
X98679000Y-118872000D01*
X98679000Y-118872000D02*
X99062000Y-118489000D01*
X99062000Y-118489000D02*
X99062000Y-117983000D01*
%TO.N,/VBATT_BUZZER_LSD*%
X92997500Y-111633000D02*
X92964000Y-111599500D01*
X92964000Y-108444974D02*
X94601974Y-106807000D01*
X98298000Y-106807000D02*
X98806000Y-106299000D01*
X92964000Y-111599500D02*
X92964000Y-108444974D01*
X98806000Y-104534026D02*
X98298000Y-104026026D01*
X94601974Y-106807000D02*
X98298000Y-106807000D01*
X98806000Y-106299000D02*
X98806000Y-104534026D01*
X98298000Y-104026026D02*
X98298000Y-97663000D01*
D26*
%TO.N,/AUX_BUZZER_DRAIN*%
X96139000Y-105119500D02*
X95123000Y-104103500D01*
X95123000Y-102489000D02*
X95758000Y-101854000D01*
X95123000Y-104103500D02*
X95123000Y-102489000D01*
D25*
%TO.N,VAUX*%
X103914000Y-97028000D02*
X103914000Y-96167000D01*
X103914000Y-96167000D02*
X103886000Y-96139000D01*
%TO.N,/VEN_1V8*%
X98817510Y-103874490D02*
X99187000Y-104243980D01*
X99187000Y-104243980D02*
X99187000Y-106426000D01*
X99187000Y-106426000D02*
X100626500Y-107865500D01*
X100626500Y-107865500D02*
X100965000Y-107865500D01*
%TO.N,/VAUX_BUZZER_LSD*%
X95758000Y-103759000D02*
X96012000Y-104013000D01*
X96012000Y-104013000D02*
X97790000Y-104013000D01*
X98456000Y-104679000D02*
X98456000Y-106154026D01*
X95758000Y-102870000D02*
X95758000Y-103759000D01*
X97790000Y-104013000D02*
X98456000Y-104679000D01*
X98456000Y-106154026D02*
X98177513Y-106432513D01*
X98177513Y-106432513D02*
X94481487Y-106432513D01*
X94481487Y-106432513D02*
X92385006Y-108528994D01*
X92385006Y-108528994D02*
X92385006Y-111633000D01*
%TO.N,+1V8*%
X104140000Y-110843000D02*
X104140000Y-112395000D01*
X101882000Y-108585000D02*
X104140000Y-110843000D01*
X92256751Y-112776000D02*
X94107000Y-112776000D01*
X91435506Y-110547248D02*
X91435506Y-111954755D01*
X91873754Y-110109000D02*
X91908006Y-110109000D01*
X91908006Y-110109000D02*
X92035006Y-109982000D01*
X92035006Y-109982000D02*
X92035006Y-107769494D01*
X91873754Y-110109000D02*
X91435506Y-110547248D01*
X92035006Y-107769494D02*
X92202000Y-107602500D01*
X91435506Y-111954755D02*
X92256751Y-112776000D01*
D26*
%TO.N,/BATT_BUZZER_DRAIN*%
X92964000Y-100203000D02*
X92355500Y-100203000D01*
X92355500Y-100203000D02*
X91789000Y-100769500D01*
%TO.N,VAUX*%
X99187000Y-101092000D02*
X99060000Y-100965000D01*
X99060000Y-100965000D02*
X99060000Y-96520000D01*
D25*
%TO.N,GND*%
X98679000Y-108585000D02*
X98298000Y-108204000D01*
X98862000Y-108585000D02*
X98679000Y-108585000D01*
%TO.N,/VFB_AUX*%
X104874000Y-96294000D02*
X104874000Y-97028000D01*
X104902000Y-96266000D02*
X104874000Y-96294000D01*
%TO.N,VAUX*%
X103914000Y-97028000D02*
X103914000Y-98113000D01*
X103914000Y-98113000D02*
X103856000Y-98171000D01*
%TO.N,/VFB_AUX*%
X104876000Y-98171000D02*
X104876000Y-100427000D01*
X104876000Y-100427000D02*
X104846000Y-100457000D01*
X104874000Y-97028000D02*
X104874000Y-98169000D01*
X104874000Y-98169000D02*
X104876000Y-98171000D01*
%TO.N,/VEN_AUX*%
X101600000Y-102489000D02*
X103729243Y-102489000D01*
X103729243Y-102489000D02*
X105056349Y-101161894D01*
%TO.N,/VFB_1V8*%
X102481738Y-104528262D02*
X103378000Y-103632000D01*
X102481738Y-108135975D02*
X102481738Y-104528262D01*
%TO.N,GND*%
X91059000Y-115226500D02*
X91059000Y-110109000D01*
X91315500Y-115483000D02*
X91059000Y-115226500D01*
X92215500Y-115483000D02*
X91315500Y-115483000D01*
X91059000Y-110109000D02*
X91104500Y-110109000D01*
%TO.N,/NRST*%
X91910506Y-110744000D02*
X91910506Y-111830252D01*
X93194252Y-112108000D02*
X93472000Y-111830252D01*
X92188254Y-112108000D02*
X93194252Y-112108000D01*
X91910506Y-111830252D02*
X92188254Y-112108000D01*
X93472000Y-111830252D02*
X93472000Y-108458000D01*
X93472000Y-108458000D02*
X94773000Y-107157000D01*
X94773000Y-107157000D02*
X98394000Y-107157000D01*
X98394000Y-107157000D02*
X99822000Y-108585000D01*
%TO.N,/SCK*%
X97802477Y-112255523D02*
X95745523Y-112255523D01*
X95092000Y-111602000D02*
X95092000Y-108616000D01*
X95745523Y-112255523D02*
X95092000Y-111602000D01*
X95092000Y-108616000D02*
X95377000Y-108331000D01*
%TO.N,/CS*%
X97363523Y-112730523D02*
X95725549Y-112730523D01*
X95725549Y-112730523D02*
X94742000Y-111746974D01*
X94742000Y-111746974D02*
X94742000Y-108077000D01*
X94742000Y-108077000D02*
X94996000Y-107823000D01*
%TO.N,/NRST*%
X99822000Y-108585000D02*
X99822000Y-109220000D01*
X100862000Y-108585000D02*
X99822000Y-108585000D01*
%TO.N,+1V8*%
X94107000Y-112776000D02*
X93990500Y-112892500D01*
X93990500Y-112892500D02*
X93990500Y-114691500D01*
X93990500Y-114691500D02*
X94282000Y-114983000D01*
X94282000Y-114983000D02*
X95015500Y-114983000D01*
%TO.N,/D_GATE*%
X99815000Y-115443000D02*
X98821000Y-115443000D01*
X98821000Y-115443000D02*
X98690500Y-115312500D01*
%TO.N,/C_GATE*%
X99815000Y-115943000D02*
X98710000Y-115943000D01*
X98710000Y-115943000D02*
X98690500Y-115962500D01*
%TO.N,/V_SENSE-*%
X98554000Y-116840000D02*
X98572000Y-116858000D01*
X98572000Y-116858000D02*
X100550000Y-116858000D01*
X100550000Y-116858000D02*
X100965000Y-116443000D01*
%TO.N,/BATT_LVL*%
X99062000Y-117983000D02*
X99314000Y-117983000D01*
X99314000Y-117983000D02*
X99695000Y-117602000D01*
X99695000Y-117602000D02*
X100074000Y-117602000D01*
%TO.N,/ADC_IN_0*%
X96029974Y-121127000D02*
X96743000Y-120413974D01*
X95027000Y-121127000D02*
X96029974Y-121127000D01*
X92110497Y-122519503D02*
X91854000Y-122776000D01*
X92482132Y-123943890D02*
X93454058Y-123943890D01*
X92329000Y-122519503D02*
X92110497Y-122519503D01*
X91854000Y-122776000D02*
X91854000Y-123315758D01*
X91854000Y-123315758D02*
X92482132Y-123943890D01*
X94745000Y-122652948D02*
X94745000Y-121409000D01*
X94745000Y-121409000D02*
X95027000Y-121127000D01*
X93454058Y-123943890D02*
X94745000Y-122652948D01*
X96743000Y-120413974D02*
X96743000Y-117190000D01*
X96743000Y-117190000D02*
X95536000Y-115983000D01*
X95536000Y-115983000D02*
X95015500Y-115983000D01*
%TO.N,/ADC_IN_1*%
X94395000Y-122507974D02*
X94395000Y-121264026D01*
X92329000Y-123191140D02*
X92731750Y-123593890D01*
X92329000Y-123119006D02*
X92329000Y-123191140D01*
X96393000Y-117602000D02*
X95774000Y-116983000D01*
X95774000Y-116983000D02*
X95015500Y-116983000D01*
X92731750Y-123593890D02*
X93309084Y-123593890D01*
X93309084Y-123593890D02*
X94395000Y-122507974D01*
X94395000Y-121264026D02*
X94882026Y-120777000D01*
X94882026Y-120777000D02*
X95885000Y-120777000D01*
X95885000Y-120777000D02*
X96393000Y-120269000D01*
X96393000Y-120269000D02*
X96393000Y-117602000D01*
%TO.N,/DIO_1*%
X94045000Y-122363000D02*
X94045000Y-121119052D01*
X94045000Y-121119052D02*
X94768052Y-120396000D01*
X93289110Y-123118890D02*
X94045000Y-122363000D01*
X92928502Y-123118890D02*
X93289110Y-123118890D01*
X94768052Y-120396000D02*
X95758000Y-120396000D01*
X96040500Y-118558000D02*
X95465500Y-117983000D01*
X95758000Y-120396000D02*
X96040500Y-120113500D01*
X96040500Y-120113500D02*
X96040500Y-118558000D01*
X95465500Y-117983000D02*
X95015500Y-117983000D01*
%TO.N,/DIO_0*%
X92936798Y-122519445D02*
X93380555Y-122519445D01*
X93380555Y-122519445D02*
X93695000Y-122205000D01*
X93695000Y-122205000D02*
X93695000Y-118206000D01*
X93695000Y-118206000D02*
X92972000Y-117483000D01*
X92972000Y-117483000D02*
X92215500Y-117483000D01*
%TO.N,/ADC_IN_3*%
X92928503Y-121920000D02*
X93345000Y-121503503D01*
X93345000Y-121503503D02*
X93345000Y-118872000D01*
X93345000Y-118872000D02*
X92956000Y-118483000D01*
X92956000Y-118483000D02*
X92215500Y-118483000D01*
%TO.N,/ADC_IN_2*%
X92329000Y-121920000D02*
X91186000Y-120777000D01*
X91186000Y-120777000D02*
X91186000Y-117062500D01*
X91765500Y-116483000D02*
X92215500Y-116483000D01*
X91186000Y-117062500D02*
X91765500Y-116483000D01*
%TD*%
%TA.AperFunction,Conductor*%
%TO.N,VAUX*%
G36*
X101415121Y-94889002D02*
G01*
X101461614Y-94942658D01*
X101473000Y-94995000D01*
X101473000Y-98043670D01*
X101452998Y-98111791D01*
X101399342Y-98158284D01*
X101345677Y-98169663D01*
X100759401Y-98163508D01*
X100586310Y-98161691D01*
X100518403Y-98140975D01*
X100472476Y-98086834D01*
X100463328Y-98055892D01*
X100463197Y-98055489D01*
X100461646Y-98045696D01*
X100404050Y-97932658D01*
X100314342Y-97842950D01*
X100201304Y-97785354D01*
X100191515Y-97783804D01*
X100191513Y-97783803D01*
X100085793Y-97767059D01*
X100076000Y-97765508D01*
X100066207Y-97767059D01*
X99960487Y-97783803D01*
X99960485Y-97783804D01*
X99950696Y-97785354D01*
X99837658Y-97842950D01*
X99747950Y-97932658D01*
X99737131Y-97953892D01*
X99694855Y-98036861D01*
X99694854Y-98036865D01*
X99690354Y-98045696D01*
X99688803Y-98055487D01*
X99686066Y-98063912D01*
X99645992Y-98122517D01*
X99580595Y-98150154D01*
X99564917Y-98150968D01*
X98930677Y-98144309D01*
X98862770Y-98123593D01*
X98816843Y-98069452D01*
X98806000Y-98018316D01*
X98806000Y-97282000D01*
X98452540Y-97282000D01*
X98423348Y-97277377D01*
X98423304Y-97277354D01*
X98298000Y-97257508D01*
X98172696Y-97277354D01*
X98172652Y-97277377D01*
X98143460Y-97282000D01*
X92963000Y-97282000D01*
X92894879Y-97261998D01*
X92848386Y-97208342D01*
X92837000Y-97156000D01*
X92837000Y-94995000D01*
X92857002Y-94926879D01*
X92910658Y-94880386D01*
X92963000Y-94869000D01*
X101347000Y-94869000D01*
X101415121Y-94889002D01*
G37*
%TD.AperFunction*%
%TD*%
%TA.AperFunction,Conductor*%
%TO.N,/BATT_FILT*%
G36*
X101953710Y-115073805D02*
G01*
X101975513Y-115083972D01*
X102025099Y-115090500D01*
X102234923Y-115090500D01*
X102444900Y-115090499D01*
X102494487Y-115083972D01*
X102516290Y-115073805D01*
X102569540Y-115062000D01*
X102871000Y-115062000D01*
X102939121Y-115082002D01*
X102985614Y-115135658D01*
X102997000Y-115188000D01*
X102997000Y-116968000D01*
X102976998Y-117036121D01*
X102923342Y-117082614D01*
X102871000Y-117094000D01*
X101726000Y-117094000D01*
X101657879Y-117073998D01*
X101611386Y-117020342D01*
X101600000Y-116968000D01*
X101600000Y-116078000D01*
X100583000Y-116078000D01*
X100514879Y-116057998D01*
X100468386Y-116004342D01*
X100457000Y-115952000D01*
X100457000Y-115950000D01*
X100477002Y-115881879D01*
X100530658Y-115835386D01*
X100583000Y-115824000D01*
X101600000Y-115824000D01*
X101600000Y-115188000D01*
X101620002Y-115119879D01*
X101673658Y-115073386D01*
X101726000Y-115062000D01*
X101900460Y-115062000D01*
X101953710Y-115073805D01*
G37*
%TD.AperFunction*%
%TD*%
%TA.AperFunction,Conductor*%
%TO.N,/CELL-*%
G36*
X103678180Y-113050002D02*
G01*
X103724673Y-113103658D01*
X103735253Y-113152295D01*
X103734508Y-113157000D01*
X103754354Y-113282304D01*
X103754377Y-113282348D01*
X103759000Y-113311540D01*
X103759000Y-113764460D01*
X103754377Y-113793652D01*
X103754354Y-113793696D01*
X103734508Y-113919000D01*
X103754354Y-114044304D01*
X103754377Y-114044348D01*
X103759000Y-114073540D01*
X103759000Y-114300000D01*
X103985460Y-114300000D01*
X104014652Y-114304623D01*
X104014696Y-114304646D01*
X104140000Y-114324492D01*
X104265304Y-114304646D01*
X104265348Y-114304623D01*
X104294540Y-114300000D01*
X104874460Y-114300000D01*
X104903652Y-114304623D01*
X104903696Y-114304646D01*
X105029000Y-114324492D01*
X105154304Y-114304646D01*
X105154348Y-114304623D01*
X105183540Y-114300000D01*
X105538000Y-114300000D01*
X105606121Y-114320002D01*
X105652614Y-114373658D01*
X105664000Y-114426000D01*
X105664000Y-116333000D01*
X105643998Y-116401121D01*
X105590342Y-116447614D01*
X105538000Y-116459000D01*
X103377000Y-116459000D01*
X103308879Y-116438998D01*
X103262386Y-116385342D01*
X103251000Y-116333000D01*
X103251000Y-114935000D01*
X101473000Y-114935000D01*
X101473000Y-115444000D01*
X101452998Y-115512121D01*
X101399342Y-115558614D01*
X101347000Y-115570000D01*
X100516500Y-115570000D01*
X100448379Y-115549998D01*
X100401886Y-115496342D01*
X100390500Y-115444000D01*
X100390500Y-115283252D01*
X100378867Y-115224769D01*
X100334552Y-115158448D01*
X100268231Y-115114133D01*
X100256062Y-115111712D01*
X100256061Y-115111712D01*
X100215816Y-115103707D01*
X100209748Y-115102500D01*
X99420252Y-115102500D01*
X99414184Y-115103707D01*
X99373939Y-115111712D01*
X99373938Y-115111712D01*
X99361769Y-115114133D01*
X99351453Y-115121026D01*
X99313681Y-115146265D01*
X99243678Y-115167500D01*
X99104042Y-115167500D01*
X99035921Y-115147498D01*
X99002300Y-115110332D01*
X99000215Y-115111847D01*
X98994382Y-115103819D01*
X98989882Y-115094987D01*
X98908013Y-115013118D01*
X98804854Y-114960556D01*
X98795064Y-114959005D01*
X98795063Y-114959005D01*
X98700293Y-114943995D01*
X98690500Y-114942444D01*
X98680707Y-114943995D01*
X98585937Y-114959005D01*
X98585936Y-114959005D01*
X98576146Y-114960556D01*
X98472987Y-115013118D01*
X98391118Y-115094987D01*
X98338556Y-115198146D01*
X98337005Y-115207936D01*
X98337005Y-115207937D01*
X98321995Y-115302707D01*
X98320444Y-115312500D01*
X98321995Y-115322292D01*
X98338150Y-115424289D01*
X98329051Y-115494700D01*
X98283329Y-115549014D01*
X98213701Y-115570000D01*
X97662000Y-115570000D01*
X97593879Y-115549998D01*
X97547386Y-115496342D01*
X97536000Y-115444000D01*
X97536000Y-114426000D01*
X97556002Y-114357879D01*
X97609658Y-114311386D01*
X97662000Y-114300000D01*
X101727000Y-114300000D01*
X101727000Y-113156000D01*
X101747002Y-113087879D01*
X101800658Y-113041386D01*
X101853000Y-113030000D01*
X103610059Y-113030000D01*
X103678180Y-113050002D01*
G37*
%TD.AperFunction*%
%TD*%
%TA.AperFunction,Conductor*%
%TO.N,+BATT*%
G36*
X105606121Y-116606002D02*
G01*
X105652614Y-116659658D01*
X105664000Y-116712000D01*
X105664000Y-121159000D01*
X105643998Y-121227121D01*
X105590342Y-121273614D01*
X105538000Y-121285000D01*
X102853582Y-121285000D01*
X102785461Y-121264998D01*
X102764487Y-121248095D01*
X102727342Y-121210950D01*
X102614304Y-121153354D01*
X102604515Y-121151804D01*
X102604513Y-121151803D01*
X102498793Y-121135059D01*
X102489000Y-121133508D01*
X102479207Y-121135059D01*
X102373487Y-121151803D01*
X102373485Y-121151804D01*
X102363696Y-121153354D01*
X102250658Y-121210950D01*
X102213513Y-121248095D01*
X102151201Y-121282121D01*
X102124418Y-121285000D01*
X100964000Y-121285000D01*
X100895879Y-121264998D01*
X100849386Y-121211342D01*
X100838000Y-121159000D01*
X100838000Y-120015000D01*
X101829508Y-120015000D01*
X101849354Y-120140304D01*
X101906950Y-120253342D01*
X101996658Y-120343050D01*
X102109696Y-120400646D01*
X102119485Y-120402196D01*
X102119487Y-120402197D01*
X102225207Y-120418941D01*
X102235000Y-120420492D01*
X102244793Y-120418941D01*
X102350513Y-120402197D01*
X102350515Y-120402196D01*
X102360304Y-120400646D01*
X102473342Y-120343050D01*
X102563050Y-120253342D01*
X102620646Y-120140304D01*
X102640492Y-120015000D01*
X102620646Y-119889696D01*
X102563050Y-119776658D01*
X102473342Y-119686950D01*
X102360304Y-119629354D01*
X102350515Y-119627804D01*
X102350513Y-119627803D01*
X102244793Y-119611059D01*
X102235000Y-119609508D01*
X102225207Y-119611059D01*
X102119487Y-119627803D01*
X102119485Y-119627804D01*
X102109696Y-119629354D01*
X101996658Y-119686950D01*
X101906950Y-119776658D01*
X101849354Y-119889696D01*
X101829508Y-120015000D01*
X100838000Y-120015000D01*
X100838000Y-117347000D01*
X100858002Y-117278879D01*
X100911658Y-117232386D01*
X100964000Y-117221000D01*
X103251000Y-117221000D01*
X103251000Y-116712000D01*
X103271002Y-116643879D01*
X103324658Y-116597386D01*
X103377000Y-116586000D01*
X105538000Y-116586000D01*
X105606121Y-116606002D01*
G37*
%TD.AperFunction*%
%TD*%
%TA.AperFunction,Conductor*%
%TO.N,GND*%
G36*
X100550532Y-118024103D02*
G01*
X100607368Y-118066650D01*
X100632179Y-118133170D01*
X100632500Y-118142159D01*
X100632500Y-121159000D01*
X100632860Y-121162346D01*
X100632860Y-121162351D01*
X100635866Y-121190306D01*
X100637196Y-121202681D01*
X100648582Y-121255023D01*
X100651070Y-121265203D01*
X100694079Y-121345916D01*
X100740572Y-121399572D01*
X100758165Y-121417527D01*
X100837983Y-121462174D01*
X100871209Y-121471930D01*
X100901781Y-121480907D01*
X100901785Y-121480908D01*
X100906104Y-121482176D01*
X100910552Y-121482816D01*
X100910559Y-121482817D01*
X100959552Y-121489861D01*
X100959559Y-121489862D01*
X100964000Y-121490500D01*
X102124418Y-121490500D01*
X102136342Y-121489861D01*
X102144688Y-121489414D01*
X102144698Y-121489413D01*
X102146381Y-121489323D01*
X102173164Y-121486444D01*
X102249689Y-121462483D01*
X102255121Y-121459517D01*
X102255123Y-121459516D01*
X102308050Y-121430615D01*
X102308055Y-121430612D01*
X102312001Y-121428457D01*
X102339191Y-121408102D01*
X102355218Y-121396104D01*
X102355220Y-121396102D01*
X102358823Y-121393405D01*
X102362011Y-121390217D01*
X102365400Y-121387280D01*
X102366114Y-121388103D01*
X102390731Y-121370217D01*
X102410210Y-121360292D01*
X102447702Y-121348110D01*
X102469293Y-121344691D01*
X102508707Y-121344691D01*
X102530298Y-121348110D01*
X102567790Y-121360292D01*
X102587269Y-121370217D01*
X102616440Y-121391412D01*
X102616772Y-121391062D01*
X102617963Y-121392191D01*
X102619177Y-121393405D01*
X102635537Y-121408102D01*
X102636837Y-121409150D01*
X102636855Y-121409165D01*
X102647232Y-121417527D01*
X102656511Y-121425005D01*
X102727565Y-121462174D01*
X102749541Y-121468627D01*
X102791363Y-121480907D01*
X102791367Y-121480908D01*
X102795686Y-121482176D01*
X102800134Y-121482816D01*
X102800141Y-121482817D01*
X102849134Y-121489861D01*
X102849141Y-121489862D01*
X102853582Y-121490500D01*
X105538000Y-121490500D01*
X105541346Y-121490140D01*
X105541351Y-121490140D01*
X105565032Y-121487594D01*
X105634901Y-121500200D01*
X105686862Y-121548579D01*
X105704500Y-121612872D01*
X105704500Y-124514220D01*
X105684498Y-124582341D01*
X105630842Y-124628834D01*
X105577791Y-124640218D01*
X100877230Y-124613720D01*
X100874292Y-124613183D01*
X100874278Y-124613657D01*
X100870729Y-124613555D01*
X100870654Y-124613500D01*
X100838616Y-124613500D01*
X100837906Y-124613498D01*
X100837969Y-124613498D01*
X100822650Y-124613412D01*
X100822374Y-124613500D01*
X100805346Y-124613500D01*
X100792040Y-124623167D01*
X100776371Y-124628161D01*
X100766285Y-124641880D01*
X100752510Y-124651888D01*
X100747428Y-124667529D01*
X100737686Y-124680780D01*
X100737590Y-124697806D01*
X100737500Y-124698083D01*
X100737500Y-124713433D01*
X100737498Y-124714143D01*
X100737318Y-124746087D01*
X100732496Y-124746060D01*
X100732495Y-124746340D01*
X100737500Y-124746340D01*
X100737500Y-129567500D01*
X100717498Y-129635621D01*
X100663842Y-129682114D01*
X100611500Y-129693500D01*
X95730500Y-129693500D01*
X95662379Y-129673498D01*
X95615886Y-129619842D01*
X95604500Y-129567500D01*
X95604500Y-124746323D01*
X95608226Y-124746323D01*
X95608185Y-124746035D01*
X95604692Y-124746056D01*
X95604502Y-124714158D01*
X95604500Y-124713407D01*
X95604500Y-124698083D01*
X95604405Y-124697789D01*
X95604303Y-124680748D01*
X95594568Y-124667515D01*
X95589490Y-124651888D01*
X95575701Y-124641869D01*
X95565601Y-124628141D01*
X95549946Y-124623157D01*
X95536654Y-124613500D01*
X95519609Y-124613500D01*
X95519317Y-124613407D01*
X95517596Y-124613417D01*
X95504046Y-124613498D01*
X95503295Y-124613500D01*
X95471346Y-124613500D01*
X95471346Y-124608745D01*
X95471049Y-124608753D01*
X95471078Y-124613694D01*
X93964807Y-124622670D01*
X93896569Y-124603074D01*
X93849757Y-124549696D01*
X93839235Y-124479484D01*
X93868343Y-124414728D01*
X93874962Y-124407577D01*
X95289844Y-122992694D01*
X95308936Y-122977024D01*
X95311311Y-122975437D01*
X95321624Y-122968546D01*
X95338515Y-122943268D01*
X95382516Y-122877416D01*
X95403897Y-122769922D01*
X95400921Y-122754960D01*
X95398500Y-122730380D01*
X95398500Y-122471306D01*
X95418502Y-122403185D01*
X95472158Y-122356692D01*
X95544210Y-122346857D01*
X95598410Y-122355441D01*
X95598411Y-122355441D01*
X95608204Y-122356992D01*
X95617997Y-122355441D01*
X95723717Y-122338697D01*
X95723719Y-122338696D01*
X95733508Y-122337146D01*
X95846546Y-122279550D01*
X95936254Y-122189842D01*
X95944326Y-122174000D01*
X99289508Y-122174000D01*
X99291059Y-122183793D01*
X99297407Y-122223870D01*
X99309354Y-122299304D01*
X99366950Y-122412342D01*
X99456658Y-122502050D01*
X99569696Y-122559646D01*
X99579485Y-122561196D01*
X99579487Y-122561197D01*
X99685207Y-122577941D01*
X99695000Y-122579492D01*
X99704793Y-122577941D01*
X99810513Y-122561197D01*
X99810515Y-122561196D01*
X99820304Y-122559646D01*
X99933342Y-122502050D01*
X100023050Y-122412342D01*
X100080646Y-122299304D01*
X100092594Y-122223870D01*
X100098941Y-122183793D01*
X100100492Y-122174000D01*
X100098012Y-122158342D01*
X100082197Y-122058487D01*
X100082196Y-122058485D01*
X100080646Y-122048696D01*
X100023050Y-121935658D01*
X99933342Y-121845950D01*
X99820304Y-121788354D01*
X99810515Y-121786804D01*
X99810513Y-121786803D01*
X99704793Y-121770059D01*
X99695000Y-121768508D01*
X99685207Y-121770059D01*
X99579487Y-121786803D01*
X99579485Y-121786804D01*
X99569696Y-121788354D01*
X99456658Y-121845950D01*
X99366950Y-121935658D01*
X99309354Y-122048696D01*
X99307804Y-122058485D01*
X99307803Y-122058487D01*
X99291988Y-122158342D01*
X99289508Y-122174000D01*
X95944326Y-122174000D01*
X95993850Y-122076804D01*
X96013696Y-121951500D01*
X96011187Y-121935658D01*
X96005256Y-121898210D01*
X96014356Y-121827799D01*
X96060078Y-121773485D01*
X96129705Y-121752500D01*
X96135405Y-121752500D01*
X96159987Y-121754921D01*
X96174948Y-121757897D01*
X96202080Y-121752500D01*
X96202081Y-121752500D01*
X96282443Y-121736515D01*
X96292760Y-121729621D01*
X96292763Y-121729620D01*
X96333907Y-121702128D01*
X96350569Y-121690995D01*
X96350571Y-121690993D01*
X96363259Y-121682515D01*
X96373572Y-121675624D01*
X96382052Y-121662934D01*
X96397719Y-121643845D01*
X97321844Y-120719720D01*
X97340936Y-120704050D01*
X97343307Y-120702466D01*
X97343308Y-120702465D01*
X97353624Y-120695572D01*
X97380390Y-120655515D01*
X97386471Y-120646413D01*
X97414515Y-120604443D01*
X97417619Y-120588841D01*
X97430500Y-120524081D01*
X97433476Y-120509120D01*
X97433476Y-120509119D01*
X97435897Y-120496948D01*
X97432921Y-120481987D01*
X97430500Y-120457405D01*
X97430500Y-119292306D01*
X97450502Y-119224185D01*
X97467405Y-119203211D01*
X97486211Y-119184405D01*
X97548523Y-119150379D01*
X97575306Y-119147500D01*
X98639457Y-119147500D01*
X98664039Y-119149921D01*
X98679000Y-119152897D01*
X98706132Y-119147500D01*
X98706133Y-119147500D01*
X98786495Y-119131515D01*
X98835356Y-119098867D01*
X98854622Y-119085994D01*
X98854623Y-119085993D01*
X98877624Y-119070624D01*
X98886104Y-119057934D01*
X98901771Y-119038845D01*
X99228844Y-118711772D01*
X99247936Y-118696102D01*
X99250311Y-118694515D01*
X99260624Y-118687624D01*
X99280415Y-118658006D01*
X99293471Y-118638465D01*
X99321515Y-118596495D01*
X99335248Y-118527454D01*
X99368156Y-118464545D01*
X99384060Y-118450956D01*
X99392404Y-118447065D01*
X99476065Y-118363404D01*
X99526068Y-118256173D01*
X99532500Y-118207316D01*
X99532500Y-118203194D01*
X99532770Y-118199075D01*
X99534588Y-118199194D01*
X99552502Y-118138186D01*
X99569406Y-118117210D01*
X99597842Y-118088775D01*
X99660155Y-118054751D01*
X99730971Y-118059817D01*
X99743450Y-118066377D01*
X99743596Y-118066065D01*
X99803254Y-118093884D01*
X99850827Y-118116068D01*
X99899684Y-118122500D01*
X100248316Y-118122500D01*
X100297173Y-118116068D01*
X100344747Y-118093884D01*
X100394411Y-118070725D01*
X100394412Y-118070725D01*
X100404404Y-118066065D01*
X100417405Y-118053064D01*
X100479717Y-118019038D01*
X100550532Y-118024103D01*
G37*
%TD.AperFunction*%
%TA.AperFunction,Conductor*%
G36*
X98295815Y-107452502D02*
G01*
X98316789Y-107469405D01*
X99304595Y-108457211D01*
X99338621Y-108519523D01*
X99341500Y-108546305D01*
X99341501Y-108688697D01*
X99341501Y-108794900D01*
X99348028Y-108844487D01*
X99352101Y-108853221D01*
X99352101Y-108853222D01*
X99386092Y-108926115D01*
X99398776Y-108953316D01*
X99408443Y-108962983D01*
X99410427Y-108966616D01*
X99412893Y-108970138D01*
X99412500Y-108970413D01*
X99442469Y-109025295D01*
X99439285Y-109088944D01*
X99436354Y-109094696D01*
X99434804Y-109104485D01*
X99434803Y-109104487D01*
X99426676Y-109155798D01*
X99416508Y-109220000D01*
X99418059Y-109229793D01*
X99432492Y-109320918D01*
X99436354Y-109345304D01*
X99493950Y-109458342D01*
X99583658Y-109548050D01*
X99696696Y-109605646D01*
X99706485Y-109607196D01*
X99706487Y-109607197D01*
X99812207Y-109623941D01*
X99822000Y-109625492D01*
X99831793Y-109623941D01*
X99937513Y-109607197D01*
X99937515Y-109607196D01*
X99947304Y-109605646D01*
X100060342Y-109548050D01*
X100150050Y-109458342D01*
X100207646Y-109345304D01*
X100211509Y-109320918D01*
X100225941Y-109229793D01*
X100227492Y-109220000D01*
X100217324Y-109155798D01*
X100209197Y-109104487D01*
X100209196Y-109104485D01*
X100207646Y-109094696D01*
X100204762Y-109089037D01*
X100202791Y-109020047D01*
X100231350Y-108970311D01*
X100231106Y-108970140D01*
X100233003Y-108967430D01*
X100235557Y-108962983D01*
X100245224Y-108953316D01*
X100245497Y-108953589D01*
X100294592Y-108914346D01*
X100365211Y-108907038D01*
X100428571Y-108939069D01*
X100443908Y-108956768D01*
X100447935Y-108965404D01*
X100531596Y-109049065D01*
X100638827Y-109099068D01*
X100687684Y-109105500D01*
X101036316Y-109105500D01*
X101085173Y-109099068D01*
X101192404Y-109049065D01*
X101276065Y-108965404D01*
X101276753Y-108966092D01*
X101324247Y-108928131D01*
X101394867Y-108920823D01*
X101458226Y-108952856D01*
X101466579Y-108962496D01*
X101467935Y-108965404D01*
X101551596Y-109049065D01*
X101658827Y-109099068D01*
X101707684Y-109105500D01*
X101960694Y-109105500D01*
X102028815Y-109125502D01*
X102049789Y-109142405D01*
X103827595Y-110920211D01*
X103861621Y-110982523D01*
X103864500Y-111009306D01*
X103864500Y-112051918D01*
X103844498Y-112120039D01*
X103827595Y-112141013D01*
X103811950Y-112156658D01*
X103754354Y-112269696D01*
X103734508Y-112395000D01*
X103736059Y-112404793D01*
X103752092Y-112506020D01*
X103754354Y-112520304D01*
X103776880Y-112564514D01*
X103803803Y-112617352D01*
X103811950Y-112633342D01*
X103818961Y-112640353D01*
X103820345Y-112642258D01*
X103844204Y-112709126D01*
X103828125Y-112778277D01*
X103777211Y-112827758D01*
X103707629Y-112841858D01*
X103682918Y-112837217D01*
X103667955Y-112832824D01*
X103663507Y-112832184D01*
X103663500Y-112832183D01*
X103614507Y-112825139D01*
X103614500Y-112825138D01*
X103610059Y-112824500D01*
X101853000Y-112824500D01*
X101849654Y-112824860D01*
X101849649Y-112824860D01*
X101812683Y-112828834D01*
X101812677Y-112828835D01*
X101809319Y-112829196D01*
X101756977Y-112840582D01*
X101756283Y-112840752D01*
X101756264Y-112840756D01*
X101755130Y-112841033D01*
X101746797Y-112843070D01*
X101666084Y-112886079D01*
X101660738Y-112890711D01*
X101660737Y-112890712D01*
X101627714Y-112919327D01*
X101612428Y-112932572D01*
X101594473Y-112950165D01*
X101549826Y-113029983D01*
X101529824Y-113098104D01*
X101529184Y-113102552D01*
X101529183Y-113102559D01*
X101522139Y-113151552D01*
X101522138Y-113151559D01*
X101521500Y-113156000D01*
X101521500Y-113968500D01*
X101501498Y-114036621D01*
X101447842Y-114083114D01*
X101395500Y-114094500D01*
X97662000Y-114094500D01*
X97658654Y-114094860D01*
X97658649Y-114094860D01*
X97621683Y-114098834D01*
X97621677Y-114098835D01*
X97618319Y-114099196D01*
X97565977Y-114110582D01*
X97565283Y-114110752D01*
X97565264Y-114110756D01*
X97564130Y-114111033D01*
X97555797Y-114113070D01*
X97475084Y-114156079D01*
X97421428Y-114202572D01*
X97403473Y-114220165D01*
X97358826Y-114299983D01*
X97338824Y-114368104D01*
X97338184Y-114372552D01*
X97338183Y-114372559D01*
X97331139Y-114421552D01*
X97331138Y-114421559D01*
X97330500Y-114426000D01*
X97330500Y-115444000D01*
X97330860Y-115447346D01*
X97330860Y-115447351D01*
X97334693Y-115483000D01*
X97335196Y-115487681D01*
X97335914Y-115490981D01*
X97335914Y-115490982D01*
X97338756Y-115504047D01*
X97346582Y-115540023D01*
X97349070Y-115550203D01*
X97392079Y-115630916D01*
X97438572Y-115684572D01*
X97456165Y-115702527D01*
X97535983Y-115747174D01*
X97569448Y-115757000D01*
X97599781Y-115765907D01*
X97599785Y-115765908D01*
X97604104Y-115767176D01*
X97608552Y-115767816D01*
X97608559Y-115767817D01*
X97657552Y-115774861D01*
X97657559Y-115774862D01*
X97662000Y-115775500D01*
X98202535Y-115775500D01*
X98270656Y-115795502D01*
X98317149Y-115849158D01*
X98326984Y-115921210D01*
X98320444Y-115962500D01*
X98321995Y-115972293D01*
X98331382Y-116031557D01*
X98338556Y-116076854D01*
X98380384Y-116158947D01*
X98393488Y-116228721D01*
X98366788Y-116294506D01*
X98321368Y-116330342D01*
X98233591Y-116371273D01*
X98233586Y-116371277D01*
X98223596Y-116375935D01*
X98139935Y-116459596D01*
X98089932Y-116566827D01*
X98083500Y-116615684D01*
X98083500Y-117064316D01*
X98089932Y-117113173D01*
X98139935Y-117220404D01*
X98223596Y-117304065D01*
X98233588Y-117308725D01*
X98233589Y-117308725D01*
X98320090Y-117349061D01*
X98330827Y-117354068D01*
X98379684Y-117360500D01*
X98585841Y-117360500D01*
X98653962Y-117380502D01*
X98700455Y-117434158D01*
X98710559Y-117504432D01*
X98681065Y-117569012D01*
X98674936Y-117575595D01*
X98647935Y-117602596D01*
X98597932Y-117709827D01*
X98591500Y-117758684D01*
X98591500Y-118207316D01*
X98597932Y-118256173D01*
X98647935Y-118363404D01*
X98651608Y-118367077D01*
X98673149Y-118430947D01*
X98655865Y-118499808D01*
X98636343Y-118525040D01*
X98601788Y-118559595D01*
X98539476Y-118593621D01*
X98512693Y-118596500D01*
X97448543Y-118596500D01*
X97423961Y-118594079D01*
X97421171Y-118593524D01*
X97409000Y-118591103D01*
X97301505Y-118612485D01*
X97291186Y-118619380D01*
X97233378Y-118658006D01*
X97233375Y-118658008D01*
X97214501Y-118670619D01*
X97146748Y-118691833D01*
X97078281Y-118673049D01*
X97030838Y-118620232D01*
X97018500Y-118565853D01*
X97018500Y-117229543D01*
X97020921Y-117204963D01*
X97021476Y-117202173D01*
X97021476Y-117202171D01*
X97023897Y-117190000D01*
X97018500Y-117162867D01*
X97002515Y-117082505D01*
X96971018Y-117035367D01*
X96956995Y-117014380D01*
X96960836Y-117011813D01*
X96960834Y-117011810D01*
X96956993Y-117014377D01*
X96948515Y-117001689D01*
X96941624Y-116991376D01*
X96928936Y-116982898D01*
X96909844Y-116967228D01*
X96002905Y-116060289D01*
X95968879Y-115997977D01*
X95966000Y-115971194D01*
X95966000Y-115663252D01*
X95954367Y-115604769D01*
X95947473Y-115594452D01*
X95947472Y-115594449D01*
X95919778Y-115553003D01*
X95898562Y-115485251D01*
X95919778Y-115412997D01*
X95947472Y-115371551D01*
X95947473Y-115371548D01*
X95954367Y-115361231D01*
X95966000Y-115302748D01*
X95966000Y-114663252D01*
X95954367Y-114604769D01*
X95947474Y-114594453D01*
X95942723Y-114582983D01*
X95946437Y-114581445D01*
X95931972Y-114535249D01*
X95946812Y-114484711D01*
X95942723Y-114483017D01*
X95947474Y-114471547D01*
X95954367Y-114461231D01*
X95966000Y-114402748D01*
X95966000Y-113563252D01*
X95954367Y-113504769D01*
X95910052Y-113438448D01*
X95843731Y-113394133D01*
X95831562Y-113391712D01*
X95831561Y-113391712D01*
X95791316Y-113383707D01*
X95785248Y-113382500D01*
X94392000Y-113382500D01*
X94323879Y-113362498D01*
X94277386Y-113308842D01*
X94266000Y-113256500D01*
X94266000Y-113221690D01*
X94286002Y-113153569D01*
X94328812Y-113114838D01*
X94328482Y-113114383D01*
X94332711Y-113111311D01*
X94334797Y-113109423D01*
X94334855Y-113109393D01*
X94345342Y-113104050D01*
X94435050Y-113014342D01*
X94492646Y-112901304D01*
X94495058Y-112886079D01*
X94510941Y-112785793D01*
X94512492Y-112776000D01*
X94495501Y-112668719D01*
X94494197Y-112660487D01*
X94494196Y-112660485D01*
X94492646Y-112650696D01*
X94435050Y-112537658D01*
X94345342Y-112447950D01*
X94232304Y-112390354D01*
X94222515Y-112388804D01*
X94222513Y-112388803D01*
X94116793Y-112372059D01*
X94107000Y-112370508D01*
X94097207Y-112372059D01*
X93991487Y-112388803D01*
X93991485Y-112388804D01*
X93981696Y-112390354D01*
X93868658Y-112447950D01*
X93853013Y-112463595D01*
X93790701Y-112497621D01*
X93763918Y-112500500D01*
X93499062Y-112500500D01*
X93430941Y-112480498D01*
X93384448Y-112426842D01*
X93374344Y-112356568D01*
X93394299Y-112304496D01*
X93401356Y-112293935D01*
X93417024Y-112274844D01*
X93638844Y-112053024D01*
X93657936Y-112037354D01*
X93660311Y-112035767D01*
X93670624Y-112028876D01*
X93683124Y-112010170D01*
X93689581Y-112000506D01*
X93711667Y-111967451D01*
X93711669Y-111967448D01*
X93715450Y-111961789D01*
X93731515Y-111937747D01*
X93735998Y-111915212D01*
X93747500Y-111857385D01*
X93750476Y-111842424D01*
X93750476Y-111842423D01*
X93752897Y-111830252D01*
X93749921Y-111815291D01*
X93747500Y-111790709D01*
X93747500Y-108624306D01*
X93767502Y-108556185D01*
X93784405Y-108535211D01*
X94251405Y-108068211D01*
X94313717Y-108034185D01*
X94384532Y-108039250D01*
X94441368Y-108081797D01*
X94466179Y-108148317D01*
X94466500Y-108157306D01*
X94466500Y-111707431D01*
X94464079Y-111732013D01*
X94461103Y-111746974D01*
X94466500Y-111774106D01*
X94466500Y-111774107D01*
X94482485Y-111854469D01*
X94543376Y-111945598D01*
X94553692Y-111952491D01*
X94553693Y-111952492D01*
X94556064Y-111954076D01*
X94575156Y-111969746D01*
X95502777Y-112897367D01*
X95518447Y-112916459D01*
X95526925Y-112929147D01*
X95549926Y-112944516D01*
X95549927Y-112944517D01*
X95618054Y-112990038D01*
X95725549Y-113011420D01*
X95740510Y-113008444D01*
X95765092Y-113006023D01*
X97020441Y-113006023D01*
X97088562Y-113026025D01*
X97109536Y-113042928D01*
X97125181Y-113058573D01*
X97238219Y-113116169D01*
X97248008Y-113117719D01*
X97248010Y-113117720D01*
X97353730Y-113134464D01*
X97363523Y-113136015D01*
X97373316Y-113134464D01*
X97479036Y-113117720D01*
X97479038Y-113117719D01*
X97488827Y-113116169D01*
X97601865Y-113058573D01*
X97691573Y-112968865D01*
X97749169Y-112855827D01*
X97750720Y-112846035D01*
X97758958Y-112794023D01*
X98291531Y-112794023D01*
X98293082Y-112803816D01*
X98307916Y-112897473D01*
X98311377Y-112919327D01*
X98368973Y-113032365D01*
X98458681Y-113122073D01*
X98571719Y-113179669D01*
X98581508Y-113181219D01*
X98581510Y-113181220D01*
X98687230Y-113197964D01*
X98697023Y-113199515D01*
X98706816Y-113197964D01*
X98812536Y-113181220D01*
X98812538Y-113181219D01*
X98822327Y-113179669D01*
X98935365Y-113122073D01*
X99025073Y-113032365D01*
X99082669Y-112919327D01*
X99086131Y-112897473D01*
X99100964Y-112803816D01*
X99102515Y-112794023D01*
X99100021Y-112778277D01*
X99084220Y-112678510D01*
X99084219Y-112678508D01*
X99082669Y-112668719D01*
X99025073Y-112555681D01*
X98935365Y-112465973D01*
X98822327Y-112408377D01*
X98812538Y-112406827D01*
X98812536Y-112406826D01*
X98706816Y-112390082D01*
X98697023Y-112388531D01*
X98687230Y-112390082D01*
X98581510Y-112406826D01*
X98581508Y-112406827D01*
X98571719Y-112408377D01*
X98458681Y-112465973D01*
X98381128Y-112543526D01*
X98328064Y-112572502D01*
X98333146Y-112586126D01*
X98319733Y-112652319D01*
X98315878Y-112659884D01*
X98315877Y-112659888D01*
X98311377Y-112668719D01*
X98309827Y-112678508D01*
X98309826Y-112678510D01*
X98294025Y-112778277D01*
X98291531Y-112794023D01*
X97758958Y-112794023D01*
X97765126Y-112755080D01*
X97795539Y-112690927D01*
X97855807Y-112653400D01*
X97869865Y-112650342D01*
X97917989Y-112642720D01*
X97917990Y-112642720D01*
X97927781Y-112641169D01*
X98040819Y-112583573D01*
X98118372Y-112506020D01*
X98171436Y-112477044D01*
X98166354Y-112463420D01*
X98179767Y-112397227D01*
X98183622Y-112389662D01*
X98183623Y-112389658D01*
X98188123Y-112380827D01*
X98189758Y-112370508D01*
X98206418Y-112265316D01*
X98207969Y-112255523D01*
X98194843Y-112172648D01*
X98189674Y-112140010D01*
X98189673Y-112140008D01*
X98188123Y-112130219D01*
X98130527Y-112017181D01*
X98040819Y-111927473D01*
X97927781Y-111869877D01*
X97917992Y-111868327D01*
X97917990Y-111868326D01*
X97812270Y-111851582D01*
X97802477Y-111850031D01*
X97792684Y-111851582D01*
X97686964Y-111868326D01*
X97686962Y-111868327D01*
X97677173Y-111869877D01*
X97564135Y-111927473D01*
X97562484Y-111924233D01*
X97512840Y-111941968D01*
X97443682Y-111925914D01*
X97394182Y-111875019D01*
X97380056Y-111805442D01*
X97388690Y-111769181D01*
X97421593Y-111687330D01*
X97421594Y-111687325D01*
X97424426Y-111680281D01*
X97447223Y-111520102D01*
X97447371Y-111506000D01*
X97427934Y-111345378D01*
X97370744Y-111194030D01*
X97343053Y-111153739D01*
X97283405Y-111066951D01*
X97283404Y-111066949D01*
X97279103Y-111060692D01*
X97271903Y-111054277D01*
X97163974Y-110958115D01*
X97163971Y-110958113D01*
X97158302Y-110953062D01*
X97015315Y-110877354D01*
X97005390Y-110874861D01*
X96865767Y-110839790D01*
X96865763Y-110839790D01*
X96858396Y-110837939D01*
X96850797Y-110837899D01*
X96850795Y-110837899D01*
X96781844Y-110837538D01*
X96696605Y-110837092D01*
X96539282Y-110874861D01*
X96532536Y-110878343D01*
X96532533Y-110878344D01*
X96524398Y-110882543D01*
X96395509Y-110949068D01*
X96273588Y-111055427D01*
X96180556Y-111187798D01*
X96121784Y-111338539D01*
X96100666Y-111498949D01*
X96100814Y-111500289D01*
X96118420Y-111659765D01*
X96173663Y-111810723D01*
X96178290Y-111881567D01*
X96143880Y-111943668D01*
X96081358Y-111977307D01*
X96055337Y-111980023D01*
X95911829Y-111980023D01*
X95843708Y-111960021D01*
X95822734Y-111943118D01*
X95404405Y-111524789D01*
X95370379Y-111462477D01*
X95367500Y-111435694D01*
X95367500Y-110482949D01*
X101180666Y-110482949D01*
X101180814Y-110484289D01*
X101198420Y-110643765D01*
X101254022Y-110795704D01*
X101258258Y-110802007D01*
X101258258Y-110802008D01*
X101311277Y-110880908D01*
X101344261Y-110929994D01*
X101349880Y-110935107D01*
X101349881Y-110935108D01*
X101401990Y-110982523D01*
X101463929Y-111038883D01*
X101504096Y-111060692D01*
X101599439Y-111112460D01*
X101599441Y-111112461D01*
X101606116Y-111116085D01*
X101613465Y-111118013D01*
X101755263Y-111155213D01*
X101755265Y-111155213D01*
X101762613Y-111157141D01*
X101845069Y-111158436D01*
X101916787Y-111159563D01*
X101916790Y-111159563D01*
X101924386Y-111159682D01*
X101931791Y-111157986D01*
X101931792Y-111157986D01*
X101989806Y-111144699D01*
X102082096Y-111123562D01*
X102226638Y-111050865D01*
X102232410Y-111045936D01*
X102232412Y-111045934D01*
X102343890Y-110950723D01*
X102343894Y-110950719D01*
X102349666Y-110945789D01*
X102444080Y-110814399D01*
X102504426Y-110664281D01*
X102527223Y-110504102D01*
X102527371Y-110490000D01*
X102507934Y-110329378D01*
X102450744Y-110178030D01*
X102423053Y-110137739D01*
X102363405Y-110050951D01*
X102363404Y-110050949D01*
X102359103Y-110044692D01*
X102351903Y-110038277D01*
X102243974Y-109942115D01*
X102243971Y-109942113D01*
X102238302Y-109937062D01*
X102095315Y-109861354D01*
X102085390Y-109858861D01*
X101945767Y-109823790D01*
X101945763Y-109823790D01*
X101938396Y-109821939D01*
X101930797Y-109821899D01*
X101930795Y-109821899D01*
X101861844Y-109821538D01*
X101776605Y-109821092D01*
X101619282Y-109858861D01*
X101612536Y-109862343D01*
X101612533Y-109862344D01*
X101579312Y-109879491D01*
X101475509Y-109933068D01*
X101353588Y-110039427D01*
X101260556Y-110171798D01*
X101201784Y-110322539D01*
X101200792Y-110330072D01*
X101200792Y-110330073D01*
X101194173Y-110380352D01*
X101180666Y-110482949D01*
X95367500Y-110482949D01*
X95367500Y-109466949D01*
X96100666Y-109466949D01*
X96100814Y-109468289D01*
X96118420Y-109627765D01*
X96174022Y-109779704D01*
X96178258Y-109786007D01*
X96178258Y-109786008D01*
X96231277Y-109864908D01*
X96264261Y-109913994D01*
X96269880Y-109919107D01*
X96269881Y-109919108D01*
X96331155Y-109974863D01*
X96383929Y-110022883D01*
X96424096Y-110044692D01*
X96519439Y-110096460D01*
X96519441Y-110096461D01*
X96526116Y-110100085D01*
X96533465Y-110102013D01*
X96675263Y-110139213D01*
X96675265Y-110139213D01*
X96682613Y-110141141D01*
X96765069Y-110142436D01*
X96836787Y-110143563D01*
X96836790Y-110143563D01*
X96844386Y-110143682D01*
X96851791Y-110141986D01*
X96851792Y-110141986D01*
X96935977Y-110122705D01*
X97002096Y-110107562D01*
X97146638Y-110034865D01*
X97152410Y-110029936D01*
X97152412Y-110029934D01*
X97263890Y-109934723D01*
X97263894Y-109934719D01*
X97269666Y-109929789D01*
X97364080Y-109798399D01*
X97424426Y-109648281D01*
X97447223Y-109488102D01*
X97447371Y-109474000D01*
X97427934Y-109313378D01*
X97370744Y-109162030D01*
X97343053Y-109121739D01*
X97283405Y-109034951D01*
X97283404Y-109034949D01*
X97279103Y-109028692D01*
X97267591Y-109018435D01*
X97163974Y-108926115D01*
X97163971Y-108926113D01*
X97158302Y-108921062D01*
X97015315Y-108845354D01*
X97005390Y-108842861D01*
X96865767Y-108807790D01*
X96865763Y-108807790D01*
X96858396Y-108805939D01*
X96850797Y-108805899D01*
X96850795Y-108805899D01*
X96781844Y-108805538D01*
X96696605Y-108805092D01*
X96539282Y-108842861D01*
X96532536Y-108846343D01*
X96532533Y-108846344D01*
X96505107Y-108860500D01*
X96395509Y-108917068D01*
X96273588Y-109023427D01*
X96180556Y-109155798D01*
X96121784Y-109306539D01*
X96120792Y-109314072D01*
X96120792Y-109314073D01*
X96117731Y-109337328D01*
X96100666Y-109466949D01*
X95367500Y-109466949D01*
X95367500Y-108845611D01*
X95387502Y-108777490D01*
X95441158Y-108730997D01*
X95473791Y-108721162D01*
X95492511Y-108718197D01*
X95502304Y-108716646D01*
X95615342Y-108659050D01*
X95705050Y-108569342D01*
X95762646Y-108456304D01*
X95782492Y-108331000D01*
X95779087Y-108309500D01*
X95764197Y-108215487D01*
X95764196Y-108215485D01*
X95762646Y-108205696D01*
X95705050Y-108092658D01*
X95615342Y-108002950D01*
X95502304Y-107945354D01*
X95492513Y-107943803D01*
X95487006Y-107942014D01*
X95428400Y-107901941D01*
X95400762Y-107836545D01*
X95400387Y-107829979D01*
X95401492Y-107823000D01*
X95388377Y-107740196D01*
X95383197Y-107707487D01*
X95383196Y-107707485D01*
X95381646Y-107697696D01*
X95339868Y-107615702D01*
X95326764Y-107545927D01*
X95353464Y-107480142D01*
X95411491Y-107439235D01*
X95452135Y-107432500D01*
X98227694Y-107432500D01*
X98295815Y-107452502D01*
G37*
%TD.AperFunction*%
%TA.AperFunction,Conductor*%
G36*
X92576135Y-94862502D02*
G01*
X92622628Y-94916158D01*
X92632732Y-94986431D01*
X92632139Y-94990552D01*
X92632138Y-94990559D01*
X92631500Y-94995000D01*
X92631500Y-97156000D01*
X92636196Y-97199681D01*
X92647582Y-97252023D01*
X92650070Y-97262203D01*
X92693079Y-97342916D01*
X92739572Y-97396572D01*
X92757165Y-97414527D01*
X92836983Y-97459174D01*
X92870448Y-97469000D01*
X92900781Y-97477907D01*
X92900785Y-97477908D01*
X92905104Y-97479176D01*
X92909552Y-97479816D01*
X92909559Y-97479817D01*
X92958552Y-97486861D01*
X92958559Y-97486862D01*
X92963000Y-97487500D01*
X97772777Y-97487500D01*
X97840898Y-97507502D01*
X97887391Y-97561158D01*
X97897226Y-97633210D01*
X97892508Y-97663000D01*
X97894059Y-97672793D01*
X97900702Y-97714733D01*
X97912354Y-97788304D01*
X97969950Y-97901342D01*
X97985595Y-97916987D01*
X98019621Y-97979299D01*
X98022500Y-98006082D01*
X98022500Y-103624819D01*
X98002498Y-103692940D01*
X97948842Y-103739433D01*
X97871920Y-103748398D01*
X97817133Y-103737500D01*
X97817132Y-103737500D01*
X97790000Y-103732103D01*
X97777829Y-103734524D01*
X97775039Y-103735079D01*
X97750457Y-103737500D01*
X96178306Y-103737500D01*
X96110185Y-103717498D01*
X96089211Y-103700595D01*
X96070405Y-103681789D01*
X96036379Y-103619477D01*
X96033500Y-103592694D01*
X96033500Y-103213082D01*
X96053502Y-103144961D01*
X96070405Y-103123987D01*
X96086050Y-103108342D01*
X96143646Y-102995304D01*
X96163492Y-102870000D01*
X96149238Y-102780004D01*
X96145197Y-102754487D01*
X96145196Y-102754485D01*
X96143646Y-102744696D01*
X96086050Y-102631658D01*
X95996342Y-102541950D01*
X95912445Y-102499202D01*
X95860830Y-102450453D01*
X95843764Y-102381538D01*
X95866665Y-102314337D01*
X95880553Y-102297840D01*
X96063484Y-102114909D01*
X96063487Y-102114905D01*
X96086050Y-102092342D01*
X96090555Y-102083501D01*
X96096037Y-102072742D01*
X96106365Y-102055887D01*
X96113467Y-102046112D01*
X96119296Y-102038089D01*
X96126094Y-102017168D01*
X96133658Y-101998908D01*
X96139144Y-101988141D01*
X96139145Y-101988137D01*
X96143646Y-101979304D01*
X96147087Y-101957578D01*
X96151703Y-101938353D01*
X96155435Y-101926868D01*
X96155436Y-101926864D01*
X96158500Y-101917433D01*
X96158500Y-101895436D01*
X96160051Y-101875726D01*
X96161941Y-101863793D01*
X96163492Y-101854000D01*
X96160051Y-101832274D01*
X96158500Y-101812564D01*
X96158500Y-101790567D01*
X96151703Y-101769648D01*
X96147087Y-101750422D01*
X96145197Y-101738489D01*
X96143646Y-101728696D01*
X96139145Y-101719863D01*
X96139144Y-101719859D01*
X96133659Y-101709094D01*
X96126093Y-101690830D01*
X96122360Y-101679341D01*
X96119296Y-101669910D01*
X96113467Y-101661888D01*
X96113466Y-101661885D01*
X96106368Y-101652116D01*
X96096038Y-101635259D01*
X96090552Y-101624493D01*
X96090551Y-101624492D01*
X96086050Y-101615658D01*
X96070498Y-101600106D01*
X96057657Y-101585072D01*
X96050553Y-101575294D01*
X96044726Y-101567274D01*
X96026927Y-101554342D01*
X96011894Y-101541502D01*
X95996342Y-101525950D01*
X95987508Y-101521449D01*
X95987507Y-101521448D01*
X95976741Y-101515962D01*
X95959884Y-101505632D01*
X95950115Y-101498534D01*
X95950112Y-101498533D01*
X95942090Y-101492704D01*
X95921166Y-101485905D01*
X95902906Y-101478341D01*
X95892141Y-101472856D01*
X95892137Y-101472855D01*
X95883304Y-101468354D01*
X95861578Y-101464913D01*
X95842352Y-101460297D01*
X95830867Y-101456565D01*
X95830865Y-101456565D01*
X95821433Y-101453500D01*
X95799436Y-101453500D01*
X95779726Y-101451949D01*
X95767793Y-101450059D01*
X95758000Y-101448508D01*
X95748207Y-101450059D01*
X95736274Y-101451949D01*
X95716564Y-101453500D01*
X95694567Y-101453500D01*
X95685136Y-101456564D01*
X95685132Y-101456565D01*
X95673647Y-101460297D01*
X95654422Y-101464913D01*
X95642488Y-101466803D01*
X95642487Y-101466803D01*
X95632696Y-101468354D01*
X95623863Y-101472855D01*
X95623859Y-101472856D01*
X95613092Y-101478342D01*
X95594832Y-101485906D01*
X95573911Y-101492704D01*
X95565888Y-101498533D01*
X95556113Y-101505635D01*
X95539258Y-101515963D01*
X95528499Y-101521445D01*
X95528497Y-101521446D01*
X95519658Y-101525950D01*
X95497095Y-101548513D01*
X95497091Y-101548516D01*
X94817516Y-102228091D01*
X94817513Y-102228095D01*
X94794950Y-102250658D01*
X94790446Y-102259498D01*
X94784965Y-102270255D01*
X94774639Y-102287107D01*
X94761704Y-102304910D01*
X94754907Y-102325830D01*
X94747341Y-102344094D01*
X94741856Y-102354859D01*
X94741855Y-102354863D01*
X94737354Y-102363696D01*
X94735803Y-102373487D01*
X94735803Y-102373488D01*
X94733913Y-102385422D01*
X94729297Y-102404647D01*
X94725565Y-102416132D01*
X94725564Y-102416136D01*
X94722500Y-102425567D01*
X94722500Y-104143000D01*
X94702498Y-104211121D01*
X94648842Y-104257614D01*
X94596500Y-104269000D01*
X94419252Y-104269000D01*
X94413184Y-104270207D01*
X94372939Y-104278212D01*
X94372938Y-104278212D01*
X94360769Y-104280633D01*
X94294448Y-104324948D01*
X94250133Y-104391269D01*
X94238500Y-104449752D01*
X94238500Y-105789248D01*
X94250133Y-105847731D01*
X94294448Y-105914052D01*
X94304761Y-105920943D01*
X94350451Y-105951473D01*
X94350452Y-105951474D01*
X94354452Y-105954146D01*
X94360769Y-105958367D01*
X94360391Y-105958932D01*
X94407139Y-105996602D01*
X94429562Y-106063964D01*
X94412006Y-106132756D01*
X94373646Y-106173229D01*
X94346293Y-106191506D01*
X94305865Y-106218519D01*
X94305864Y-106218520D01*
X94282863Y-106233889D01*
X94275972Y-106244202D01*
X94274385Y-106246577D01*
X94258715Y-106265669D01*
X92821036Y-107703348D01*
X92758724Y-107737374D01*
X92687909Y-107732309D01*
X92631073Y-107689762D01*
X92606262Y-107623242D01*
X92605941Y-107614253D01*
X92605941Y-107612293D01*
X92607492Y-107602500D01*
X92597189Y-107537450D01*
X92589197Y-107486987D01*
X92589196Y-107486985D01*
X92587646Y-107477196D01*
X92530050Y-107364158D01*
X92440342Y-107274450D01*
X92327304Y-107216854D01*
X92317515Y-107215304D01*
X92317513Y-107215303D01*
X92211793Y-107198559D01*
X92202000Y-107197008D01*
X92192207Y-107198559D01*
X92086487Y-107215303D01*
X92086485Y-107215304D01*
X92076696Y-107216854D01*
X91963658Y-107274450D01*
X91873950Y-107364158D01*
X91816354Y-107477196D01*
X91814804Y-107486985D01*
X91814803Y-107486987D01*
X91806811Y-107537450D01*
X91796508Y-107602500D01*
X91794371Y-107602161D01*
X91783308Y-107638630D01*
X91787135Y-107640215D01*
X91782386Y-107651679D01*
X91775491Y-107661999D01*
X91766567Y-107706863D01*
X91754109Y-107769494D01*
X91756530Y-107781665D01*
X91757085Y-107784455D01*
X91759506Y-107809037D01*
X91759506Y-109640508D01*
X91739504Y-109708629D01*
X91690708Y-109752775D01*
X91644247Y-109776448D01*
X91644246Y-109776449D01*
X91635412Y-109780950D01*
X91545704Y-109870658D01*
X91488108Y-109983696D01*
X91486558Y-109993485D01*
X91486557Y-109993487D01*
X91471678Y-110087430D01*
X91436324Y-110156814D01*
X91268662Y-110324476D01*
X91249570Y-110340146D01*
X91236882Y-110348624D01*
X91175991Y-110439753D01*
X91163191Y-110504102D01*
X91160006Y-110520115D01*
X91155079Y-110544885D01*
X91154289Y-110546396D01*
X91155079Y-110549611D01*
X91157585Y-110562209D01*
X91160006Y-110586791D01*
X91160006Y-111915212D01*
X91157585Y-111939794D01*
X91155079Y-111952392D01*
X91154289Y-111953903D01*
X91155079Y-111957118D01*
X91160006Y-111981887D01*
X91160006Y-111981888D01*
X91175991Y-112062250D01*
X91197540Y-112094500D01*
X91221407Y-112130219D01*
X91236882Y-112153379D01*
X91247198Y-112160272D01*
X91247199Y-112160273D01*
X91249570Y-112161857D01*
X91268662Y-112177527D01*
X92033980Y-112942845D01*
X92049647Y-112961934D01*
X92058127Y-112974624D01*
X92068440Y-112981515D01*
X92081128Y-112989993D01*
X92079539Y-112992370D01*
X92079541Y-112992371D01*
X92081129Y-112989994D01*
X92107283Y-113007469D01*
X92107285Y-113007472D01*
X92107286Y-113007471D01*
X92131323Y-113023532D01*
X92149256Y-113035515D01*
X92161425Y-113037936D01*
X92161426Y-113037936D01*
X92229618Y-113051500D01*
X92244579Y-113054476D01*
X92244580Y-113054476D01*
X92256751Y-113056897D01*
X92268922Y-113054476D01*
X92268924Y-113054476D01*
X92271714Y-113053921D01*
X92296294Y-113051500D01*
X93589000Y-113051500D01*
X93657121Y-113071502D01*
X93703614Y-113125158D01*
X93715000Y-113177500D01*
X93715000Y-114651957D01*
X93712579Y-114676539D01*
X93709603Y-114691500D01*
X93715000Y-114718632D01*
X93715000Y-114718633D01*
X93730985Y-114798995D01*
X93758041Y-114839487D01*
X93772664Y-114861371D01*
X93791876Y-114890124D01*
X93804405Y-114898496D01*
X93804564Y-114898602D01*
X93823656Y-114914272D01*
X94028095Y-115118711D01*
X94062121Y-115181023D01*
X94065000Y-115207806D01*
X94065000Y-115302748D01*
X94076633Y-115361231D01*
X94083527Y-115371548D01*
X94083528Y-115371551D01*
X94111222Y-115412997D01*
X94132438Y-115480749D01*
X94111222Y-115553003D01*
X94083528Y-115594449D01*
X94083527Y-115594452D01*
X94076633Y-115604769D01*
X94065000Y-115663252D01*
X94065000Y-116302748D01*
X94066207Y-116308816D01*
X94069612Y-116325932D01*
X94076633Y-116361231D01*
X94083527Y-116371548D01*
X94083528Y-116371551D01*
X94111222Y-116412997D01*
X94132438Y-116480749D01*
X94111222Y-116553003D01*
X94083528Y-116594449D01*
X94083527Y-116594452D01*
X94076633Y-116604769D01*
X94065000Y-116663252D01*
X94065000Y-117302748D01*
X94076633Y-117361231D01*
X94083527Y-117371548D01*
X94083528Y-117371551D01*
X94111222Y-117412997D01*
X94132438Y-117480749D01*
X94111222Y-117553003D01*
X94083528Y-117594449D01*
X94083527Y-117594452D01*
X94076633Y-117604769D01*
X94065000Y-117663252D01*
X94065000Y-117882194D01*
X94044998Y-117950315D01*
X93991342Y-117996808D01*
X93921068Y-118006912D01*
X93856488Y-117977418D01*
X93849905Y-117971289D01*
X93202905Y-117324289D01*
X93168879Y-117261977D01*
X93166000Y-117235194D01*
X93166000Y-117163252D01*
X93161607Y-117141165D01*
X93156788Y-117116939D01*
X93156788Y-117116938D01*
X93154367Y-117104769D01*
X93147473Y-117094452D01*
X93147472Y-117094449D01*
X93119778Y-117053003D01*
X93098562Y-116985251D01*
X93119778Y-116912997D01*
X93147472Y-116871551D01*
X93147473Y-116871548D01*
X93154367Y-116861231D01*
X93166000Y-116802748D01*
X93166000Y-116163252D01*
X93154367Y-116104769D01*
X93135715Y-116076854D01*
X93116943Y-116048761D01*
X93110052Y-116038448D01*
X93043731Y-115994133D01*
X93031562Y-115991712D01*
X93031561Y-115991712D01*
X92991316Y-115983707D01*
X92985248Y-115982500D01*
X91445752Y-115982500D01*
X91439684Y-115983707D01*
X91399439Y-115991712D01*
X91399438Y-115991712D01*
X91387269Y-115994133D01*
X91320948Y-116038448D01*
X91314057Y-116048761D01*
X91295286Y-116076854D01*
X91276633Y-116104769D01*
X91265000Y-116163252D01*
X91265000Y-116541694D01*
X91244998Y-116609815D01*
X91228095Y-116630789D01*
X91120595Y-116738289D01*
X91058283Y-116772315D01*
X90987468Y-116767250D01*
X90930632Y-116724703D01*
X90905821Y-116658183D01*
X90905500Y-116649194D01*
X90905500Y-114402748D01*
X91265000Y-114402748D01*
X91276633Y-114461231D01*
X91320948Y-114527552D01*
X91387269Y-114571867D01*
X91399438Y-114574288D01*
X91399439Y-114574288D01*
X91435421Y-114581445D01*
X91445752Y-114583500D01*
X92985248Y-114583500D01*
X92995579Y-114581445D01*
X93031561Y-114574288D01*
X93031562Y-114574288D01*
X93043731Y-114571867D01*
X93110052Y-114527552D01*
X93154367Y-114461231D01*
X93166000Y-114402748D01*
X93166000Y-113563252D01*
X93154367Y-113504769D01*
X93110052Y-113438448D01*
X93043731Y-113394133D01*
X93031562Y-113391712D01*
X93031561Y-113391712D01*
X92991316Y-113383707D01*
X92985248Y-113382500D01*
X91445752Y-113382500D01*
X91439684Y-113383707D01*
X91399439Y-113391712D01*
X91399438Y-113391712D01*
X91387269Y-113394133D01*
X91320948Y-113438448D01*
X91276633Y-113504769D01*
X91265000Y-113563252D01*
X91265000Y-114402748D01*
X90905500Y-114402748D01*
X90905500Y-111981700D01*
X90912887Y-111956542D01*
X90906001Y-111939040D01*
X90905500Y-111927810D01*
X90905500Y-110574193D01*
X90912887Y-110549035D01*
X90906001Y-110531535D01*
X90905500Y-110520304D01*
X90905500Y-102780004D01*
X90925502Y-102711883D01*
X90979158Y-102665390D01*
X91049432Y-102655286D01*
X91060763Y-102658395D01*
X91060769Y-102658367D01*
X91119252Y-102670000D01*
X92458748Y-102670000D01*
X92464816Y-102668793D01*
X92505061Y-102660788D01*
X92505062Y-102660788D01*
X92517231Y-102658367D01*
X92583552Y-102614052D01*
X92627867Y-102547731D01*
X92639500Y-102489248D01*
X92639500Y-100729500D01*
X92659502Y-100661379D01*
X92713158Y-100614886D01*
X92765500Y-100603500D01*
X92922564Y-100603500D01*
X92942274Y-100605051D01*
X92964000Y-100608492D01*
X93001063Y-100602622D01*
X93089304Y-100588646D01*
X93202342Y-100531050D01*
X93292050Y-100441342D01*
X93349646Y-100328304D01*
X93362508Y-100247099D01*
X93367941Y-100212793D01*
X93369492Y-100203000D01*
X93367941Y-100193207D01*
X93351197Y-100087487D01*
X93351196Y-100087485D01*
X93349646Y-100077696D01*
X93292050Y-99964658D01*
X93202342Y-99874950D01*
X93089304Y-99817354D01*
X93079515Y-99815804D01*
X93079513Y-99815803D01*
X92995519Y-99802500D01*
X92973793Y-99799059D01*
X92964000Y-99797508D01*
X92954207Y-99799059D01*
X92942274Y-99800949D01*
X92922564Y-99802500D01*
X92765500Y-99802500D01*
X92697379Y-99782498D01*
X92650886Y-99728842D01*
X92639500Y-99676500D01*
X92639500Y-99049752D01*
X92627867Y-98991269D01*
X92583552Y-98924948D01*
X92517231Y-98880633D01*
X92505062Y-98878212D01*
X92505061Y-98878212D01*
X92464816Y-98870207D01*
X92458748Y-98869000D01*
X91119252Y-98869000D01*
X91060769Y-98880633D01*
X91060147Y-98877508D01*
X91009132Y-98882995D01*
X90945644Y-98851217D01*
X90909415Y-98790160D01*
X90905500Y-98758996D01*
X90905500Y-94968500D01*
X90925502Y-94900379D01*
X90979158Y-94853886D01*
X91031500Y-94842500D01*
X92508014Y-94842500D01*
X92576135Y-94862502D01*
G37*
%TD.AperFunction*%
%TA.AperFunction,Conductor*%
G36*
X105646621Y-94862502D02*
G01*
X105693114Y-94916158D01*
X105704500Y-94968500D01*
X105704500Y-101092998D01*
X105684498Y-101161119D01*
X105681194Y-101163982D01*
X105703461Y-101214641D01*
X105704500Y-101230790D01*
X105704500Y-113973027D01*
X105684498Y-114041148D01*
X105630842Y-114087641D01*
X105560568Y-114097744D01*
X105537999Y-114094499D01*
X105538246Y-114092785D01*
X105478541Y-114070522D01*
X105435989Y-114013690D01*
X105429592Y-113949935D01*
X105432941Y-113928791D01*
X105434492Y-113919000D01*
X105414646Y-113793696D01*
X105357050Y-113680658D01*
X105303487Y-113627095D01*
X105269461Y-113564783D01*
X105274526Y-113493968D01*
X105303487Y-113448905D01*
X105357050Y-113395342D01*
X105414646Y-113282304D01*
X105434492Y-113157000D01*
X105426106Y-113104050D01*
X105416197Y-113041487D01*
X105416196Y-113041485D01*
X105414646Y-113031696D01*
X105357050Y-112918658D01*
X105303487Y-112865095D01*
X105269461Y-112802783D01*
X105274526Y-112731968D01*
X105303487Y-112686905D01*
X105357050Y-112633342D01*
X105414646Y-112520304D01*
X105416909Y-112506020D01*
X105432941Y-112404793D01*
X105434492Y-112395000D01*
X105414646Y-112269696D01*
X105357050Y-112156658D01*
X105267342Y-112066950D01*
X105154304Y-112009354D01*
X105144515Y-112007804D01*
X105144513Y-112007803D01*
X105038793Y-111991059D01*
X105029000Y-111989508D01*
X105019207Y-111991059D01*
X104913487Y-112007803D01*
X104913485Y-112007804D01*
X104903696Y-112009354D01*
X104790658Y-112066950D01*
X104700950Y-112156658D01*
X104696450Y-112165490D01*
X104690617Y-112173518D01*
X104689419Y-112172648D01*
X104648021Y-112216482D01*
X104579106Y-112233550D01*
X104511904Y-112210650D01*
X104479209Y-112172918D01*
X104478383Y-112173518D01*
X104472550Y-112165490D01*
X104468050Y-112156658D01*
X104452405Y-112141013D01*
X104418379Y-112078701D01*
X104415500Y-112051918D01*
X104415500Y-110882543D01*
X104417921Y-110857961D01*
X104418476Y-110855171D01*
X104420897Y-110843000D01*
X104399515Y-110735505D01*
X104353994Y-110667378D01*
X104353993Y-110667377D01*
X104338624Y-110644376D01*
X104325936Y-110635898D01*
X104306844Y-110620228D01*
X102437625Y-108751009D01*
X102403599Y-108688697D01*
X102408664Y-108617882D01*
X102451211Y-108561046D01*
X102507009Y-108537465D01*
X102597250Y-108523172D01*
X102597251Y-108523172D01*
X102607042Y-108521621D01*
X102720080Y-108464025D01*
X102809788Y-108374317D01*
X102867384Y-108261279D01*
X102876188Y-108205696D01*
X102885679Y-108145768D01*
X102887230Y-108135975D01*
X102878328Y-108079770D01*
X102868935Y-108020462D01*
X102868934Y-108020460D01*
X102867384Y-108010671D01*
X102809788Y-107897633D01*
X102794143Y-107881988D01*
X102760117Y-107819676D01*
X102757238Y-107792893D01*
X102757238Y-104694568D01*
X102777240Y-104626447D01*
X102794143Y-104605473D01*
X103330186Y-104069430D01*
X103399570Y-104034076D01*
X103493513Y-104019197D01*
X103493515Y-104019196D01*
X103503304Y-104017646D01*
X103616342Y-103960050D01*
X103706050Y-103870342D01*
X103763646Y-103757304D01*
X103766477Y-103739433D01*
X103781941Y-103641793D01*
X103783492Y-103632000D01*
X103771051Y-103553451D01*
X103765197Y-103516487D01*
X103765196Y-103516485D01*
X103763646Y-103506696D01*
X103706050Y-103393658D01*
X103616342Y-103303950D01*
X103503304Y-103246354D01*
X103493515Y-103244804D01*
X103493513Y-103244803D01*
X103387793Y-103228059D01*
X103378000Y-103226508D01*
X103368207Y-103228059D01*
X103262487Y-103244803D01*
X103262485Y-103244804D01*
X103252696Y-103246354D01*
X103139658Y-103303950D01*
X103049950Y-103393658D01*
X102992354Y-103506696D01*
X102990804Y-103516485D01*
X102990803Y-103516487D01*
X102975924Y-103610430D01*
X102940570Y-103679814D01*
X102314894Y-104305490D01*
X102295802Y-104321160D01*
X102283114Y-104329638D01*
X102267745Y-104352639D01*
X102265368Y-104351050D01*
X102265367Y-104351052D01*
X102267744Y-104352640D01*
X102250269Y-104378794D01*
X102250266Y-104378796D01*
X102250267Y-104378797D01*
X102222223Y-104420767D01*
X102216458Y-104449752D01*
X102200841Y-104528262D01*
X102203262Y-104540433D01*
X102203817Y-104543223D01*
X102206238Y-104567805D01*
X102206238Y-107792893D01*
X102186236Y-107861014D01*
X102169333Y-107881988D01*
X102153688Y-107897633D01*
X102106214Y-107990807D01*
X102103719Y-107995703D01*
X102054971Y-108047318D01*
X101991452Y-108064500D01*
X101707684Y-108064500D01*
X101658827Y-108070932D01*
X101650091Y-108075006D01*
X101650090Y-108075006D01*
X101561588Y-108116275D01*
X101561585Y-108116277D01*
X101551596Y-108120935D01*
X101543797Y-108128734D01*
X101542109Y-108129916D01*
X101474836Y-108152606D01*
X101405975Y-108135323D01*
X101357389Y-108083555D01*
X101344504Y-108013737D01*
X101348444Y-107995125D01*
X101350646Y-107990804D01*
X101354020Y-107969505D01*
X101368941Y-107875293D01*
X101370492Y-107865500D01*
X101357214Y-107781665D01*
X101352197Y-107749987D01*
X101352196Y-107749985D01*
X101350646Y-107740196D01*
X101293050Y-107627158D01*
X101203342Y-107537450D01*
X101090304Y-107479854D01*
X101080515Y-107478304D01*
X101080513Y-107478303D01*
X100974793Y-107461559D01*
X100965000Y-107460008D01*
X100955207Y-107461559D01*
X100849487Y-107478303D01*
X100849485Y-107478304D01*
X100839696Y-107479854D01*
X100830861Y-107484356D01*
X100830860Y-107484356D01*
X100782657Y-107508916D01*
X100712880Y-107522020D01*
X100647096Y-107495319D01*
X100636360Y-107485744D01*
X99499405Y-106348789D01*
X99465379Y-106286477D01*
X99462500Y-106259694D01*
X99462500Y-104283523D01*
X99464921Y-104258943D01*
X99465476Y-104256153D01*
X99465476Y-104256151D01*
X99467897Y-104243980D01*
X99446515Y-104136486D01*
X99446515Y-104136485D01*
X99418471Y-104094515D01*
X99418472Y-104094515D01*
X99418469Y-104094512D01*
X99400994Y-104068358D01*
X99404835Y-104065791D01*
X99404834Y-104065790D01*
X99400993Y-104068357D01*
X99392515Y-104055669D01*
X99385624Y-104045356D01*
X99372936Y-104036878D01*
X99353844Y-104021208D01*
X99254940Y-103922304D01*
X99219586Y-103852920D01*
X99204707Y-103758977D01*
X99204706Y-103758975D01*
X99203156Y-103749186D01*
X99145560Y-103636148D01*
X99055852Y-103546440D01*
X98942814Y-103488844D01*
X98933025Y-103487294D01*
X98933023Y-103487293D01*
X98827303Y-103470549D01*
X98817510Y-103468998D01*
X98719211Y-103484567D01*
X98648800Y-103475467D01*
X98594486Y-103429745D01*
X98573500Y-103360118D01*
X98573500Y-101349084D01*
X98593502Y-101280963D01*
X98647158Y-101234470D01*
X98717432Y-101224366D01*
X98782012Y-101253860D01*
X98788595Y-101259988D01*
X98824639Y-101296031D01*
X98948658Y-101420050D01*
X98957494Y-101424552D01*
X98957495Y-101424553D01*
X98968259Y-101430038D01*
X98985116Y-101440368D01*
X98994885Y-101447466D01*
X98994888Y-101447467D01*
X99002910Y-101453296D01*
X99023834Y-101460095D01*
X99042094Y-101467659D01*
X99052859Y-101473144D01*
X99052863Y-101473145D01*
X99061696Y-101477646D01*
X99071489Y-101479197D01*
X99083422Y-101481087D01*
X99102648Y-101485703D01*
X99114133Y-101489435D01*
X99114135Y-101489435D01*
X99123567Y-101492500D01*
X99145564Y-101492500D01*
X99165274Y-101494051D01*
X99187000Y-101497492D01*
X99208726Y-101494051D01*
X99228436Y-101492500D01*
X99250433Y-101492500D01*
X99259865Y-101489435D01*
X99259867Y-101489435D01*
X99271352Y-101485703D01*
X99290578Y-101481087D01*
X99302511Y-101479197D01*
X99312304Y-101477646D01*
X99321137Y-101473145D01*
X99321141Y-101473144D01*
X99331906Y-101467659D01*
X99350166Y-101460095D01*
X99371090Y-101453296D01*
X99379112Y-101447467D01*
X99379115Y-101447466D01*
X99388884Y-101440368D01*
X99405741Y-101430038D01*
X99416503Y-101424554D01*
X99416504Y-101424553D01*
X99425342Y-101420050D01*
X99432358Y-101413034D01*
X99438436Y-101408618D01*
X99505303Y-101384758D01*
X99574455Y-101400836D01*
X99623937Y-101451748D01*
X99638500Y-101510552D01*
X99638500Y-102489248D01*
X99650133Y-102547731D01*
X99694448Y-102614052D01*
X99760769Y-102658367D01*
X99772938Y-102660788D01*
X99772939Y-102660788D01*
X99813184Y-102668793D01*
X99819252Y-102670000D01*
X101158748Y-102670000D01*
X101158748Y-102670460D01*
X101224791Y-102682984D01*
X101268330Y-102720237D01*
X101271950Y-102727342D01*
X101361658Y-102817050D01*
X101474696Y-102874646D01*
X101484485Y-102876196D01*
X101484487Y-102876197D01*
X101590207Y-102892941D01*
X101600000Y-102894492D01*
X101609793Y-102892941D01*
X101715513Y-102876197D01*
X101715515Y-102876196D01*
X101725304Y-102874646D01*
X101838342Y-102817050D01*
X101853987Y-102801405D01*
X101916299Y-102767379D01*
X101943082Y-102764500D01*
X103689700Y-102764500D01*
X103714282Y-102766921D01*
X103729243Y-102769897D01*
X103756375Y-102764500D01*
X103756376Y-102764500D01*
X103836738Y-102748515D01*
X103878708Y-102720471D01*
X103878708Y-102720472D01*
X103878711Y-102720469D01*
X103904865Y-102702994D01*
X103907432Y-102706835D01*
X103907433Y-102706834D01*
X103904866Y-102702993D01*
X103917554Y-102694515D01*
X103927867Y-102687624D01*
X103936345Y-102674936D01*
X103952015Y-102655844D01*
X105008535Y-101599324D01*
X105077919Y-101563970D01*
X105171862Y-101549091D01*
X105171864Y-101549090D01*
X105181653Y-101547540D01*
X105294691Y-101489944D01*
X105384399Y-101400236D01*
X105441995Y-101287198D01*
X105443755Y-101276090D01*
X105454051Y-101211079D01*
X105478089Y-101160371D01*
X105457604Y-101128496D01*
X105454051Y-101112709D01*
X105443546Y-101046381D01*
X105443545Y-101046379D01*
X105441995Y-101036590D01*
X105384399Y-100923552D01*
X105336997Y-100876150D01*
X105302971Y-100813838D01*
X105308036Y-100743023D01*
X105311896Y-100733808D01*
X105315897Y-100725228D01*
X105315899Y-100725222D01*
X105319972Y-100716487D01*
X105326500Y-100666901D01*
X105326499Y-100247100D01*
X105319972Y-100197513D01*
X105269224Y-100088684D01*
X105188405Y-100007865D01*
X105154379Y-99945553D01*
X105151500Y-99918770D01*
X105151500Y-99879764D01*
X105171502Y-99811643D01*
X105201636Y-99780288D01*
X105206404Y-99778065D01*
X105290065Y-99694404D01*
X105340068Y-99587173D01*
X105346500Y-99538316D01*
X105346500Y-99089684D01*
X105340068Y-99040827D01*
X105290065Y-98933596D01*
X105206404Y-98849935D01*
X105202600Y-98848161D01*
X105160899Y-98795988D01*
X105151500Y-98748236D01*
X105151500Y-98736764D01*
X105171502Y-98668643D01*
X105201636Y-98637288D01*
X105206404Y-98635065D01*
X105290065Y-98551404D01*
X105319398Y-98488500D01*
X105335994Y-98452910D01*
X105335994Y-98452909D01*
X105340068Y-98444173D01*
X105346500Y-98395316D01*
X105346500Y-97946684D01*
X105340068Y-97897827D01*
X105290065Y-97790596D01*
X105206404Y-97706935D01*
X105201195Y-97704506D01*
X105158900Y-97651590D01*
X105149500Y-97603836D01*
X105149500Y-97588463D01*
X105169502Y-97520342D01*
X105202861Y-97485633D01*
X105212316Y-97481224D01*
X105297224Y-97396316D01*
X105325038Y-97336670D01*
X105343898Y-97296224D01*
X105343899Y-97296222D01*
X105347972Y-97287487D01*
X105354500Y-97237901D01*
X105354499Y-96818100D01*
X105347972Y-96768513D01*
X105297224Y-96659684D01*
X105265022Y-96627482D01*
X105230996Y-96565170D01*
X105236061Y-96494355D01*
X105241850Y-96481184D01*
X105283145Y-96400137D01*
X105287646Y-96391304D01*
X105289858Y-96377342D01*
X105305941Y-96275793D01*
X105307492Y-96266000D01*
X105297057Y-96200117D01*
X105289197Y-96150487D01*
X105289196Y-96150485D01*
X105287646Y-96140696D01*
X105230050Y-96027658D01*
X105140342Y-95937950D01*
X105027304Y-95880354D01*
X105017515Y-95878804D01*
X105017513Y-95878803D01*
X104911793Y-95862059D01*
X104902000Y-95860508D01*
X104892207Y-95862059D01*
X104786487Y-95878803D01*
X104786485Y-95878804D01*
X104776696Y-95880354D01*
X104663658Y-95937950D01*
X104573950Y-96027658D01*
X104533476Y-96107093D01*
X104521072Y-96131436D01*
X104472323Y-96183051D01*
X104403408Y-96200117D01*
X104336207Y-96177216D01*
X104292055Y-96121618D01*
X104284356Y-96093944D01*
X104273197Y-96023487D01*
X104273196Y-96023485D01*
X104271646Y-96013696D01*
X104214050Y-95900658D01*
X104124342Y-95810950D01*
X104011304Y-95753354D01*
X104001515Y-95751804D01*
X104001513Y-95751803D01*
X103895793Y-95735059D01*
X103886000Y-95733508D01*
X103876207Y-95735059D01*
X103770487Y-95751803D01*
X103770485Y-95751804D01*
X103760696Y-95753354D01*
X103647658Y-95810950D01*
X103557950Y-95900658D01*
X103500354Y-96013696D01*
X103498804Y-96023485D01*
X103498803Y-96023487D01*
X103487644Y-96093944D01*
X103480508Y-96139000D01*
X103482059Y-96148793D01*
X103493646Y-96221949D01*
X103500354Y-96264304D01*
X103557950Y-96377342D01*
X103576572Y-96395964D01*
X103610598Y-96458276D01*
X103605533Y-96529091D01*
X103572589Y-96571681D01*
X103575684Y-96574776D01*
X103490776Y-96659684D01*
X103440028Y-96768513D01*
X103433500Y-96818099D01*
X103433501Y-97237900D01*
X103440028Y-97287487D01*
X103444101Y-97296221D01*
X103444101Y-97296222D01*
X103465875Y-97342916D01*
X103490776Y-97396316D01*
X103575684Y-97481224D01*
X103576348Y-97481534D01*
X103616716Y-97532037D01*
X103624024Y-97602656D01*
X103591992Y-97666016D01*
X103553365Y-97693986D01*
X103535590Y-97702274D01*
X103535587Y-97702276D01*
X103525596Y-97706935D01*
X103441935Y-97790596D01*
X103391932Y-97897827D01*
X103385500Y-97946684D01*
X103385500Y-98395316D01*
X103391932Y-98444173D01*
X103396006Y-98452909D01*
X103396006Y-98452910D01*
X103412602Y-98488500D01*
X103441935Y-98551404D01*
X103525596Y-98635065D01*
X103535588Y-98639725D01*
X103535589Y-98639725D01*
X103597604Y-98668643D01*
X103632827Y-98685068D01*
X103681684Y-98691500D01*
X104030316Y-98691500D01*
X104079173Y-98685068D01*
X104114397Y-98668643D01*
X104176411Y-98639725D01*
X104176412Y-98639725D01*
X104186404Y-98635065D01*
X104270065Y-98551404D01*
X104270753Y-98552092D01*
X104318247Y-98514131D01*
X104388867Y-98506823D01*
X104452226Y-98538856D01*
X104460579Y-98548496D01*
X104461935Y-98551404D01*
X104545596Y-98635065D01*
X104549400Y-98636839D01*
X104591101Y-98689012D01*
X104600500Y-98736764D01*
X104600500Y-98748236D01*
X104580498Y-98816357D01*
X104550364Y-98847712D01*
X104545596Y-98849935D01*
X104461935Y-98933596D01*
X104411932Y-99040827D01*
X104405500Y-99089684D01*
X104405500Y-99538316D01*
X104411932Y-99587173D01*
X104461935Y-99694404D01*
X104545596Y-99778065D01*
X104549400Y-99779839D01*
X104591101Y-99832012D01*
X104600500Y-99879764D01*
X104600500Y-99880224D01*
X104580498Y-99948345D01*
X104527750Y-99994419D01*
X104507684Y-100003776D01*
X104422776Y-100088684D01*
X104372028Y-100197513D01*
X104365500Y-100247099D01*
X104365501Y-100666900D01*
X104372028Y-100716487D01*
X104422776Y-100825316D01*
X104507684Y-100910224D01*
X104517676Y-100914883D01*
X104517677Y-100914884D01*
X104533060Y-100922057D01*
X104592078Y-100949578D01*
X104645362Y-100996494D01*
X104664823Y-101064771D01*
X104663276Y-101083483D01*
X104654273Y-101140324D01*
X104618919Y-101209708D01*
X103652032Y-102176595D01*
X103589720Y-102210621D01*
X103562937Y-102213500D01*
X101944931Y-102213500D01*
X101876810Y-102193498D01*
X101830317Y-102139842D01*
X101820213Y-102069568D01*
X101832664Y-102030298D01*
X101854144Y-101988140D01*
X101854144Y-101988139D01*
X101858646Y-101979304D01*
X101878492Y-101854000D01*
X101858646Y-101728696D01*
X101822218Y-101657202D01*
X101809114Y-101587427D01*
X101822218Y-101542797D01*
X101833096Y-101521448D01*
X101858646Y-101471304D01*
X101860390Y-101460297D01*
X101876941Y-101355793D01*
X101878492Y-101346000D01*
X101867628Y-101277407D01*
X101860197Y-101230487D01*
X101860196Y-101230485D01*
X101858646Y-101220696D01*
X101801050Y-101107658D01*
X101711342Y-101017950D01*
X101598304Y-100960354D01*
X101588515Y-100958804D01*
X101588513Y-100958803D01*
X101482793Y-100942059D01*
X101473000Y-100940508D01*
X101464697Y-100941823D01*
X101397379Y-100922057D01*
X101350886Y-100868401D01*
X101339500Y-100816059D01*
X101339500Y-99049752D01*
X101327867Y-98991269D01*
X101283552Y-98924948D01*
X101217231Y-98880633D01*
X101205062Y-98878212D01*
X101205061Y-98878212D01*
X101164816Y-98870207D01*
X101158748Y-98869000D01*
X100599085Y-98869000D01*
X100530964Y-98848998D01*
X100484471Y-98795342D01*
X100474636Y-98762711D01*
X100463197Y-98690487D01*
X100463196Y-98690485D01*
X100461646Y-98680696D01*
X100404050Y-98567658D01*
X100398140Y-98561748D01*
X100374571Y-98495696D01*
X100390650Y-98426544D01*
X100397487Y-98415905D01*
X100404050Y-98409342D01*
X100405711Y-98406082D01*
X100459181Y-98364850D01*
X100526087Y-98359933D01*
X100526347Y-98358248D01*
X100584153Y-98367180D01*
X100959443Y-98371120D01*
X101340060Y-98375116D01*
X101340066Y-98375116D01*
X101343520Y-98375152D01*
X101346966Y-98374809D01*
X101384868Y-98371036D01*
X101384869Y-98371036D01*
X101388303Y-98370694D01*
X101391663Y-98369982D01*
X101391673Y-98369980D01*
X101441121Y-98359495D01*
X101441148Y-98359489D01*
X101441968Y-98359315D01*
X101453203Y-98356600D01*
X101533916Y-98313591D01*
X101587572Y-98267098D01*
X101605527Y-98249505D01*
X101650174Y-98169687D01*
X101660000Y-98136222D01*
X101668907Y-98105889D01*
X101668908Y-98105885D01*
X101670176Y-98101566D01*
X101676017Y-98060943D01*
X101677861Y-98048118D01*
X101677862Y-98048111D01*
X101678500Y-98043670D01*
X101678500Y-94995000D01*
X101677099Y-94981968D01*
X101689705Y-94912100D01*
X101738084Y-94860138D01*
X101802377Y-94842500D01*
X105578500Y-94842500D01*
X105646621Y-94862502D01*
G37*
%TD.AperFunction*%
%TD*%
M02*
