%TF.GenerationSoftware,KiCad,Pcbnew,(6.0.11-0)*%
%TF.CreationDate,2023-03-16T18:41:31-05:00*%
%TF.ProjectId,STEP,53544550-2e6b-4696-9361-645f70636258,rev?*%
%TF.SameCoordinates,Original*%
%TF.FileFunction,Copper,L3,Inr*%
%TF.FilePolarity,Positive*%
%FSLAX46Y46*%
G04 Gerber Fmt 4.6, Leading zero omitted, Abs format (unit mm)*
G04 Created by KiCad (PCBNEW (6.0.11-0)) date 2023-03-16 18:41:31*
%MOMM*%
%LPD*%
G01*
G04 APERTURE LIST*
%TA.AperFunction,ViaPad*%
%ADD10C,0.400000*%
%TD*%
G04 APERTURE END LIST*
D10*
%TO.N,+1V8*%
X99695000Y-122174000D03*
%TO.N,GND*%
X105156000Y-124079000D03*
%TO.N,VAUX*%
X103886000Y-96139000D03*
%TO.N,+BATT*%
X105029000Y-120650000D03*
X104267000Y-120650000D03*
X105410000Y-120015000D03*
X104648000Y-120015000D03*
X103886000Y-120015000D03*
X103124000Y-120015000D03*
X100076000Y-101981000D03*
X100076000Y-101346000D03*
X100076000Y-100711000D03*
X100076000Y-100076000D03*
X100076000Y-99441000D03*
X100076000Y-98171000D03*
X100076000Y-98806000D03*
X101473000Y-101854000D03*
X101473000Y-101346000D03*
%TO.N,GND*%
X102235000Y-120015000D03*
X101092000Y-112268000D03*
%TO.N,+1V8*%
X105029000Y-113919000D03*
X104140000Y-113919000D03*
X105029000Y-113157000D03*
X104140000Y-113157000D03*
X105029000Y-112395000D03*
X104140000Y-112395000D03*
X92202000Y-107602500D03*
%TO.N,GND*%
X97282000Y-117602000D03*
X97282000Y-118237000D03*
X96266000Y-115951000D03*
X96266000Y-115316000D03*
X96901000Y-115316000D03*
X96901000Y-115951000D03*
X97917000Y-120015000D03*
X98679000Y-120015000D03*
X98298000Y-119507000D03*
X99060000Y-119507000D03*
X98806000Y-122555000D03*
X98806000Y-123190000D03*
X98806000Y-123825000D03*
X100457000Y-125857000D03*
X99822000Y-125476000D03*
X99314000Y-124968000D03*
X98933000Y-124460000D03*
X100965000Y-124333000D03*
X100965000Y-123698000D03*
X100965000Y-123063000D03*
X100838000Y-122428000D03*
X100330000Y-122047000D03*
X96012000Y-125476000D03*
X96647000Y-125095000D03*
X96774000Y-124460000D03*
X96774000Y-123825000D03*
X96774000Y-123190000D03*
X96774000Y-122555000D03*
X91821000Y-98425000D03*
X91821000Y-97409000D03*
X91821000Y-96393000D03*
X91821000Y-95377000D03*
X92932250Y-98425000D03*
X94043500Y-98425000D03*
X95154750Y-98425000D03*
X96266000Y-98425000D03*
X92964000Y-100965000D03*
X94075250Y-100965000D03*
X95186500Y-100965000D03*
X96297750Y-100965000D03*
X97409000Y-100965000D03*
X98806000Y-103124000D03*
%TO.N,/AUX_BUZZER_DRAIN*%
X95758000Y-101854000D03*
%TO.N,VAUX*%
X99187000Y-101092000D03*
%TO.N,/BATT_BUZZER_DRAIN*%
X92964000Y-100203000D03*
%TO.N,VAUX*%
X93599000Y-96520000D03*
X99060000Y-96520000D03*
X99060000Y-95377000D03*
X97790000Y-95377000D03*
X96520000Y-95377000D03*
X95123000Y-95377000D03*
X93599000Y-95377000D03*
%TO.N,GND*%
X105283000Y-95377000D03*
X104013000Y-95377000D03*
X105424350Y-97548248D03*
X105426438Y-98792693D03*
X105410000Y-99949000D03*
X98298000Y-108204000D03*
%TO.N,/VFB_AUX*%
X104902000Y-96266000D03*
%TO.N,GND*%
X105410000Y-102362000D03*
%TO.N,/VEN_AUX*%
X105056349Y-101161894D03*
X101600000Y-102489000D03*
%TO.N,/VFB_1V8*%
X103378000Y-103632000D03*
X102481738Y-108135975D03*
%TO.N,/VEN_1V8*%
X98817510Y-103874490D03*
X100965000Y-107865500D03*
%TO.N,GND*%
X102235000Y-112268000D03*
X91104500Y-110109000D03*
%TO.N,/SCK*%
X97802477Y-112255523D03*
%TO.N,/NRST*%
X99822000Y-109220000D03*
%TO.N,/VAUX_BUZZER_LSD*%
X95758000Y-102870000D03*
%TO.N,/VBATT_BUZZER_LSD*%
X98298000Y-97663000D03*
%TO.N,GND*%
X94361000Y-102997000D03*
X93853000Y-102997000D03*
%TO.N,/BATT_LVL*%
X91693098Y-123825902D03*
%TO.N,/ADC_IN_1*%
X92329000Y-123119006D03*
%TO.N,/ADC_IN_0*%
X92329000Y-122519503D03*
%TO.N,/ADC_IN_2*%
X92329000Y-121920000D03*
%TO.N,+1V8*%
X91873754Y-110109000D03*
%TO.N,/NRST*%
X91910506Y-110744000D03*
%TO.N,/VAUX_BUZZER_LSD*%
X92385006Y-111633000D03*
%TO.N,/VBATT_BUZZER_LSD*%
X92997500Y-111633000D03*
%TO.N,/DIO_1*%
X92928502Y-123118890D03*
%TO.N,/DIO_0*%
X92936798Y-122519445D03*
%TO.N,/ADC_IN_3*%
X92928503Y-121920000D03*
%TO.N,+1V8*%
X95608204Y-121951500D03*
X98697023Y-112794023D03*
%TO.N,/CS*%
X97363523Y-112730523D03*
%TO.N,/SCK*%
X95377000Y-108331000D03*
%TO.N,/CS*%
X94996000Y-107823000D03*
%TO.N,+1V8*%
X94107000Y-112776000D03*
%TO.N,GND*%
X102489000Y-121539000D03*
%TD*%
%TA.AperFunction,Conductor*%
%TO.N,+1V8*%
G36*
X105605088Y-112161575D02*
G01*
X105652100Y-112214776D01*
X105664000Y-112268229D01*
X105664000Y-118619000D01*
X105643998Y-118687121D01*
X105590342Y-118733614D01*
X105538000Y-118745000D01*
X101346000Y-118745000D01*
X101346000Y-122065418D01*
X101325998Y-122133539D01*
X101272342Y-122180032D01*
X101202068Y-122190136D01*
X101137488Y-122160642D01*
X101130905Y-122154513D01*
X101076342Y-122099950D01*
X100963304Y-122042354D01*
X100953515Y-122040804D01*
X100953513Y-122040803D01*
X100847793Y-122024059D01*
X100838000Y-122022508D01*
X100835101Y-122022967D01*
X100770698Y-122004057D01*
X100724205Y-121950401D01*
X100718986Y-121936994D01*
X100717197Y-121931487D01*
X100715646Y-121921696D01*
X100658050Y-121808658D01*
X100568342Y-121718950D01*
X100455304Y-121661354D01*
X100445515Y-121659804D01*
X100445513Y-121659803D01*
X100339793Y-121643059D01*
X100330000Y-121641508D01*
X100320207Y-121643059D01*
X100214487Y-121659803D01*
X100214485Y-121659804D01*
X100204696Y-121661354D01*
X100091658Y-121718950D01*
X100001950Y-121808658D01*
X99944354Y-121921696D01*
X99942804Y-121931485D01*
X99942803Y-121931487D01*
X99931309Y-122004057D01*
X99924508Y-122047000D01*
X99926059Y-122056793D01*
X99942143Y-122158342D01*
X99944354Y-122172304D01*
X99953440Y-122190136D01*
X99981291Y-122244797D01*
X99994395Y-122314574D01*
X99967695Y-122380359D01*
X99909667Y-122421265D01*
X99869024Y-122428000D01*
X99267995Y-122428000D01*
X99199874Y-122407998D01*
X99155728Y-122359203D01*
X99138551Y-122325491D01*
X99138550Y-122325489D01*
X99134050Y-122316658D01*
X99044342Y-122226950D01*
X98931304Y-122169354D01*
X98921515Y-122167804D01*
X98921513Y-122167803D01*
X98815793Y-122151059D01*
X98806000Y-122149508D01*
X98796207Y-122151059D01*
X98690487Y-122167803D01*
X98690485Y-122167804D01*
X98680696Y-122169354D01*
X98567658Y-122226950D01*
X98477950Y-122316658D01*
X98473450Y-122325489D01*
X98473449Y-122325491D01*
X98456272Y-122359203D01*
X98407523Y-122410818D01*
X98344005Y-122428000D01*
X97235995Y-122428000D01*
X97167874Y-122407998D01*
X97123728Y-122359203D01*
X97106551Y-122325491D01*
X97106550Y-122325489D01*
X97102050Y-122316658D01*
X97012342Y-122226950D01*
X96899304Y-122169354D01*
X96889515Y-122167804D01*
X96889513Y-122167803D01*
X96783793Y-122151059D01*
X96774000Y-122149508D01*
X96764207Y-122151059D01*
X96658487Y-122167803D01*
X96658485Y-122167804D01*
X96648696Y-122169354D01*
X96535658Y-122226950D01*
X96445950Y-122316658D01*
X96441450Y-122325489D01*
X96441449Y-122325491D01*
X96424272Y-122359203D01*
X96375523Y-122410818D01*
X96312005Y-122428000D01*
X93416909Y-122428000D01*
X93348788Y-122407998D01*
X93304642Y-122359203D01*
X93269349Y-122289937D01*
X93264848Y-122281103D01*
X93265323Y-122280861D01*
X93243942Y-122220938D01*
X93257470Y-122156542D01*
X93309648Y-122054137D01*
X93314149Y-122045304D01*
X93317760Y-122022508D01*
X93332444Y-121929793D01*
X93333995Y-121920000D01*
X93325609Y-121867050D01*
X93315700Y-121804487D01*
X93315699Y-121804485D01*
X93314149Y-121794696D01*
X93256553Y-121681658D01*
X93166845Y-121591950D01*
X93053807Y-121534354D01*
X93044018Y-121532804D01*
X93044016Y-121532803D01*
X92938296Y-121516059D01*
X92928503Y-121514508D01*
X92918710Y-121516059D01*
X92812990Y-121532803D01*
X92812988Y-121532804D01*
X92803199Y-121534354D01*
X92794366Y-121538855D01*
X92794362Y-121538856D01*
X92766202Y-121553204D01*
X92696425Y-121566308D01*
X92630641Y-121539607D01*
X92589735Y-121481579D01*
X92583000Y-121440937D01*
X92583000Y-120015000D01*
X97511508Y-120015000D01*
X97531354Y-120140304D01*
X97588950Y-120253342D01*
X97678658Y-120343050D01*
X97791696Y-120400646D01*
X97801485Y-120402196D01*
X97801487Y-120402197D01*
X97907207Y-120418941D01*
X97917000Y-120420492D01*
X97926793Y-120418941D01*
X98032513Y-120402197D01*
X98032515Y-120402196D01*
X98042304Y-120400646D01*
X98155342Y-120343050D01*
X98208905Y-120289487D01*
X98271217Y-120255461D01*
X98342032Y-120260526D01*
X98387095Y-120289487D01*
X98440658Y-120343050D01*
X98553696Y-120400646D01*
X98563485Y-120402196D01*
X98563487Y-120402197D01*
X98669207Y-120418941D01*
X98679000Y-120420492D01*
X98688793Y-120418941D01*
X98794513Y-120402197D01*
X98794515Y-120402196D01*
X98804304Y-120400646D01*
X98917342Y-120343050D01*
X99007050Y-120253342D01*
X99064646Y-120140304D01*
X99084492Y-120015000D01*
X99084033Y-120012101D01*
X99102943Y-119947698D01*
X99156599Y-119901205D01*
X99170006Y-119895986D01*
X99175513Y-119894197D01*
X99185304Y-119892646D01*
X99298342Y-119835050D01*
X99388050Y-119745342D01*
X99445646Y-119632304D01*
X99449055Y-119610784D01*
X99463941Y-119516793D01*
X99465492Y-119507000D01*
X99445646Y-119381696D01*
X99388050Y-119268658D01*
X99298342Y-119178950D01*
X99185304Y-119121354D01*
X99175515Y-119119804D01*
X99175513Y-119119803D01*
X99069793Y-119103059D01*
X99060000Y-119101508D01*
X99050207Y-119103059D01*
X98944487Y-119119803D01*
X98944485Y-119119804D01*
X98934696Y-119121354D01*
X98821658Y-119178950D01*
X98768095Y-119232513D01*
X98705783Y-119266539D01*
X98634968Y-119261474D01*
X98589905Y-119232513D01*
X98536342Y-119178950D01*
X98423304Y-119121354D01*
X98413515Y-119119804D01*
X98413513Y-119119803D01*
X98307793Y-119103059D01*
X98298000Y-119101508D01*
X98288207Y-119103059D01*
X98182487Y-119119803D01*
X98182485Y-119119804D01*
X98172696Y-119121354D01*
X98059658Y-119178950D01*
X97969950Y-119268658D01*
X97912354Y-119381696D01*
X97892508Y-119507000D01*
X97892967Y-119509899D01*
X97874057Y-119574302D01*
X97820401Y-119620795D01*
X97806994Y-119626014D01*
X97801487Y-119627803D01*
X97791696Y-119629354D01*
X97678658Y-119686950D01*
X97588950Y-119776658D01*
X97531354Y-119889696D01*
X97529804Y-119899485D01*
X97529803Y-119899487D01*
X97522167Y-119947698D01*
X97511508Y-120015000D01*
X92583000Y-120015000D01*
X92583000Y-118237000D01*
X96876508Y-118237000D01*
X96896354Y-118362304D01*
X96953950Y-118475342D01*
X97043658Y-118565050D01*
X97156696Y-118622646D01*
X97166485Y-118624196D01*
X97166487Y-118624197D01*
X97272207Y-118640941D01*
X97282000Y-118642492D01*
X97291793Y-118640941D01*
X97397513Y-118624197D01*
X97397515Y-118624196D01*
X97407304Y-118622646D01*
X97520342Y-118565050D01*
X97610050Y-118475342D01*
X97667646Y-118362304D01*
X97687492Y-118237000D01*
X97667646Y-118111696D01*
X97610050Y-117998658D01*
X97604140Y-117992748D01*
X97580571Y-117926696D01*
X97596650Y-117857544D01*
X97603489Y-117846903D01*
X97610050Y-117840342D01*
X97667646Y-117727304D01*
X97687492Y-117602000D01*
X97667646Y-117476696D01*
X97610050Y-117363658D01*
X97520342Y-117273950D01*
X97407304Y-117216354D01*
X97397515Y-117214804D01*
X97397513Y-117214803D01*
X97291793Y-117198059D01*
X97282000Y-117196508D01*
X97272207Y-117198059D01*
X97166487Y-117214803D01*
X97166485Y-117214804D01*
X97156696Y-117216354D01*
X97043658Y-117273950D01*
X96953950Y-117363658D01*
X96896354Y-117476696D01*
X96876508Y-117602000D01*
X96896354Y-117727304D01*
X96953950Y-117840342D01*
X96959860Y-117846252D01*
X96983429Y-117912304D01*
X96967350Y-117981456D01*
X96960511Y-117992097D01*
X96953950Y-117998658D01*
X96896354Y-118111696D01*
X96876508Y-118237000D01*
X92583000Y-118237000D01*
X92583000Y-115951000D01*
X95860508Y-115951000D01*
X95880354Y-116076304D01*
X95937950Y-116189342D01*
X96027658Y-116279050D01*
X96140696Y-116336646D01*
X96150485Y-116338196D01*
X96150487Y-116338197D01*
X96256207Y-116354941D01*
X96266000Y-116356492D01*
X96275793Y-116354941D01*
X96381513Y-116338197D01*
X96381515Y-116338196D01*
X96391304Y-116336646D01*
X96504342Y-116279050D01*
X96510252Y-116273140D01*
X96576304Y-116249571D01*
X96645456Y-116265650D01*
X96656097Y-116272489D01*
X96662658Y-116279050D01*
X96775696Y-116336646D01*
X96785485Y-116338196D01*
X96785487Y-116338197D01*
X96891207Y-116354941D01*
X96901000Y-116356492D01*
X96910793Y-116354941D01*
X97016513Y-116338197D01*
X97016515Y-116338196D01*
X97026304Y-116336646D01*
X97139342Y-116279050D01*
X97229050Y-116189342D01*
X97286646Y-116076304D01*
X97306492Y-115951000D01*
X97286646Y-115825696D01*
X97229050Y-115712658D01*
X97223140Y-115706748D01*
X97199571Y-115640696D01*
X97215650Y-115571544D01*
X97222489Y-115560903D01*
X97229050Y-115554342D01*
X97286646Y-115441304D01*
X97306492Y-115316000D01*
X97286646Y-115190696D01*
X97229050Y-115077658D01*
X97139342Y-114987950D01*
X97026304Y-114930354D01*
X97016515Y-114928804D01*
X97016513Y-114928803D01*
X96910793Y-114912059D01*
X96901000Y-114910508D01*
X96891207Y-114912059D01*
X96785487Y-114928803D01*
X96785485Y-114928804D01*
X96775696Y-114930354D01*
X96662658Y-114987950D01*
X96656748Y-114993860D01*
X96590696Y-115017429D01*
X96521544Y-115001350D01*
X96510903Y-114994511D01*
X96504342Y-114987950D01*
X96391304Y-114930354D01*
X96381515Y-114928804D01*
X96381513Y-114928803D01*
X96275793Y-114912059D01*
X96266000Y-114910508D01*
X96256207Y-114912059D01*
X96150487Y-114928803D01*
X96150485Y-114928804D01*
X96140696Y-114930354D01*
X96027658Y-114987950D01*
X95937950Y-115077658D01*
X95880354Y-115190696D01*
X95860508Y-115316000D01*
X95880354Y-115441304D01*
X95937950Y-115554342D01*
X95943860Y-115560252D01*
X95967429Y-115626304D01*
X95951350Y-115695456D01*
X95944511Y-115706097D01*
X95937950Y-115712658D01*
X95880354Y-115825696D01*
X95860508Y-115951000D01*
X92583000Y-115951000D01*
X92583000Y-112392783D01*
X92603002Y-112324662D01*
X92656658Y-112278169D01*
X92707777Y-112266789D01*
X96997102Y-112225145D01*
X97065413Y-112244485D01*
X97112425Y-112297686D01*
X97123211Y-112367859D01*
X97094346Y-112432723D01*
X97087420Y-112440234D01*
X97035473Y-112492181D01*
X96977877Y-112605219D01*
X96958031Y-112730523D01*
X96977877Y-112855827D01*
X97035473Y-112968865D01*
X97125181Y-113058573D01*
X97238219Y-113116169D01*
X97248008Y-113117719D01*
X97248010Y-113117720D01*
X97353730Y-113134464D01*
X97363523Y-113136015D01*
X97373316Y-113134464D01*
X97479036Y-113117720D01*
X97479038Y-113117719D01*
X97488827Y-113116169D01*
X97601865Y-113058573D01*
X97691573Y-112968865D01*
X97749169Y-112855827D01*
X97765126Y-112755080D01*
X97795539Y-112690927D01*
X97855807Y-112653400D01*
X97869865Y-112650342D01*
X97917989Y-112642720D01*
X97917990Y-112642720D01*
X97927781Y-112641169D01*
X98040819Y-112583573D01*
X98130527Y-112493865D01*
X98188123Y-112380827D01*
X98197983Y-112318573D01*
X98228395Y-112254420D01*
X98288663Y-112216892D01*
X98321207Y-112212289D01*
X100565395Y-112190501D01*
X100633706Y-112209841D01*
X100680718Y-112263042D01*
X100691067Y-112296785D01*
X100706354Y-112393304D01*
X100763950Y-112506342D01*
X100853658Y-112596050D01*
X100966696Y-112653646D01*
X100976485Y-112655196D01*
X100976487Y-112655197D01*
X101082207Y-112671941D01*
X101092000Y-112673492D01*
X101101793Y-112671941D01*
X101207513Y-112655197D01*
X101207515Y-112655196D01*
X101217304Y-112653646D01*
X101330342Y-112596050D01*
X101420050Y-112506342D01*
X101477646Y-112393304D01*
X101494551Y-112286568D01*
X101524963Y-112222415D01*
X101585231Y-112184887D01*
X101617776Y-112180284D01*
X101706639Y-112179421D01*
X101774951Y-112198761D01*
X101821963Y-112251962D01*
X101832312Y-112285704D01*
X101849354Y-112393304D01*
X101906950Y-112506342D01*
X101996658Y-112596050D01*
X102109696Y-112653646D01*
X102119485Y-112655196D01*
X102119487Y-112655197D01*
X102225207Y-112671941D01*
X102235000Y-112673492D01*
X102244793Y-112671941D01*
X102350513Y-112655197D01*
X102350515Y-112655196D01*
X102360304Y-112653646D01*
X102473342Y-112596050D01*
X102563050Y-112506342D01*
X102620646Y-112393304D01*
X102631460Y-112325031D01*
X102639312Y-112275452D01*
X102669725Y-112211299D01*
X102729993Y-112173772D01*
X102762534Y-112169170D01*
X105536778Y-112142235D01*
X105605088Y-112161575D01*
G37*
%TD.AperFunction*%
%TD*%
%TA.AperFunction,Conductor*%
%TO.N,GND*%
G36*
X93331039Y-94862502D02*
G01*
X93377532Y-94916158D01*
X93387636Y-94986432D01*
X93358142Y-95051012D01*
X93352013Y-95057595D01*
X93270950Y-95138658D01*
X93213354Y-95251696D01*
X93193508Y-95377000D01*
X93213354Y-95502304D01*
X93270950Y-95615342D01*
X93360658Y-95705050D01*
X93473696Y-95762646D01*
X93483485Y-95764196D01*
X93483487Y-95764197D01*
X93589207Y-95780941D01*
X93599000Y-95782492D01*
X93608793Y-95780941D01*
X93714513Y-95764197D01*
X93714515Y-95764196D01*
X93724304Y-95762646D01*
X93837342Y-95705050D01*
X93927050Y-95615342D01*
X93984646Y-95502304D01*
X94004492Y-95377000D01*
X93984646Y-95251696D01*
X93927050Y-95138658D01*
X93845987Y-95057595D01*
X93811961Y-94995283D01*
X93817026Y-94924468D01*
X93859573Y-94867632D01*
X93926093Y-94842821D01*
X93935082Y-94842500D01*
X94786918Y-94842500D01*
X94855039Y-94862502D01*
X94901532Y-94916158D01*
X94911636Y-94986432D01*
X94882142Y-95051012D01*
X94876013Y-95057595D01*
X94794950Y-95138658D01*
X94737354Y-95251696D01*
X94717508Y-95377000D01*
X94737354Y-95502304D01*
X94794950Y-95615342D01*
X94884658Y-95705050D01*
X94997696Y-95762646D01*
X95007485Y-95764196D01*
X95007487Y-95764197D01*
X95113207Y-95780941D01*
X95123000Y-95782492D01*
X95132793Y-95780941D01*
X95238513Y-95764197D01*
X95238515Y-95764196D01*
X95248304Y-95762646D01*
X95361342Y-95705050D01*
X95451050Y-95615342D01*
X95508646Y-95502304D01*
X95528492Y-95377000D01*
X95508646Y-95251696D01*
X95451050Y-95138658D01*
X95369987Y-95057595D01*
X95335961Y-94995283D01*
X95341026Y-94924468D01*
X95383573Y-94867632D01*
X95450093Y-94842821D01*
X95459082Y-94842500D01*
X96183918Y-94842500D01*
X96252039Y-94862502D01*
X96298532Y-94916158D01*
X96308636Y-94986432D01*
X96279142Y-95051012D01*
X96273013Y-95057595D01*
X96191950Y-95138658D01*
X96134354Y-95251696D01*
X96114508Y-95377000D01*
X96134354Y-95502304D01*
X96191950Y-95615342D01*
X96281658Y-95705050D01*
X96394696Y-95762646D01*
X96404485Y-95764196D01*
X96404487Y-95764197D01*
X96510207Y-95780941D01*
X96520000Y-95782492D01*
X96529793Y-95780941D01*
X96635513Y-95764197D01*
X96635515Y-95764196D01*
X96645304Y-95762646D01*
X96758342Y-95705050D01*
X96848050Y-95615342D01*
X96905646Y-95502304D01*
X96925492Y-95377000D01*
X96905646Y-95251696D01*
X96848050Y-95138658D01*
X96766987Y-95057595D01*
X96732961Y-94995283D01*
X96738026Y-94924468D01*
X96780573Y-94867632D01*
X96847093Y-94842821D01*
X96856082Y-94842500D01*
X97453918Y-94842500D01*
X97522039Y-94862502D01*
X97568532Y-94916158D01*
X97578636Y-94986432D01*
X97549142Y-95051012D01*
X97543013Y-95057595D01*
X97461950Y-95138658D01*
X97404354Y-95251696D01*
X97384508Y-95377000D01*
X97404354Y-95502304D01*
X97461950Y-95615342D01*
X97551658Y-95705050D01*
X97664696Y-95762646D01*
X97674485Y-95764196D01*
X97674487Y-95764197D01*
X97780207Y-95780941D01*
X97790000Y-95782492D01*
X97799793Y-95780941D01*
X97905513Y-95764197D01*
X97905515Y-95764196D01*
X97915304Y-95762646D01*
X98028342Y-95705050D01*
X98118050Y-95615342D01*
X98175646Y-95502304D01*
X98195492Y-95377000D01*
X98175646Y-95251696D01*
X98118050Y-95138658D01*
X98036987Y-95057595D01*
X98002961Y-94995283D01*
X98008026Y-94924468D01*
X98050573Y-94867632D01*
X98117093Y-94842821D01*
X98126082Y-94842500D01*
X98723918Y-94842500D01*
X98792039Y-94862502D01*
X98838532Y-94916158D01*
X98848636Y-94986432D01*
X98819142Y-95051012D01*
X98813013Y-95057595D01*
X98731950Y-95138658D01*
X98674354Y-95251696D01*
X98654508Y-95377000D01*
X98674354Y-95502304D01*
X98731950Y-95615342D01*
X98821658Y-95705050D01*
X98934696Y-95762646D01*
X98944485Y-95764196D01*
X98944487Y-95764197D01*
X99050207Y-95780941D01*
X99060000Y-95782492D01*
X99069793Y-95780941D01*
X99175513Y-95764197D01*
X99175515Y-95764196D01*
X99185304Y-95762646D01*
X99298342Y-95705050D01*
X99388050Y-95615342D01*
X99445646Y-95502304D01*
X99465492Y-95377000D01*
X99445646Y-95251696D01*
X99388050Y-95138658D01*
X99306987Y-95057595D01*
X99272961Y-94995283D01*
X99278026Y-94924468D01*
X99320573Y-94867632D01*
X99387093Y-94842821D01*
X99396082Y-94842500D01*
X105578500Y-94842500D01*
X105646621Y-94862502D01*
X105693114Y-94916158D01*
X105704500Y-94968500D01*
X105704500Y-101092998D01*
X105684498Y-101161119D01*
X105681194Y-101163982D01*
X105703461Y-101214641D01*
X105704500Y-101230790D01*
X105704500Y-111815473D01*
X105684498Y-111883594D01*
X105630842Y-111930087D01*
X105561782Y-111940359D01*
X105539239Y-111937341D01*
X105539231Y-111937341D01*
X105534783Y-111936745D01*
X102760539Y-111963680D01*
X102743839Y-111964937D01*
X102735802Y-111965541D01*
X102735796Y-111965542D01*
X102733758Y-111965695D01*
X102731744Y-111965980D01*
X102731733Y-111965981D01*
X102721362Y-111967448D01*
X102701217Y-111970297D01*
X102695053Y-111972538D01*
X102641038Y-111992176D01*
X102621371Y-111999326D01*
X102561103Y-112036853D01*
X102540619Y-112051418D01*
X102535045Y-112058496D01*
X102535044Y-112058497D01*
X102488412Y-112117710D01*
X102488409Y-112117715D01*
X102484035Y-112123269D01*
X102478764Y-112134387D01*
X102455550Y-112183354D01*
X102455548Y-112183360D01*
X102453622Y-112187422D01*
X102436342Y-112243305D01*
X102425890Y-112309297D01*
X102425890Y-112309298D01*
X102413708Y-112346790D01*
X102403783Y-112366269D01*
X102380611Y-112398161D01*
X102365161Y-112413611D01*
X102333269Y-112436783D01*
X102313790Y-112446708D01*
X102276298Y-112458890D01*
X102254707Y-112462309D01*
X102215293Y-112462309D01*
X102193702Y-112458890D01*
X102156210Y-112446708D01*
X102136731Y-112436783D01*
X102104839Y-112413611D01*
X102089389Y-112398161D01*
X102066217Y-112366269D01*
X102056292Y-112346790D01*
X102044110Y-112309297D01*
X102037374Y-112266766D01*
X102035282Y-112253557D01*
X102034487Y-112250122D01*
X102029278Y-112227602D01*
X102029276Y-112227595D01*
X102028779Y-112225446D01*
X102018430Y-112191704D01*
X101989902Y-112140782D01*
X101979238Y-112121746D01*
X101979236Y-112121743D01*
X101975954Y-112115885D01*
X101928942Y-112062684D01*
X101920445Y-112054178D01*
X101917546Y-112051276D01*
X101917544Y-112051275D01*
X101911178Y-112044902D01*
X101830930Y-112001033D01*
X101824118Y-111999104D01*
X101824117Y-111999104D01*
X101783447Y-111987590D01*
X101762618Y-111981693D01*
X101704643Y-111973931D01*
X101615780Y-111974794D01*
X101588998Y-111976809D01*
X101556453Y-111981412D01*
X101550285Y-111983654D01*
X101550283Y-111983655D01*
X101507181Y-111999326D01*
X101476607Y-112010442D01*
X101416339Y-112047970D01*
X101395855Y-112062536D01*
X101339271Y-112134387D01*
X101336241Y-112140779D01*
X101336239Y-112140782D01*
X101310786Y-112194474D01*
X101310784Y-112194480D01*
X101308859Y-112198540D01*
X101291581Y-112254421D01*
X101288550Y-112273558D01*
X101282890Y-112309297D01*
X101270708Y-112346790D01*
X101260783Y-112366269D01*
X101237611Y-112398161D01*
X101222161Y-112413611D01*
X101190269Y-112436783D01*
X101170790Y-112446708D01*
X101133298Y-112458890D01*
X101111707Y-112462309D01*
X101072293Y-112462309D01*
X101050702Y-112458890D01*
X101013210Y-112446708D01*
X100993731Y-112436783D01*
X100961839Y-112413611D01*
X100946389Y-112398161D01*
X100923217Y-112366269D01*
X100913292Y-112346790D01*
X100901110Y-112309297D01*
X100894385Y-112266832D01*
X100894382Y-112266818D01*
X100894037Y-112264638D01*
X100887534Y-112236528D01*
X100877185Y-112202785D01*
X100872529Y-112194474D01*
X100837993Y-112132826D01*
X100837990Y-112132822D01*
X100834709Y-112126965D01*
X100787697Y-112073764D01*
X100776963Y-112063019D01*
X100776303Y-112062358D01*
X100776301Y-112062357D01*
X100769934Y-112055983D01*
X100745174Y-112042447D01*
X100695897Y-112015508D01*
X100695894Y-112015507D01*
X100689686Y-112012113D01*
X100656767Y-112002793D01*
X100625706Y-111993999D01*
X100625704Y-111993999D01*
X100621375Y-111992773D01*
X100563400Y-111985011D01*
X98319212Y-112006799D01*
X98292428Y-112008814D01*
X98290404Y-112009100D01*
X98290388Y-112009102D01*
X98273229Y-112011530D01*
X98259884Y-112013417D01*
X98245502Y-112018646D01*
X98237666Y-112021495D01*
X98166811Y-112025972D01*
X98105519Y-111992173D01*
X98040819Y-111927473D01*
X97927781Y-111869877D01*
X97917992Y-111868327D01*
X97917990Y-111868326D01*
X97812270Y-111851582D01*
X97802477Y-111850031D01*
X97792684Y-111851582D01*
X97686964Y-111868326D01*
X97686962Y-111868327D01*
X97677173Y-111869877D01*
X97564135Y-111927473D01*
X97562484Y-111924233D01*
X97512840Y-111941968D01*
X97443682Y-111925914D01*
X97394182Y-111875019D01*
X97380056Y-111805442D01*
X97388690Y-111769181D01*
X97421593Y-111687330D01*
X97421594Y-111687325D01*
X97424426Y-111680281D01*
X97447223Y-111520102D01*
X97447371Y-111506000D01*
X97427934Y-111345378D01*
X97370744Y-111194030D01*
X97343053Y-111153739D01*
X97283405Y-111066951D01*
X97283404Y-111066949D01*
X97279103Y-111060692D01*
X97271903Y-111054277D01*
X97163974Y-110958115D01*
X97163971Y-110958113D01*
X97158302Y-110953062D01*
X97015315Y-110877354D01*
X97005390Y-110874861D01*
X96865767Y-110839790D01*
X96865763Y-110839790D01*
X96858396Y-110837939D01*
X96850797Y-110837899D01*
X96850795Y-110837899D01*
X96781844Y-110837538D01*
X96696605Y-110837092D01*
X96539282Y-110874861D01*
X96532536Y-110878343D01*
X96532533Y-110878344D01*
X96467476Y-110911923D01*
X96395509Y-110949068D01*
X96273588Y-111055427D01*
X96180556Y-111187798D01*
X96121784Y-111338539D01*
X96100666Y-111498949D01*
X96100814Y-111500289D01*
X96101500Y-111506503D01*
X96101500Y-111506505D01*
X96103001Y-111520102D01*
X96118420Y-111659765D01*
X96174022Y-111811704D01*
X96178255Y-111818004D01*
X96178260Y-111818013D01*
X96187812Y-111832227D01*
X96209204Y-111899924D01*
X96190599Y-111968440D01*
X96137906Y-112016021D01*
X96084453Y-112028496D01*
X93439224Y-112054178D01*
X93370913Y-112034838D01*
X93323901Y-111981637D01*
X93313115Y-111911464D01*
X93325734Y-111870981D01*
X93345480Y-111832227D01*
X93383146Y-111758304D01*
X93402992Y-111633000D01*
X93401441Y-111623207D01*
X93384697Y-111517487D01*
X93384696Y-111517485D01*
X93383146Y-111507696D01*
X93325550Y-111394658D01*
X93235842Y-111304950D01*
X93122804Y-111247354D01*
X93113015Y-111245804D01*
X93113013Y-111245803D01*
X93007293Y-111229059D01*
X92997500Y-111227508D01*
X92987707Y-111229059D01*
X92881987Y-111245803D01*
X92881985Y-111245804D01*
X92872196Y-111247354D01*
X92759158Y-111304950D01*
X92759003Y-111304646D01*
X92698450Y-111326253D01*
X92629298Y-111310175D01*
X92627269Y-111308871D01*
X92623348Y-111304950D01*
X92510310Y-111247354D01*
X92500521Y-111245804D01*
X92500519Y-111245803D01*
X92394799Y-111229059D01*
X92385006Y-111227508D01*
X92375213Y-111229059D01*
X92375212Y-111229059D01*
X92302704Y-111240543D01*
X92232293Y-111231443D01*
X92177979Y-111185721D01*
X92157007Y-111117893D01*
X92176034Y-111049494D01*
X92193899Y-111026999D01*
X92238556Y-110982342D01*
X92296152Y-110869304D01*
X92301248Y-110837132D01*
X92314447Y-110753793D01*
X92315998Y-110744000D01*
X92301252Y-110650897D01*
X92297703Y-110628487D01*
X92297702Y-110628485D01*
X92296152Y-110618696D01*
X92238556Y-110505658D01*
X92225503Y-110492605D01*
X92220230Y-110482949D01*
X101180666Y-110482949D01*
X101180814Y-110484289D01*
X101198420Y-110643765D01*
X101201030Y-110650897D01*
X101238685Y-110753793D01*
X101254022Y-110795704D01*
X101258258Y-110802007D01*
X101258258Y-110802008D01*
X101311277Y-110880908D01*
X101344261Y-110929994D01*
X101349880Y-110935107D01*
X101349881Y-110935108D01*
X101458313Y-111033773D01*
X101463929Y-111038883D01*
X101504096Y-111060692D01*
X101599439Y-111112460D01*
X101599441Y-111112461D01*
X101606116Y-111116085D01*
X101613465Y-111118013D01*
X101755263Y-111155213D01*
X101755265Y-111155213D01*
X101762613Y-111157141D01*
X101845069Y-111158436D01*
X101916787Y-111159563D01*
X101916790Y-111159563D01*
X101924386Y-111159682D01*
X101931791Y-111157986D01*
X101931792Y-111157986D01*
X101989806Y-111144699D01*
X102082096Y-111123562D01*
X102226638Y-111050865D01*
X102232410Y-111045936D01*
X102232412Y-111045934D01*
X102343890Y-110950723D01*
X102343894Y-110950719D01*
X102349666Y-110945789D01*
X102444080Y-110814399D01*
X102504426Y-110664281D01*
X102527223Y-110504102D01*
X102527371Y-110490000D01*
X102507934Y-110329378D01*
X102450744Y-110178030D01*
X102423053Y-110137739D01*
X102363405Y-110050951D01*
X102363404Y-110050949D01*
X102359103Y-110044692D01*
X102351903Y-110038277D01*
X102243974Y-109942115D01*
X102243971Y-109942113D01*
X102238302Y-109937062D01*
X102095315Y-109861354D01*
X102085390Y-109858861D01*
X101945767Y-109823790D01*
X101945763Y-109823790D01*
X101938396Y-109821939D01*
X101930797Y-109821899D01*
X101930795Y-109821899D01*
X101861844Y-109821538D01*
X101776605Y-109821092D01*
X101619282Y-109858861D01*
X101612536Y-109862343D01*
X101612533Y-109862344D01*
X101579312Y-109879491D01*
X101475509Y-109933068D01*
X101353588Y-110039427D01*
X101260556Y-110171798D01*
X101201784Y-110322539D01*
X101200792Y-110330072D01*
X101200792Y-110330073D01*
X101198655Y-110346307D01*
X101180666Y-110482949D01*
X92220230Y-110482949D01*
X92191477Y-110430293D01*
X92196542Y-110359478D01*
X92202331Y-110346307D01*
X92206305Y-110338509D01*
X92259400Y-110234304D01*
X92270285Y-110165582D01*
X92277695Y-110118793D01*
X92279246Y-110109000D01*
X92269061Y-110044692D01*
X92260951Y-109993487D01*
X92260950Y-109993485D01*
X92259400Y-109983696D01*
X92201804Y-109870658D01*
X92112096Y-109780950D01*
X91999058Y-109723354D01*
X91989269Y-109721804D01*
X91989267Y-109721803D01*
X91883547Y-109705059D01*
X91873754Y-109703508D01*
X91863961Y-109705059D01*
X91758241Y-109721803D01*
X91758239Y-109721804D01*
X91748450Y-109723354D01*
X91635412Y-109780950D01*
X91545704Y-109870658D01*
X91488108Y-109983696D01*
X91486558Y-109993485D01*
X91486557Y-109993487D01*
X91478447Y-110044692D01*
X91468262Y-110109000D01*
X91469813Y-110118793D01*
X91477224Y-110165582D01*
X91488108Y-110234304D01*
X91545704Y-110347342D01*
X91558757Y-110360395D01*
X91592783Y-110422707D01*
X91587718Y-110493522D01*
X91581931Y-110506688D01*
X91524860Y-110618696D01*
X91523310Y-110628485D01*
X91523309Y-110628487D01*
X91519760Y-110650897D01*
X91505014Y-110744000D01*
X91506565Y-110753793D01*
X91519765Y-110837132D01*
X91524860Y-110869304D01*
X91582456Y-110982342D01*
X91672164Y-111072050D01*
X91785202Y-111129646D01*
X91794991Y-111131196D01*
X91794993Y-111131197D01*
X91900713Y-111147941D01*
X91910506Y-111149492D01*
X91920299Y-111147941D01*
X91920300Y-111147941D01*
X91992808Y-111136457D01*
X92063219Y-111145557D01*
X92117533Y-111191279D01*
X92138505Y-111259107D01*
X92119478Y-111327506D01*
X92101613Y-111350001D01*
X92056956Y-111394658D01*
X91999360Y-111507696D01*
X91997810Y-111517485D01*
X91997809Y-111517487D01*
X91981065Y-111623207D01*
X91979514Y-111633000D01*
X91999360Y-111758304D01*
X92056956Y-111871342D01*
X92146664Y-111961050D01*
X92259702Y-112018646D01*
X92269493Y-112020197D01*
X92269494Y-112020197D01*
X92277690Y-112021495D01*
X92342965Y-112031833D01*
X92407117Y-112062245D01*
X92444644Y-112122513D01*
X92443631Y-112193502D01*
X92433220Y-112217792D01*
X92413215Y-112253557D01*
X92405826Y-112266766D01*
X92403832Y-112273558D01*
X92393338Y-112309298D01*
X92385824Y-112334887D01*
X92385184Y-112339335D01*
X92385183Y-112339342D01*
X92378139Y-112388335D01*
X92378138Y-112388342D01*
X92377500Y-112392783D01*
X92377500Y-121399212D01*
X92357498Y-121467333D01*
X92303842Y-121513826D01*
X92271210Y-121523661D01*
X92213488Y-121532803D01*
X92213487Y-121532803D01*
X92203696Y-121534354D01*
X92090658Y-121591950D01*
X92000950Y-121681658D01*
X91943354Y-121794696D01*
X91941804Y-121804485D01*
X91941803Y-121804487D01*
X91931698Y-121868292D01*
X91923508Y-121920000D01*
X91925059Y-121929793D01*
X91938007Y-122011541D01*
X91943354Y-122045304D01*
X91965260Y-122088297D01*
X92000950Y-122158342D01*
X91998613Y-122159533D01*
X92017533Y-122212555D01*
X92001773Y-122280338D01*
X92000950Y-122281161D01*
X91997674Y-122287590D01*
X91997673Y-122287592D01*
X91985723Y-122311046D01*
X91943354Y-122394199D01*
X91941804Y-122403988D01*
X91941803Y-122403990D01*
X91927130Y-122496633D01*
X91923508Y-122519503D01*
X91925059Y-122529296D01*
X91941059Y-122630314D01*
X91943354Y-122644807D01*
X91947855Y-122653640D01*
X92000950Y-122757845D01*
X91998613Y-122759036D01*
X92017533Y-122812058D01*
X92001773Y-122879841D01*
X92000950Y-122880664D01*
X91943354Y-122993702D01*
X91923508Y-123119006D01*
X91943354Y-123244310D01*
X91947856Y-123253145D01*
X91947856Y-123253146D01*
X91950688Y-123258705D01*
X91963792Y-123328482D01*
X91937091Y-123394266D01*
X91879064Y-123435172D01*
X91818798Y-123437755D01*
X91818402Y-123440256D01*
X91702891Y-123421961D01*
X91693098Y-123420410D01*
X91683305Y-123421961D01*
X91577585Y-123438705D01*
X91577583Y-123438706D01*
X91567794Y-123440256D01*
X91454756Y-123497852D01*
X91365048Y-123587560D01*
X91307452Y-123700598D01*
X91287606Y-123825902D01*
X91307452Y-123951206D01*
X91365048Y-124064244D01*
X91454756Y-124153952D01*
X91567794Y-124211548D01*
X91577583Y-124213098D01*
X91577585Y-124213099D01*
X91683305Y-124229843D01*
X91693098Y-124231394D01*
X91702891Y-124229843D01*
X91808611Y-124213099D01*
X91808613Y-124213098D01*
X91818402Y-124211548D01*
X91931440Y-124153952D01*
X92021148Y-124064244D01*
X92078744Y-123951206D01*
X92098590Y-123825902D01*
X92078744Y-123700598D01*
X92074242Y-123691762D01*
X92071410Y-123686203D01*
X92058306Y-123616426D01*
X92085007Y-123550642D01*
X92143034Y-123509736D01*
X92203300Y-123507153D01*
X92203696Y-123504652D01*
X92329000Y-123524498D01*
X92338793Y-123522947D01*
X92444513Y-123506203D01*
X92444515Y-123506202D01*
X92454304Y-123504652D01*
X92567342Y-123447056D01*
X92568519Y-123449367D01*
X92621637Y-123430415D01*
X92689390Y-123446170D01*
X92690160Y-123446940D01*
X92696538Y-123450190D01*
X92696540Y-123450191D01*
X92734119Y-123469338D01*
X92803198Y-123504536D01*
X92812987Y-123506086D01*
X92812989Y-123506087D01*
X92918709Y-123522831D01*
X92928502Y-123524382D01*
X92938295Y-123522831D01*
X93044015Y-123506087D01*
X93044017Y-123506086D01*
X93053806Y-123504536D01*
X93166844Y-123446940D01*
X93256552Y-123357232D01*
X93314148Y-123244194D01*
X93333994Y-123118890D01*
X93314148Y-122993586D01*
X93309648Y-122984755D01*
X93309647Y-122984751D01*
X93257470Y-122882350D01*
X93244365Y-122812573D01*
X93265181Y-122757957D01*
X93264848Y-122757787D01*
X93293527Y-122701502D01*
X93342276Y-122649887D01*
X93414336Y-122633130D01*
X93416909Y-122633500D01*
X96312005Y-122633500D01*
X96316126Y-122632952D01*
X96316132Y-122632952D01*
X96361533Y-122626919D01*
X96365665Y-122626370D01*
X96369682Y-122625283D01*
X96369684Y-122625283D01*
X96427669Y-122609598D01*
X96427686Y-122609593D01*
X96429183Y-122609188D01*
X96430655Y-122608709D01*
X96430675Y-122608703D01*
X96440661Y-122605453D01*
X96440663Y-122605452D01*
X96448904Y-122602770D01*
X96465131Y-122591916D01*
X96475259Y-122585141D01*
X96524922Y-122551921D01*
X96573671Y-122500306D01*
X96599659Y-122463442D01*
X96604780Y-122456178D01*
X96604783Y-122456173D01*
X96607373Y-122452499D01*
X96608956Y-122449393D01*
X96627392Y-122425836D01*
X96643839Y-122409389D01*
X96675731Y-122386217D01*
X96680644Y-122383714D01*
X96695210Y-122376292D01*
X96732702Y-122364110D01*
X96754293Y-122360691D01*
X96793707Y-122360691D01*
X96815298Y-122364110D01*
X96852790Y-122376292D01*
X96867357Y-122383714D01*
X96872269Y-122386217D01*
X96904161Y-122409389D01*
X96920515Y-122425743D01*
X96939277Y-122449849D01*
X96940627Y-122452499D01*
X96971340Y-122497072D01*
X97015486Y-122545867D01*
X97030160Y-122560527D01*
X97109978Y-122605174D01*
X97143443Y-122615000D01*
X97173776Y-122623907D01*
X97173780Y-122623908D01*
X97178099Y-122625176D01*
X97182547Y-122625816D01*
X97182554Y-122625817D01*
X97231547Y-122632861D01*
X97231554Y-122632862D01*
X97235995Y-122633500D01*
X98344005Y-122633500D01*
X98348126Y-122632952D01*
X98348132Y-122632952D01*
X98393533Y-122626919D01*
X98397665Y-122626370D01*
X98401682Y-122625283D01*
X98401684Y-122625283D01*
X98459669Y-122609598D01*
X98459686Y-122609593D01*
X98461183Y-122609188D01*
X98462655Y-122608709D01*
X98462675Y-122608703D01*
X98472661Y-122605453D01*
X98472663Y-122605452D01*
X98480904Y-122602770D01*
X98497131Y-122591916D01*
X98507259Y-122585141D01*
X98556922Y-122551921D01*
X98605671Y-122500306D01*
X98631659Y-122463442D01*
X98636780Y-122456178D01*
X98636783Y-122456173D01*
X98639373Y-122452499D01*
X98640956Y-122449393D01*
X98659392Y-122425836D01*
X98675839Y-122409389D01*
X98707731Y-122386217D01*
X98712644Y-122383714D01*
X98727210Y-122376292D01*
X98764702Y-122364110D01*
X98786293Y-122360691D01*
X98825707Y-122360691D01*
X98847298Y-122364110D01*
X98884790Y-122376292D01*
X98899357Y-122383714D01*
X98904269Y-122386217D01*
X98936161Y-122409389D01*
X98952515Y-122425743D01*
X98971277Y-122449849D01*
X98972627Y-122452499D01*
X99003340Y-122497072D01*
X99047486Y-122545867D01*
X99062160Y-122560527D01*
X99141978Y-122605174D01*
X99175443Y-122615000D01*
X99205776Y-122623907D01*
X99205780Y-122623908D01*
X99210099Y-122625176D01*
X99214547Y-122625816D01*
X99214554Y-122625817D01*
X99263547Y-122632861D01*
X99263554Y-122632862D01*
X99267995Y-122633500D01*
X99869024Y-122633500D01*
X99888441Y-122631902D01*
X99900047Y-122630947D01*
X99900053Y-122630946D01*
X99902620Y-122630735D01*
X99943263Y-122624000D01*
X100028069Y-122589227D01*
X100086097Y-122548321D01*
X100087606Y-122547112D01*
X100087616Y-122547105D01*
X100098686Y-122538239D01*
X100105720Y-122532606D01*
X100158109Y-122457642D01*
X100179885Y-122403990D01*
X100184077Y-122393661D01*
X100184079Y-122393656D01*
X100184809Y-122391857D01*
X100192820Y-122368032D01*
X100195891Y-122288846D01*
X100196090Y-122283715D01*
X100196090Y-122283713D01*
X100196364Y-122276645D01*
X100183260Y-122206868D01*
X100164393Y-122151502D01*
X100151292Y-122125790D01*
X100139110Y-122088297D01*
X100135691Y-122066710D01*
X100135691Y-122027290D01*
X100138186Y-122011541D01*
X100139110Y-122005702D01*
X100151292Y-121968210D01*
X100155511Y-121959930D01*
X100161217Y-121948731D01*
X100184389Y-121916839D01*
X100199839Y-121901389D01*
X100231731Y-121878217D01*
X100251210Y-121868292D01*
X100288702Y-121856110D01*
X100310293Y-121852691D01*
X100349707Y-121852691D01*
X100371298Y-121856110D01*
X100408790Y-121868292D01*
X100428269Y-121878217D01*
X100460161Y-121901389D01*
X100475611Y-121916839D01*
X100498783Y-121948732D01*
X100516232Y-121982978D01*
X100523230Y-121999538D01*
X100523274Y-121999666D01*
X100523540Y-122000486D01*
X100527484Y-122011541D01*
X100532703Y-122024948D01*
X100535490Y-122029570D01*
X100535491Y-122029572D01*
X100559788Y-122069866D01*
X100568898Y-122084975D01*
X100615391Y-122138631D01*
X100616740Y-122140008D01*
X100616743Y-122140011D01*
X100626681Y-122150154D01*
X100626684Y-122150156D01*
X100632985Y-122156587D01*
X100712803Y-122201233D01*
X100719594Y-122203227D01*
X100770506Y-122218176D01*
X100770508Y-122218176D01*
X100777206Y-122220143D01*
X100785161Y-122220655D01*
X100787659Y-122221208D01*
X100791044Y-122221806D01*
X100791018Y-122221951D01*
X100805890Y-122225242D01*
X100805853Y-122225478D01*
X100809746Y-122226095D01*
X100809748Y-122226095D01*
X100879297Y-122237110D01*
X100916790Y-122249292D01*
X100931881Y-122256981D01*
X100936269Y-122259217D01*
X100968161Y-122282389D01*
X100985595Y-122299823D01*
X100985956Y-122300171D01*
X100985982Y-122300197D01*
X100990394Y-122304455D01*
X100990873Y-122304917D01*
X100997456Y-122311046D01*
X101052117Y-122347570D01*
X101116697Y-122377064D01*
X101118467Y-122377745D01*
X101118484Y-122377752D01*
X101124984Y-122380251D01*
X101140162Y-122386090D01*
X101149142Y-122386824D01*
X101149145Y-122386825D01*
X101196745Y-122390717D01*
X101231314Y-122393544D01*
X101238317Y-122392537D01*
X101238321Y-122392537D01*
X101299683Y-122383714D01*
X101299686Y-122383713D01*
X101301588Y-122383440D01*
X101326203Y-122378348D01*
X101334155Y-122374111D01*
X101334157Y-122374110D01*
X101380016Y-122349673D01*
X101406916Y-122335339D01*
X101460572Y-122288846D01*
X101478527Y-122271253D01*
X101523174Y-122191435D01*
X101536075Y-122147497D01*
X101541907Y-122127637D01*
X101541908Y-122127633D01*
X101543176Y-122123314D01*
X101543817Y-122118859D01*
X101550861Y-122069866D01*
X101550862Y-122069859D01*
X101551500Y-122065418D01*
X101551500Y-119076500D01*
X101571502Y-119008379D01*
X101625158Y-118961886D01*
X101677500Y-118950500D01*
X105538000Y-118950500D01*
X105541346Y-118950140D01*
X105541351Y-118950140D01*
X105565032Y-118947594D01*
X105634901Y-118960200D01*
X105686862Y-119008579D01*
X105704500Y-119072872D01*
X105704500Y-119512536D01*
X105684498Y-119580657D01*
X105630842Y-119627150D01*
X105560568Y-119637254D01*
X105542614Y-119633078D01*
X105535304Y-119629354D01*
X105410000Y-119609508D01*
X105400207Y-119611059D01*
X105294487Y-119627803D01*
X105294485Y-119627804D01*
X105284696Y-119629354D01*
X105171658Y-119686950D01*
X105118095Y-119740513D01*
X105055783Y-119774539D01*
X104984968Y-119769474D01*
X104939905Y-119740513D01*
X104886342Y-119686950D01*
X104773304Y-119629354D01*
X104763515Y-119627804D01*
X104763513Y-119627803D01*
X104657793Y-119611059D01*
X104648000Y-119609508D01*
X104638207Y-119611059D01*
X104532487Y-119627803D01*
X104532485Y-119627804D01*
X104522696Y-119629354D01*
X104409658Y-119686950D01*
X104356095Y-119740513D01*
X104293783Y-119774539D01*
X104222968Y-119769474D01*
X104177905Y-119740513D01*
X104124342Y-119686950D01*
X104011304Y-119629354D01*
X104001515Y-119627804D01*
X104001513Y-119627803D01*
X103895793Y-119611059D01*
X103886000Y-119609508D01*
X103876207Y-119611059D01*
X103770487Y-119627803D01*
X103770485Y-119627804D01*
X103760696Y-119629354D01*
X103647658Y-119686950D01*
X103594095Y-119740513D01*
X103531783Y-119774539D01*
X103460968Y-119769474D01*
X103415905Y-119740513D01*
X103362342Y-119686950D01*
X103249304Y-119629354D01*
X103239515Y-119627804D01*
X103239513Y-119627803D01*
X103133793Y-119611059D01*
X103124000Y-119609508D01*
X103114207Y-119611059D01*
X103008487Y-119627803D01*
X103008485Y-119627804D01*
X102998696Y-119629354D01*
X102885658Y-119686950D01*
X102795950Y-119776658D01*
X102738354Y-119889696D01*
X102736804Y-119899485D01*
X102736803Y-119899487D01*
X102723513Y-119983400D01*
X102718508Y-120015000D01*
X102720059Y-120024793D01*
X102730015Y-120087650D01*
X102738354Y-120140304D01*
X102795950Y-120253342D01*
X102885658Y-120343050D01*
X102998696Y-120400646D01*
X103008485Y-120402196D01*
X103008487Y-120402197D01*
X103114207Y-120418941D01*
X103124000Y-120420492D01*
X103133793Y-120418941D01*
X103239513Y-120402197D01*
X103239515Y-120402196D01*
X103249304Y-120400646D01*
X103362342Y-120343050D01*
X103415905Y-120289487D01*
X103478217Y-120255461D01*
X103549032Y-120260526D01*
X103594095Y-120289487D01*
X103647658Y-120343050D01*
X103760696Y-120400646D01*
X103770487Y-120402197D01*
X103770491Y-120402198D01*
X103773123Y-120402615D01*
X103776060Y-120404008D01*
X103779921Y-120405262D01*
X103779759Y-120405761D01*
X103837275Y-120433029D01*
X103874800Y-120493298D01*
X103877857Y-120546773D01*
X103861508Y-120650000D01*
X103881354Y-120775304D01*
X103938950Y-120888342D01*
X104028658Y-120978050D01*
X104141696Y-121035646D01*
X104151485Y-121037196D01*
X104151487Y-121037197D01*
X104257207Y-121053941D01*
X104267000Y-121055492D01*
X104276793Y-121053941D01*
X104382513Y-121037197D01*
X104382515Y-121037196D01*
X104392304Y-121035646D01*
X104505342Y-120978050D01*
X104558905Y-120924487D01*
X104621217Y-120890461D01*
X104692032Y-120895526D01*
X104737095Y-120924487D01*
X104790658Y-120978050D01*
X104903696Y-121035646D01*
X104913485Y-121037196D01*
X104913487Y-121037197D01*
X105019207Y-121053941D01*
X105029000Y-121055492D01*
X105038793Y-121053941D01*
X105144513Y-121037197D01*
X105144515Y-121037196D01*
X105154304Y-121035646D01*
X105267342Y-120978050D01*
X105357050Y-120888342D01*
X105414646Y-120775304D01*
X105434492Y-120650000D01*
X105418143Y-120546773D01*
X105427243Y-120476362D01*
X105472965Y-120422048D01*
X105522877Y-120402615D01*
X105525506Y-120402198D01*
X105525507Y-120402198D01*
X105535304Y-120400646D01*
X105541320Y-120397581D01*
X105610530Y-120395603D01*
X105671329Y-120432265D01*
X105702654Y-120495977D01*
X105704500Y-120517464D01*
X105704500Y-124514220D01*
X105684498Y-124582341D01*
X105630842Y-124628834D01*
X105577791Y-124640218D01*
X100877230Y-124613720D01*
X100874292Y-124613183D01*
X100874278Y-124613657D01*
X100870729Y-124613555D01*
X100870654Y-124613500D01*
X100838616Y-124613500D01*
X100837906Y-124613498D01*
X100837969Y-124613498D01*
X100822650Y-124613412D01*
X100822374Y-124613500D01*
X100805346Y-124613500D01*
X100792040Y-124623167D01*
X100776371Y-124628161D01*
X100766285Y-124641880D01*
X100752510Y-124651888D01*
X100747428Y-124667529D01*
X100737686Y-124680780D01*
X100737590Y-124697806D01*
X100737500Y-124698083D01*
X100737500Y-124713433D01*
X100737498Y-124714143D01*
X100737318Y-124746087D01*
X100732496Y-124746060D01*
X100732495Y-124746340D01*
X100737500Y-124746340D01*
X100737500Y-129567500D01*
X100717498Y-129635621D01*
X100663842Y-129682114D01*
X100611500Y-129693500D01*
X95730500Y-129693500D01*
X95662379Y-129673498D01*
X95615886Y-129619842D01*
X95604500Y-129567500D01*
X95604500Y-124746323D01*
X95608226Y-124746323D01*
X95608185Y-124746035D01*
X95604692Y-124746056D01*
X95604502Y-124714158D01*
X95604500Y-124713407D01*
X95604500Y-124698083D01*
X95604405Y-124697789D01*
X95604303Y-124680748D01*
X95594568Y-124667515D01*
X95589490Y-124651888D01*
X95575701Y-124641869D01*
X95565601Y-124628141D01*
X95549946Y-124623157D01*
X95536654Y-124613500D01*
X95519609Y-124613500D01*
X95519317Y-124613407D01*
X95517596Y-124613417D01*
X95504046Y-124613498D01*
X95503295Y-124613500D01*
X95471346Y-124613500D01*
X95471346Y-124608745D01*
X95471049Y-124608753D01*
X95471078Y-124613694D01*
X91032250Y-124640145D01*
X90964012Y-124620549D01*
X90917200Y-124567171D01*
X90905500Y-124514147D01*
X90905500Y-109466949D01*
X96100666Y-109466949D01*
X96100814Y-109468289D01*
X96118420Y-109627765D01*
X96174022Y-109779704D01*
X96178258Y-109786007D01*
X96178258Y-109786008D01*
X96231277Y-109864908D01*
X96264261Y-109913994D01*
X96269880Y-109919107D01*
X96269881Y-109919108D01*
X96331155Y-109974863D01*
X96383929Y-110022883D01*
X96424096Y-110044692D01*
X96519439Y-110096460D01*
X96519441Y-110096461D01*
X96526116Y-110100085D01*
X96533465Y-110102013D01*
X96675263Y-110139213D01*
X96675265Y-110139213D01*
X96682613Y-110141141D01*
X96765069Y-110142436D01*
X96836787Y-110143563D01*
X96836790Y-110143563D01*
X96844386Y-110143682D01*
X96851791Y-110141986D01*
X96851792Y-110141986D01*
X96953058Y-110118793D01*
X97002096Y-110107562D01*
X97146638Y-110034865D01*
X97152410Y-110029936D01*
X97152412Y-110029934D01*
X97263890Y-109934723D01*
X97263894Y-109934719D01*
X97269666Y-109929789D01*
X97364080Y-109798399D01*
X97424426Y-109648281D01*
X97447223Y-109488102D01*
X97447371Y-109474000D01*
X97427934Y-109313378D01*
X97392649Y-109220000D01*
X99416508Y-109220000D01*
X99418059Y-109229793D01*
X99432492Y-109320918D01*
X99436354Y-109345304D01*
X99493950Y-109458342D01*
X99583658Y-109548050D01*
X99696696Y-109605646D01*
X99706485Y-109607196D01*
X99706487Y-109607197D01*
X99812207Y-109623941D01*
X99822000Y-109625492D01*
X99831793Y-109623941D01*
X99937513Y-109607197D01*
X99937515Y-109607196D01*
X99947304Y-109605646D01*
X100060342Y-109548050D01*
X100150050Y-109458342D01*
X100207646Y-109345304D01*
X100211509Y-109320918D01*
X100225941Y-109229793D01*
X100227492Y-109220000D01*
X100217324Y-109155798D01*
X100209197Y-109104487D01*
X100209196Y-109104485D01*
X100207646Y-109094696D01*
X100150050Y-108981658D01*
X100060342Y-108891950D01*
X99947304Y-108834354D01*
X99937515Y-108832804D01*
X99937513Y-108832803D01*
X99831793Y-108816059D01*
X99822000Y-108814508D01*
X99812207Y-108816059D01*
X99706487Y-108832803D01*
X99706485Y-108832804D01*
X99696696Y-108834354D01*
X99583658Y-108891950D01*
X99493950Y-108981658D01*
X99436354Y-109094696D01*
X99434804Y-109104485D01*
X99434803Y-109104487D01*
X99426676Y-109155798D01*
X99416508Y-109220000D01*
X97392649Y-109220000D01*
X97370744Y-109162030D01*
X97343053Y-109121739D01*
X97283405Y-109034951D01*
X97283404Y-109034949D01*
X97279103Y-109028692D01*
X97267591Y-109018435D01*
X97163974Y-108926115D01*
X97163971Y-108926113D01*
X97158302Y-108921062D01*
X97015315Y-108845354D01*
X97005390Y-108842861D01*
X96865767Y-108807790D01*
X96865763Y-108807790D01*
X96858396Y-108805939D01*
X96850797Y-108805899D01*
X96850795Y-108805899D01*
X96781844Y-108805538D01*
X96696605Y-108805092D01*
X96539282Y-108842861D01*
X96532536Y-108846343D01*
X96532533Y-108846344D01*
X96462094Y-108882701D01*
X96395509Y-108917068D01*
X96273588Y-109023427D01*
X96180556Y-109155798D01*
X96121784Y-109306539D01*
X96120792Y-109314072D01*
X96120792Y-109314073D01*
X96117731Y-109337328D01*
X96100666Y-109466949D01*
X90905500Y-109466949D01*
X90905500Y-107602500D01*
X91796508Y-107602500D01*
X91816354Y-107727804D01*
X91873950Y-107840842D01*
X91963658Y-107930550D01*
X92076696Y-107988146D01*
X92086485Y-107989696D01*
X92086487Y-107989697D01*
X92192207Y-108006441D01*
X92202000Y-108007992D01*
X92211793Y-108006441D01*
X92317513Y-107989697D01*
X92317515Y-107989696D01*
X92327304Y-107988146D01*
X92440342Y-107930550D01*
X92530050Y-107840842D01*
X92539141Y-107823000D01*
X94590508Y-107823000D01*
X94592059Y-107832793D01*
X94606946Y-107926784D01*
X94610354Y-107948304D01*
X94667950Y-108061342D01*
X94757658Y-108151050D01*
X94870696Y-108208646D01*
X94880487Y-108210197D01*
X94885994Y-108211986D01*
X94944600Y-108252059D01*
X94972238Y-108317455D01*
X94972613Y-108324021D01*
X94971508Y-108331000D01*
X94991354Y-108456304D01*
X95048950Y-108569342D01*
X95138658Y-108659050D01*
X95251696Y-108716646D01*
X95261485Y-108718196D01*
X95261487Y-108718197D01*
X95367207Y-108734941D01*
X95377000Y-108736492D01*
X95386793Y-108734941D01*
X95492513Y-108718197D01*
X95492515Y-108718196D01*
X95502304Y-108716646D01*
X95615342Y-108659050D01*
X95705050Y-108569342D01*
X95762646Y-108456304D01*
X95782492Y-108331000D01*
X95772988Y-108270992D01*
X95764197Y-108215487D01*
X95764196Y-108215485D01*
X95762646Y-108205696D01*
X95705050Y-108092658D01*
X95615342Y-108002950D01*
X95502304Y-107945354D01*
X95492513Y-107943803D01*
X95487006Y-107942014D01*
X95428400Y-107901941D01*
X95412999Y-107865500D01*
X100559508Y-107865500D01*
X100561059Y-107875293D01*
X100572156Y-107945354D01*
X100579354Y-107990804D01*
X100636950Y-108103842D01*
X100726658Y-108193550D01*
X100839696Y-108251146D01*
X100849485Y-108252696D01*
X100849487Y-108252697D01*
X100955207Y-108269441D01*
X100965000Y-108270992D01*
X100974793Y-108269441D01*
X101080513Y-108252697D01*
X101080515Y-108252696D01*
X101090304Y-108251146D01*
X101203342Y-108193550D01*
X101260917Y-108135975D01*
X102076246Y-108135975D01*
X102077797Y-108145768D01*
X102087289Y-108205696D01*
X102096092Y-108261279D01*
X102153688Y-108374317D01*
X102243396Y-108464025D01*
X102356434Y-108521621D01*
X102366223Y-108523171D01*
X102366225Y-108523172D01*
X102471945Y-108539916D01*
X102481738Y-108541467D01*
X102491531Y-108539916D01*
X102597251Y-108523172D01*
X102597253Y-108523171D01*
X102607042Y-108521621D01*
X102720080Y-108464025D01*
X102809788Y-108374317D01*
X102867384Y-108261279D01*
X102876188Y-108205696D01*
X102885679Y-108145768D01*
X102887230Y-108135975D01*
X102876520Y-108068353D01*
X102868935Y-108020462D01*
X102868934Y-108020460D01*
X102867384Y-108010671D01*
X102809788Y-107897633D01*
X102720080Y-107807925D01*
X102607042Y-107750329D01*
X102597253Y-107748779D01*
X102597251Y-107748778D01*
X102491531Y-107732034D01*
X102481738Y-107730483D01*
X102471945Y-107732034D01*
X102366225Y-107748778D01*
X102366223Y-107748779D01*
X102356434Y-107750329D01*
X102243396Y-107807925D01*
X102153688Y-107897633D01*
X102096092Y-108010671D01*
X102094542Y-108020460D01*
X102094541Y-108020462D01*
X102086956Y-108068353D01*
X102076246Y-108135975D01*
X101260917Y-108135975D01*
X101293050Y-108103842D01*
X101350646Y-107990804D01*
X101357845Y-107945354D01*
X101368941Y-107875293D01*
X101370492Y-107865500D01*
X101361373Y-107807925D01*
X101352197Y-107749987D01*
X101352196Y-107749985D01*
X101350646Y-107740196D01*
X101293050Y-107627158D01*
X101203342Y-107537450D01*
X101090304Y-107479854D01*
X101080515Y-107478304D01*
X101080513Y-107478303D01*
X100974793Y-107461559D01*
X100965000Y-107460008D01*
X100955207Y-107461559D01*
X100849487Y-107478303D01*
X100849485Y-107478304D01*
X100839696Y-107479854D01*
X100726658Y-107537450D01*
X100636950Y-107627158D01*
X100579354Y-107740196D01*
X100577804Y-107749985D01*
X100577803Y-107749987D01*
X100568627Y-107807925D01*
X100559508Y-107865500D01*
X95412999Y-107865500D01*
X95400762Y-107836545D01*
X95400387Y-107829979D01*
X95401492Y-107823000D01*
X95381646Y-107697696D01*
X95324050Y-107584658D01*
X95234342Y-107494950D01*
X95121304Y-107437354D01*
X95111515Y-107435804D01*
X95111513Y-107435803D01*
X95005793Y-107419059D01*
X94996000Y-107417508D01*
X94986207Y-107419059D01*
X94880487Y-107435803D01*
X94880485Y-107435804D01*
X94870696Y-107437354D01*
X94757658Y-107494950D01*
X94667950Y-107584658D01*
X94610354Y-107697696D01*
X94590508Y-107823000D01*
X92539141Y-107823000D01*
X92587646Y-107727804D01*
X92607492Y-107602500D01*
X92597189Y-107537450D01*
X92589197Y-107486987D01*
X92589196Y-107486985D01*
X92587646Y-107477196D01*
X92530050Y-107364158D01*
X92440342Y-107274450D01*
X92327304Y-107216854D01*
X92317515Y-107215304D01*
X92317513Y-107215303D01*
X92211793Y-107198559D01*
X92202000Y-107197008D01*
X92192207Y-107198559D01*
X92086487Y-107215303D01*
X92086485Y-107215304D01*
X92076696Y-107216854D01*
X91963658Y-107274450D01*
X91873950Y-107364158D01*
X91816354Y-107477196D01*
X91814804Y-107486985D01*
X91814803Y-107486987D01*
X91806811Y-107537450D01*
X91796508Y-107602500D01*
X90905500Y-107602500D01*
X90905500Y-103874490D01*
X98412018Y-103874490D01*
X98431864Y-103999794D01*
X98489460Y-104112832D01*
X98579168Y-104202540D01*
X98692206Y-104260136D01*
X98701995Y-104261686D01*
X98701997Y-104261687D01*
X98807717Y-104278431D01*
X98817510Y-104279982D01*
X98827303Y-104278431D01*
X98933023Y-104261687D01*
X98933025Y-104261686D01*
X98942814Y-104260136D01*
X99055852Y-104202540D01*
X99145560Y-104112832D01*
X99203156Y-103999794D01*
X99223002Y-103874490D01*
X99203156Y-103749186D01*
X99145560Y-103636148D01*
X99141412Y-103632000D01*
X102972508Y-103632000D01*
X102992354Y-103757304D01*
X103049950Y-103870342D01*
X103139658Y-103960050D01*
X103252696Y-104017646D01*
X103262485Y-104019196D01*
X103262487Y-104019197D01*
X103368207Y-104035941D01*
X103378000Y-104037492D01*
X103387793Y-104035941D01*
X103493513Y-104019197D01*
X103493515Y-104019196D01*
X103503304Y-104017646D01*
X103616342Y-103960050D01*
X103706050Y-103870342D01*
X103763646Y-103757304D01*
X103783492Y-103632000D01*
X103763646Y-103506696D01*
X103706050Y-103393658D01*
X103616342Y-103303950D01*
X103503304Y-103246354D01*
X103493515Y-103244804D01*
X103493513Y-103244803D01*
X103387793Y-103228059D01*
X103378000Y-103226508D01*
X103368207Y-103228059D01*
X103262487Y-103244803D01*
X103262485Y-103244804D01*
X103252696Y-103246354D01*
X103139658Y-103303950D01*
X103049950Y-103393658D01*
X102992354Y-103506696D01*
X102972508Y-103632000D01*
X99141412Y-103632000D01*
X99055852Y-103546440D01*
X98942814Y-103488844D01*
X98933025Y-103487294D01*
X98933023Y-103487293D01*
X98827303Y-103470549D01*
X98817510Y-103468998D01*
X98807717Y-103470549D01*
X98701997Y-103487293D01*
X98701995Y-103487294D01*
X98692206Y-103488844D01*
X98579168Y-103546440D01*
X98489460Y-103636148D01*
X98431864Y-103749186D01*
X98412018Y-103874490D01*
X90905500Y-103874490D01*
X90905500Y-102870000D01*
X95352508Y-102870000D01*
X95372354Y-102995304D01*
X95429950Y-103108342D01*
X95519658Y-103198050D01*
X95632696Y-103255646D01*
X95642485Y-103257196D01*
X95642487Y-103257197D01*
X95748207Y-103273941D01*
X95758000Y-103275492D01*
X95767793Y-103273941D01*
X95873513Y-103257197D01*
X95873515Y-103257196D01*
X95883304Y-103255646D01*
X95996342Y-103198050D01*
X96086050Y-103108342D01*
X96143646Y-102995304D01*
X96163492Y-102870000D01*
X96143646Y-102744696D01*
X96086050Y-102631658D01*
X95996342Y-102541950D01*
X95883304Y-102484354D01*
X95873511Y-102482803D01*
X95870526Y-102481833D01*
X95811921Y-102441759D01*
X95784284Y-102376362D01*
X95796391Y-102306406D01*
X95844398Y-102254100D01*
X95870526Y-102242167D01*
X95873511Y-102241197D01*
X95883304Y-102239646D01*
X95996342Y-102182050D01*
X96086050Y-102092342D01*
X96143646Y-101979304D01*
X96163492Y-101854000D01*
X96161941Y-101844207D01*
X96145197Y-101738487D01*
X96145196Y-101738485D01*
X96143646Y-101728696D01*
X96086050Y-101615658D01*
X95996342Y-101525950D01*
X95883304Y-101468354D01*
X95873515Y-101466804D01*
X95873513Y-101466803D01*
X95767793Y-101450059D01*
X95758000Y-101448508D01*
X95748207Y-101450059D01*
X95642487Y-101466803D01*
X95642485Y-101466804D01*
X95632696Y-101468354D01*
X95519658Y-101525950D01*
X95429950Y-101615658D01*
X95372354Y-101728696D01*
X95370804Y-101738485D01*
X95370803Y-101738487D01*
X95354059Y-101844207D01*
X95352508Y-101854000D01*
X95372354Y-101979304D01*
X95429950Y-102092342D01*
X95519658Y-102182050D01*
X95632696Y-102239646D01*
X95642489Y-102241197D01*
X95645474Y-102242167D01*
X95704079Y-102282241D01*
X95731716Y-102347638D01*
X95719609Y-102417594D01*
X95671602Y-102469900D01*
X95645474Y-102481833D01*
X95642489Y-102482803D01*
X95632696Y-102484354D01*
X95519658Y-102541950D01*
X95429950Y-102631658D01*
X95372354Y-102744696D01*
X95352508Y-102870000D01*
X90905500Y-102870000D01*
X90905500Y-101092000D01*
X98781508Y-101092000D01*
X98801354Y-101217304D01*
X98858950Y-101330342D01*
X98948658Y-101420050D01*
X99061696Y-101477646D01*
X99071485Y-101479196D01*
X99071487Y-101479197D01*
X99177207Y-101495941D01*
X99187000Y-101497492D01*
X99196793Y-101495941D01*
X99302513Y-101479197D01*
X99302515Y-101479196D01*
X99312304Y-101477646D01*
X99425342Y-101420050D01*
X99472252Y-101373140D01*
X99534564Y-101339114D01*
X99605379Y-101344179D01*
X99662215Y-101386726D01*
X99685796Y-101442526D01*
X99686989Y-101450059D01*
X99690354Y-101471304D01*
X99747950Y-101584342D01*
X99753860Y-101590252D01*
X99777429Y-101656304D01*
X99761350Y-101725456D01*
X99754511Y-101736097D01*
X99747950Y-101742658D01*
X99690354Y-101855696D01*
X99670508Y-101981000D01*
X99672059Y-101990793D01*
X99688143Y-102092342D01*
X99690354Y-102106304D01*
X99747950Y-102219342D01*
X99837658Y-102309050D01*
X99950696Y-102366646D01*
X99960485Y-102368196D01*
X99960487Y-102368197D01*
X100066207Y-102384941D01*
X100076000Y-102386492D01*
X100085793Y-102384941D01*
X100191513Y-102368197D01*
X100191515Y-102368196D01*
X100201304Y-102366646D01*
X100314342Y-102309050D01*
X100404050Y-102219342D01*
X100461646Y-102106304D01*
X100463858Y-102092342D01*
X100479941Y-101990793D01*
X100481492Y-101981000D01*
X100461646Y-101855696D01*
X100460782Y-101854000D01*
X101067508Y-101854000D01*
X101087354Y-101979304D01*
X101144950Y-102092342D01*
X101217788Y-102165180D01*
X101251814Y-102227492D01*
X101246749Y-102298307D01*
X101240960Y-102311477D01*
X101222536Y-102347638D01*
X101214354Y-102363696D01*
X101212804Y-102373485D01*
X101212803Y-102373487D01*
X101205817Y-102417594D01*
X101194508Y-102489000D01*
X101214354Y-102614304D01*
X101271950Y-102727342D01*
X101361658Y-102817050D01*
X101474696Y-102874646D01*
X101484485Y-102876196D01*
X101484487Y-102876197D01*
X101590207Y-102892941D01*
X101600000Y-102894492D01*
X101609793Y-102892941D01*
X101715513Y-102876197D01*
X101715515Y-102876196D01*
X101725304Y-102874646D01*
X101838342Y-102817050D01*
X101928050Y-102727342D01*
X101985646Y-102614304D01*
X102005492Y-102489000D01*
X101994183Y-102417594D01*
X101987197Y-102373487D01*
X101987196Y-102373485D01*
X101985646Y-102363696D01*
X101928050Y-102250658D01*
X101855212Y-102177820D01*
X101821186Y-102115508D01*
X101826251Y-102044693D01*
X101832040Y-102031523D01*
X101854144Y-101988140D01*
X101854145Y-101988137D01*
X101858646Y-101979304D01*
X101878492Y-101854000D01*
X101876941Y-101844207D01*
X101860197Y-101738487D01*
X101860196Y-101738485D01*
X101858646Y-101728696D01*
X101822218Y-101657202D01*
X101809114Y-101587427D01*
X101822218Y-101542797D01*
X101845302Y-101497492D01*
X101858646Y-101471304D01*
X101862257Y-101448508D01*
X101876941Y-101355793D01*
X101878492Y-101346000D01*
X101858646Y-101220696D01*
X101828685Y-101161894D01*
X104650857Y-101161894D01*
X104670703Y-101287198D01*
X104728299Y-101400236D01*
X104818007Y-101489944D01*
X104931045Y-101547540D01*
X104940834Y-101549090D01*
X104940836Y-101549091D01*
X105046556Y-101565835D01*
X105056349Y-101567386D01*
X105066142Y-101565835D01*
X105171862Y-101549091D01*
X105171864Y-101549090D01*
X105181653Y-101547540D01*
X105294691Y-101489944D01*
X105384399Y-101400236D01*
X105441995Y-101287198D01*
X105454051Y-101211079D01*
X105478089Y-101160371D01*
X105457604Y-101128496D01*
X105454051Y-101112709D01*
X105443546Y-101046381D01*
X105443545Y-101046379D01*
X105441995Y-101036590D01*
X105384399Y-100923552D01*
X105294691Y-100833844D01*
X105181653Y-100776248D01*
X105171864Y-100774698D01*
X105171862Y-100774697D01*
X105066142Y-100757953D01*
X105056349Y-100756402D01*
X105046556Y-100757953D01*
X104940836Y-100774697D01*
X104940834Y-100774698D01*
X104931045Y-100776248D01*
X104818007Y-100833844D01*
X104728299Y-100923552D01*
X104670703Y-101036590D01*
X104650857Y-101161894D01*
X101828685Y-101161894D01*
X101801050Y-101107658D01*
X101711342Y-101017950D01*
X101598304Y-100960354D01*
X101588515Y-100958804D01*
X101588513Y-100958803D01*
X101482793Y-100942059D01*
X101473000Y-100940508D01*
X101463207Y-100942059D01*
X101357487Y-100958803D01*
X101357485Y-100958804D01*
X101347696Y-100960354D01*
X101234658Y-101017950D01*
X101144950Y-101107658D01*
X101087354Y-101220696D01*
X101067508Y-101346000D01*
X101069059Y-101355793D01*
X101083744Y-101448508D01*
X101087354Y-101471304D01*
X101100698Y-101497492D01*
X101123782Y-101542797D01*
X101136886Y-101612573D01*
X101123782Y-101657201D01*
X101087354Y-101728696D01*
X101085804Y-101738485D01*
X101085803Y-101738487D01*
X101069059Y-101844207D01*
X101067508Y-101854000D01*
X100460782Y-101854000D01*
X100404050Y-101742658D01*
X100398140Y-101736748D01*
X100374571Y-101670696D01*
X100390650Y-101601544D01*
X100397489Y-101590903D01*
X100404050Y-101584342D01*
X100461646Y-101471304D01*
X100465257Y-101448508D01*
X100479941Y-101355793D01*
X100481492Y-101346000D01*
X100461646Y-101220696D01*
X100404050Y-101107658D01*
X100398140Y-101101748D01*
X100374571Y-101035696D01*
X100390650Y-100966544D01*
X100397489Y-100955903D01*
X100404050Y-100949342D01*
X100461646Y-100836304D01*
X100464056Y-100821091D01*
X100479941Y-100720793D01*
X100481492Y-100711000D01*
X100477613Y-100686508D01*
X100463197Y-100595487D01*
X100463196Y-100595485D01*
X100461646Y-100585696D01*
X100404050Y-100472658D01*
X100398140Y-100466748D01*
X100374571Y-100400696D01*
X100390650Y-100331544D01*
X100397489Y-100320903D01*
X100404050Y-100314342D01*
X100461646Y-100201304D01*
X100481492Y-100076000D01*
X100479941Y-100066207D01*
X100463197Y-99960487D01*
X100463196Y-99960485D01*
X100461646Y-99950696D01*
X100404050Y-99837658D01*
X100398140Y-99831748D01*
X100374571Y-99765696D01*
X100390650Y-99696544D01*
X100397489Y-99685903D01*
X100404050Y-99679342D01*
X100461646Y-99566304D01*
X100481492Y-99441000D01*
X100461646Y-99315696D01*
X100404050Y-99202658D01*
X100398140Y-99196748D01*
X100374571Y-99130696D01*
X100390650Y-99061544D01*
X100397489Y-99050903D01*
X100404050Y-99044342D01*
X100461646Y-98931304D01*
X100481492Y-98806000D01*
X100461646Y-98680696D01*
X100404050Y-98567658D01*
X100398140Y-98561748D01*
X100374571Y-98495696D01*
X100390650Y-98426544D01*
X100397489Y-98415903D01*
X100404050Y-98409342D01*
X100461646Y-98296304D01*
X100481492Y-98171000D01*
X100479941Y-98161207D01*
X100463197Y-98055487D01*
X100463196Y-98055485D01*
X100461646Y-98045696D01*
X100404050Y-97932658D01*
X100314342Y-97842950D01*
X100201304Y-97785354D01*
X100191515Y-97783804D01*
X100191513Y-97783803D01*
X100085793Y-97767059D01*
X100076000Y-97765508D01*
X100066207Y-97767059D01*
X99960487Y-97783803D01*
X99960485Y-97783804D01*
X99950696Y-97785354D01*
X99837658Y-97842950D01*
X99747950Y-97932658D01*
X99690354Y-98045696D01*
X99688804Y-98055485D01*
X99688803Y-98055487D01*
X99672059Y-98161207D01*
X99670508Y-98171000D01*
X99690354Y-98296304D01*
X99747950Y-98409342D01*
X99753860Y-98415252D01*
X99777429Y-98481304D01*
X99761350Y-98550456D01*
X99754511Y-98561097D01*
X99747950Y-98567658D01*
X99690354Y-98680696D01*
X99670508Y-98806000D01*
X99690354Y-98931304D01*
X99747950Y-99044342D01*
X99753860Y-99050252D01*
X99777429Y-99116304D01*
X99761350Y-99185456D01*
X99754511Y-99196097D01*
X99747950Y-99202658D01*
X99690354Y-99315696D01*
X99670508Y-99441000D01*
X99690354Y-99566304D01*
X99747950Y-99679342D01*
X99753860Y-99685252D01*
X99777429Y-99751304D01*
X99761350Y-99820456D01*
X99754511Y-99831097D01*
X99747950Y-99837658D01*
X99690354Y-99950696D01*
X99688804Y-99960485D01*
X99688803Y-99960487D01*
X99672059Y-100066207D01*
X99670508Y-100076000D01*
X99690354Y-100201304D01*
X99747950Y-100314342D01*
X99753860Y-100320252D01*
X99777429Y-100386304D01*
X99761350Y-100455456D01*
X99754511Y-100466097D01*
X99747950Y-100472658D01*
X99690354Y-100585696D01*
X99688804Y-100595485D01*
X99688803Y-100595487D01*
X99674387Y-100686508D01*
X99670508Y-100711000D01*
X99670586Y-100711493D01*
X99652057Y-100774598D01*
X99598401Y-100821091D01*
X99528127Y-100831195D01*
X99463547Y-100801701D01*
X99456964Y-100795572D01*
X99425342Y-100763950D01*
X99312304Y-100706354D01*
X99302515Y-100704804D01*
X99302513Y-100704803D01*
X99196793Y-100688059D01*
X99187000Y-100686508D01*
X99177207Y-100688059D01*
X99071487Y-100704803D01*
X99071485Y-100704804D01*
X99061696Y-100706354D01*
X98948658Y-100763950D01*
X98858950Y-100853658D01*
X98801354Y-100966696D01*
X98799804Y-100976485D01*
X98799803Y-100976487D01*
X98790284Y-101036590D01*
X98781508Y-101092000D01*
X90905500Y-101092000D01*
X90905500Y-100203000D01*
X92558508Y-100203000D01*
X92560059Y-100212793D01*
X92576143Y-100314342D01*
X92578354Y-100328304D01*
X92635950Y-100441342D01*
X92725658Y-100531050D01*
X92838696Y-100588646D01*
X92848485Y-100590196D01*
X92848487Y-100590197D01*
X92954207Y-100606941D01*
X92964000Y-100608492D01*
X92973793Y-100606941D01*
X93079513Y-100590197D01*
X93079515Y-100590196D01*
X93089304Y-100588646D01*
X93202342Y-100531050D01*
X93292050Y-100441342D01*
X93349646Y-100328304D01*
X93351858Y-100314342D01*
X93367941Y-100212793D01*
X93369492Y-100203000D01*
X93349646Y-100077696D01*
X93292050Y-99964658D01*
X93202342Y-99874950D01*
X93089304Y-99817354D01*
X93079515Y-99815804D01*
X93079513Y-99815803D01*
X92973793Y-99799059D01*
X92964000Y-99797508D01*
X92954207Y-99799059D01*
X92848487Y-99815803D01*
X92848485Y-99815804D01*
X92838696Y-99817354D01*
X92725658Y-99874950D01*
X92635950Y-99964658D01*
X92578354Y-100077696D01*
X92558508Y-100203000D01*
X90905500Y-100203000D01*
X90905500Y-97663000D01*
X97892508Y-97663000D01*
X97894059Y-97672793D01*
X97908744Y-97765508D01*
X97912354Y-97788304D01*
X97969950Y-97901342D01*
X98059658Y-97991050D01*
X98172696Y-98048646D01*
X98182485Y-98050196D01*
X98182487Y-98050197D01*
X98288207Y-98066941D01*
X98298000Y-98068492D01*
X98307793Y-98066941D01*
X98413513Y-98050197D01*
X98413515Y-98050196D01*
X98423304Y-98048646D01*
X98536342Y-97991050D01*
X98626050Y-97901342D01*
X98683646Y-97788304D01*
X98687257Y-97765508D01*
X98701941Y-97672793D01*
X98703492Y-97663000D01*
X98683646Y-97537696D01*
X98626050Y-97424658D01*
X98536342Y-97334950D01*
X98423304Y-97277354D01*
X98413515Y-97275804D01*
X98413513Y-97275803D01*
X98307793Y-97259059D01*
X98298000Y-97257508D01*
X98288207Y-97259059D01*
X98182487Y-97275803D01*
X98182485Y-97275804D01*
X98172696Y-97277354D01*
X98059658Y-97334950D01*
X97969950Y-97424658D01*
X97912354Y-97537696D01*
X97892508Y-97663000D01*
X90905500Y-97663000D01*
X90905500Y-96520000D01*
X93193508Y-96520000D01*
X93213354Y-96645304D01*
X93270950Y-96758342D01*
X93360658Y-96848050D01*
X93473696Y-96905646D01*
X93483485Y-96907196D01*
X93483487Y-96907197D01*
X93589207Y-96923941D01*
X93599000Y-96925492D01*
X93608793Y-96923941D01*
X93714513Y-96907197D01*
X93714515Y-96907196D01*
X93724304Y-96905646D01*
X93837342Y-96848050D01*
X93927050Y-96758342D01*
X93984646Y-96645304D01*
X94004492Y-96520000D01*
X98654508Y-96520000D01*
X98674354Y-96645304D01*
X98731950Y-96758342D01*
X98821658Y-96848050D01*
X98934696Y-96905646D01*
X98944485Y-96907196D01*
X98944487Y-96907197D01*
X99050207Y-96923941D01*
X99060000Y-96925492D01*
X99069793Y-96923941D01*
X99175513Y-96907197D01*
X99175515Y-96907196D01*
X99185304Y-96905646D01*
X99298342Y-96848050D01*
X99388050Y-96758342D01*
X99445646Y-96645304D01*
X99465492Y-96520000D01*
X99445646Y-96394696D01*
X99388050Y-96281658D01*
X99298342Y-96191950D01*
X99194422Y-96139000D01*
X103480508Y-96139000D01*
X103482059Y-96148793D01*
X103493646Y-96221949D01*
X103500354Y-96264304D01*
X103557950Y-96377342D01*
X103647658Y-96467050D01*
X103760696Y-96524646D01*
X103770485Y-96526196D01*
X103770487Y-96526197D01*
X103876207Y-96542941D01*
X103886000Y-96544492D01*
X103895793Y-96542941D01*
X104001513Y-96526197D01*
X104001515Y-96526196D01*
X104011304Y-96524646D01*
X104124342Y-96467050D01*
X104214050Y-96377342D01*
X104266928Y-96273564D01*
X104315677Y-96221949D01*
X104384592Y-96204883D01*
X104451793Y-96227784D01*
X104495945Y-96283382D01*
X104503644Y-96311056D01*
X104514143Y-96377342D01*
X104516354Y-96391304D01*
X104573950Y-96504342D01*
X104663658Y-96594050D01*
X104776696Y-96651646D01*
X104786485Y-96653196D01*
X104786487Y-96653197D01*
X104892207Y-96669941D01*
X104902000Y-96671492D01*
X104911793Y-96669941D01*
X105017513Y-96653197D01*
X105017515Y-96653196D01*
X105027304Y-96651646D01*
X105140342Y-96594050D01*
X105230050Y-96504342D01*
X105287646Y-96391304D01*
X105289858Y-96377342D01*
X105305941Y-96275793D01*
X105307492Y-96266000D01*
X105295051Y-96187450D01*
X105289197Y-96150487D01*
X105289196Y-96150485D01*
X105287646Y-96140696D01*
X105230050Y-96027658D01*
X105140342Y-95937950D01*
X105027304Y-95880354D01*
X105017515Y-95878804D01*
X105017513Y-95878803D01*
X104911793Y-95862059D01*
X104902000Y-95860508D01*
X104892207Y-95862059D01*
X104786487Y-95878803D01*
X104786485Y-95878804D01*
X104776696Y-95880354D01*
X104663658Y-95937950D01*
X104573950Y-96027658D01*
X104533476Y-96107093D01*
X104521072Y-96131436D01*
X104472323Y-96183051D01*
X104403408Y-96200117D01*
X104336207Y-96177216D01*
X104292055Y-96121618D01*
X104284356Y-96093944D01*
X104273197Y-96023487D01*
X104273196Y-96023485D01*
X104271646Y-96013696D01*
X104214050Y-95900658D01*
X104124342Y-95810950D01*
X104011304Y-95753354D01*
X104001515Y-95751804D01*
X104001513Y-95751803D01*
X103895793Y-95735059D01*
X103886000Y-95733508D01*
X103876207Y-95735059D01*
X103770487Y-95751803D01*
X103770485Y-95751804D01*
X103760696Y-95753354D01*
X103647658Y-95810950D01*
X103557950Y-95900658D01*
X103500354Y-96013696D01*
X103498804Y-96023485D01*
X103498803Y-96023487D01*
X103487644Y-96093944D01*
X103480508Y-96139000D01*
X99194422Y-96139000D01*
X99185304Y-96134354D01*
X99175515Y-96132804D01*
X99175513Y-96132803D01*
X99069793Y-96116059D01*
X99060000Y-96114508D01*
X99050207Y-96116059D01*
X98944487Y-96132803D01*
X98944485Y-96132804D01*
X98934696Y-96134354D01*
X98821658Y-96191950D01*
X98731950Y-96281658D01*
X98674354Y-96394696D01*
X98654508Y-96520000D01*
X94004492Y-96520000D01*
X93984646Y-96394696D01*
X93927050Y-96281658D01*
X93837342Y-96191950D01*
X93724304Y-96134354D01*
X93714515Y-96132804D01*
X93714513Y-96132803D01*
X93608793Y-96116059D01*
X93599000Y-96114508D01*
X93589207Y-96116059D01*
X93483487Y-96132803D01*
X93483485Y-96132804D01*
X93473696Y-96134354D01*
X93360658Y-96191950D01*
X93270950Y-96281658D01*
X93213354Y-96394696D01*
X93193508Y-96520000D01*
X90905500Y-96520000D01*
X90905500Y-94968500D01*
X90925502Y-94900379D01*
X90979158Y-94853886D01*
X91031500Y-94842500D01*
X93262918Y-94842500D01*
X93331039Y-94862502D01*
G37*
%TD.AperFunction*%
%TA.AperFunction,Conductor*%
G36*
X98339298Y-119316110D02*
G01*
X98376790Y-119328292D01*
X98396269Y-119338217D01*
X98428161Y-119361389D01*
X98444595Y-119377823D01*
X98478801Y-119405389D01*
X98523864Y-119434350D01*
X98532823Y-119439790D01*
X98562478Y-119448827D01*
X98613536Y-119464387D01*
X98613539Y-119464388D01*
X98620307Y-119466450D01*
X98691122Y-119471515D01*
X98693035Y-119471535D01*
X98693046Y-119471535D01*
X98707247Y-119471680D01*
X98707248Y-119471680D01*
X98716262Y-119471772D01*
X98804271Y-119446901D01*
X98838500Y-119428210D01*
X98862632Y-119415033D01*
X98862637Y-119415030D01*
X98866583Y-119412875D01*
X98879413Y-119403270D01*
X98909800Y-119380522D01*
X98909802Y-119380520D01*
X98913405Y-119377823D01*
X98929839Y-119361389D01*
X98961731Y-119338217D01*
X98981210Y-119328292D01*
X99018702Y-119316110D01*
X99040293Y-119312691D01*
X99079707Y-119312691D01*
X99101298Y-119316110D01*
X99138790Y-119328292D01*
X99158269Y-119338217D01*
X99190161Y-119361389D01*
X99205611Y-119376839D01*
X99228783Y-119408731D01*
X99238708Y-119428210D01*
X99250890Y-119465702D01*
X99251837Y-119471680D01*
X99254309Y-119487290D01*
X99254309Y-119526710D01*
X99250890Y-119548297D01*
X99238708Y-119585790D01*
X99228783Y-119605269D01*
X99205611Y-119637161D01*
X99190161Y-119652611D01*
X99158268Y-119675783D01*
X99124022Y-119693232D01*
X99107462Y-119700230D01*
X99107334Y-119700274D01*
X99106514Y-119700540D01*
X99105705Y-119700829D01*
X99105698Y-119700831D01*
X99096297Y-119704185D01*
X99095459Y-119704484D01*
X99094649Y-119704799D01*
X99094623Y-119704809D01*
X99089603Y-119706764D01*
X99082052Y-119709703D01*
X99077430Y-119712490D01*
X99077428Y-119712491D01*
X99030956Y-119740513D01*
X99022025Y-119745898D01*
X98968369Y-119792391D01*
X98966992Y-119793740D01*
X98966989Y-119793743D01*
X98956846Y-119803681D01*
X98956844Y-119803684D01*
X98950413Y-119809985D01*
X98905767Y-119889803D01*
X98886857Y-119954206D01*
X98886409Y-119961172D01*
X98886345Y-119962161D01*
X98885792Y-119964659D01*
X98885194Y-119968044D01*
X98885049Y-119968018D01*
X98881758Y-119982890D01*
X98881522Y-119982853D01*
X98880905Y-119986746D01*
X98880905Y-119986748D01*
X98869890Y-120056297D01*
X98857708Y-120093790D01*
X98847783Y-120113269D01*
X98824611Y-120145161D01*
X98809161Y-120160611D01*
X98777269Y-120183783D01*
X98757790Y-120193708D01*
X98720298Y-120205890D01*
X98698707Y-120209309D01*
X98659293Y-120209309D01*
X98637702Y-120205890D01*
X98600210Y-120193708D01*
X98580731Y-120183783D01*
X98548839Y-120160611D01*
X98532405Y-120144177D01*
X98498199Y-120116611D01*
X98453136Y-120087650D01*
X98444177Y-120082210D01*
X98395079Y-120067248D01*
X98363464Y-120057613D01*
X98363461Y-120057612D01*
X98356693Y-120055550D01*
X98285878Y-120050485D01*
X98283965Y-120050465D01*
X98283954Y-120050465D01*
X98269753Y-120050320D01*
X98269752Y-120050320D01*
X98260738Y-120050228D01*
X98172729Y-120075099D01*
X98146027Y-120089680D01*
X98114368Y-120106967D01*
X98114363Y-120106970D01*
X98110417Y-120109125D01*
X98106813Y-120111823D01*
X98068769Y-120140304D01*
X98063595Y-120144177D01*
X98047161Y-120160611D01*
X98015269Y-120183783D01*
X97995790Y-120193708D01*
X97958298Y-120205890D01*
X97936707Y-120209309D01*
X97897293Y-120209309D01*
X97875702Y-120205890D01*
X97838210Y-120193708D01*
X97818731Y-120183783D01*
X97786839Y-120160611D01*
X97771389Y-120145161D01*
X97748217Y-120113269D01*
X97738292Y-120093790D01*
X97726110Y-120056297D01*
X97725211Y-120050622D01*
X97722691Y-120034707D01*
X97722691Y-119995290D01*
X97726110Y-119973703D01*
X97738292Y-119936210D01*
X97748217Y-119916731D01*
X97771389Y-119884839D01*
X97786839Y-119869389D01*
X97818732Y-119846217D01*
X97852978Y-119828768D01*
X97869538Y-119821770D01*
X97869666Y-119821726D01*
X97870486Y-119821460D01*
X97880611Y-119817848D01*
X97880703Y-119817815D01*
X97880705Y-119817814D01*
X97881541Y-119817516D01*
X97882351Y-119817201D01*
X97882377Y-119817191D01*
X97887397Y-119815236D01*
X97894948Y-119812297D01*
X97927961Y-119792391D01*
X97950355Y-119778888D01*
X97950357Y-119778887D01*
X97954975Y-119776102D01*
X98008631Y-119729609D01*
X98010011Y-119728257D01*
X98020154Y-119718319D01*
X98020156Y-119718316D01*
X98026587Y-119712015D01*
X98071233Y-119632197D01*
X98090143Y-119567794D01*
X98090655Y-119559839D01*
X98091208Y-119557341D01*
X98091806Y-119553956D01*
X98091951Y-119553982D01*
X98095242Y-119539110D01*
X98095478Y-119539147D01*
X98107110Y-119465703D01*
X98119292Y-119428210D01*
X98129217Y-119408731D01*
X98152389Y-119376839D01*
X98167839Y-119361389D01*
X98199731Y-119338217D01*
X98219210Y-119328292D01*
X98256702Y-119316110D01*
X98278293Y-119312691D01*
X98317707Y-119312691D01*
X98339298Y-119316110D01*
G37*
%TD.AperFunction*%
%TA.AperFunction,Conductor*%
G36*
X97347921Y-117970842D02*
G01*
X97395926Y-118023149D01*
X97401522Y-118036389D01*
X97410593Y-118061811D01*
X97414328Y-118067715D01*
X97414329Y-118067717D01*
X97419689Y-118076190D01*
X97426624Y-118092118D01*
X97426948Y-118091953D01*
X97460708Y-118158210D01*
X97472890Y-118195703D01*
X97476309Y-118217290D01*
X97476309Y-118256710D01*
X97472890Y-118278297D01*
X97460708Y-118315790D01*
X97450783Y-118335269D01*
X97427611Y-118367161D01*
X97412161Y-118382611D01*
X97380269Y-118405783D01*
X97360790Y-118415708D01*
X97323298Y-118427890D01*
X97301707Y-118431309D01*
X97262293Y-118431309D01*
X97240702Y-118427890D01*
X97203210Y-118415708D01*
X97183731Y-118405783D01*
X97151839Y-118382611D01*
X97136389Y-118367161D01*
X97113217Y-118335269D01*
X97103292Y-118315790D01*
X97091110Y-118278297D01*
X97087691Y-118256710D01*
X97087691Y-118217290D01*
X97091110Y-118195702D01*
X97103293Y-118158209D01*
X97122482Y-118120549D01*
X97132082Y-118104821D01*
X97133385Y-118103204D01*
X97140224Y-118092563D01*
X97166794Y-118029692D01*
X97211735Y-117974732D01*
X97279257Y-117952793D01*
X97347921Y-117970842D01*
G37*
%TD.AperFunction*%
%TA.AperFunction,Conductor*%
G36*
X97323298Y-117411110D02*
G01*
X97360790Y-117423292D01*
X97380269Y-117433217D01*
X97412161Y-117456389D01*
X97427611Y-117471839D01*
X97450783Y-117503731D01*
X97460708Y-117523210D01*
X97472890Y-117560703D01*
X97476309Y-117582290D01*
X97476309Y-117621710D01*
X97472890Y-117643298D01*
X97460707Y-117680791D01*
X97441518Y-117718451D01*
X97431918Y-117734179D01*
X97430615Y-117735796D01*
X97423776Y-117746437D01*
X97421676Y-117751407D01*
X97397207Y-117809307D01*
X97352265Y-117864268D01*
X97284743Y-117886207D01*
X97216079Y-117868158D01*
X97168074Y-117815851D01*
X97162478Y-117802611D01*
X97153407Y-117777189D01*
X97149671Y-117771283D01*
X97144311Y-117762810D01*
X97137376Y-117746882D01*
X97137052Y-117747047D01*
X97103292Y-117680790D01*
X97091110Y-117643297D01*
X97087691Y-117621710D01*
X97087691Y-117582290D01*
X97091110Y-117560703D01*
X97103292Y-117523210D01*
X97113217Y-117503731D01*
X97136389Y-117471839D01*
X97151839Y-117456389D01*
X97183731Y-117433217D01*
X97203210Y-117423292D01*
X97240702Y-117411110D01*
X97262293Y-117407691D01*
X97301707Y-117407691D01*
X97323298Y-117411110D01*
G37*
%TD.AperFunction*%
%TA.AperFunction,Conductor*%
G36*
X96307300Y-115125111D02*
G01*
X96344791Y-115137293D01*
X96382451Y-115156482D01*
X96398179Y-115166082D01*
X96399796Y-115167385D01*
X96404470Y-115170389D01*
X96405502Y-115171052D01*
X96410437Y-115174224D01*
X96415411Y-115176326D01*
X96470021Y-115199405D01*
X96470025Y-115199406D01*
X96475003Y-115201510D01*
X96505483Y-115208597D01*
X96542274Y-115217152D01*
X96542285Y-115217154D01*
X96544155Y-115217589D01*
X96546048Y-115217909D01*
X96546050Y-115217909D01*
X96560061Y-115220275D01*
X96560064Y-115220275D01*
X96568942Y-115221774D01*
X96577883Y-115220711D01*
X96577886Y-115220711D01*
X96652731Y-115211812D01*
X96652734Y-115211811D01*
X96659759Y-115210976D01*
X96666424Y-115208598D01*
X96666427Y-115208597D01*
X96719231Y-115189755D01*
X96719232Y-115189755D01*
X96725811Y-115187407D01*
X96731717Y-115183671D01*
X96740190Y-115178311D01*
X96756118Y-115171376D01*
X96755953Y-115171052D01*
X96822210Y-115137292D01*
X96859702Y-115125110D01*
X96881293Y-115121691D01*
X96920707Y-115121691D01*
X96942298Y-115125110D01*
X96979790Y-115137292D01*
X96999269Y-115147217D01*
X97031161Y-115170389D01*
X97046611Y-115185839D01*
X97069783Y-115217731D01*
X97079708Y-115237210D01*
X97091890Y-115274703D01*
X97095309Y-115296290D01*
X97095309Y-115335710D01*
X97091890Y-115357298D01*
X97079707Y-115394791D01*
X97060518Y-115432451D01*
X97050918Y-115448179D01*
X97049615Y-115449796D01*
X97042776Y-115460437D01*
X97015490Y-115525003D01*
X96999411Y-115594155D01*
X96995226Y-115618942D01*
X96996289Y-115627883D01*
X96996289Y-115627886D01*
X97005188Y-115702731D01*
X97006024Y-115709759D01*
X97029593Y-115775811D01*
X97033328Y-115781715D01*
X97033329Y-115781717D01*
X97038689Y-115790190D01*
X97045624Y-115806118D01*
X97045948Y-115805953D01*
X97079708Y-115872210D01*
X97091890Y-115909703D01*
X97095309Y-115931290D01*
X97095309Y-115970710D01*
X97091890Y-115992297D01*
X97079708Y-116029790D01*
X97069783Y-116049269D01*
X97046611Y-116081161D01*
X97031161Y-116096611D01*
X96999269Y-116119783D01*
X96979790Y-116129708D01*
X96942298Y-116141890D01*
X96920707Y-116145309D01*
X96881293Y-116145309D01*
X96859700Y-116141889D01*
X96822209Y-116129707D01*
X96784549Y-116110518D01*
X96768821Y-116100918D01*
X96767204Y-116099615D01*
X96761900Y-116096206D01*
X96761102Y-116095693D01*
X96761100Y-116095692D01*
X96756563Y-116092776D01*
X96729079Y-116081161D01*
X96696979Y-116067595D01*
X96696975Y-116067594D01*
X96691997Y-116065490D01*
X96647691Y-116055188D01*
X96624726Y-116049848D01*
X96624715Y-116049846D01*
X96622845Y-116049411D01*
X96620950Y-116049091D01*
X96606939Y-116046725D01*
X96606936Y-116046725D01*
X96598058Y-116045226D01*
X96589117Y-116046289D01*
X96589114Y-116046289D01*
X96514269Y-116055188D01*
X96514266Y-116055189D01*
X96507241Y-116056024D01*
X96500576Y-116058402D01*
X96500573Y-116058403D01*
X96476346Y-116067048D01*
X96441189Y-116079593D01*
X96435285Y-116083328D01*
X96435283Y-116083329D01*
X96426810Y-116088689D01*
X96410882Y-116095624D01*
X96411047Y-116095948D01*
X96344790Y-116129708D01*
X96307298Y-116141890D01*
X96285707Y-116145309D01*
X96246293Y-116145309D01*
X96224702Y-116141890D01*
X96187210Y-116129708D01*
X96167731Y-116119783D01*
X96135839Y-116096611D01*
X96120389Y-116081161D01*
X96097217Y-116049269D01*
X96087292Y-116029790D01*
X96075110Y-115992297D01*
X96071691Y-115970710D01*
X96071691Y-115931290D01*
X96075110Y-115909702D01*
X96087293Y-115872209D01*
X96106482Y-115834549D01*
X96116082Y-115818821D01*
X96117385Y-115817204D01*
X96124224Y-115806563D01*
X96151510Y-115741997D01*
X96167589Y-115672845D01*
X96171774Y-115648058D01*
X96168313Y-115618942D01*
X96161812Y-115564269D01*
X96161811Y-115564266D01*
X96160976Y-115557241D01*
X96137407Y-115491189D01*
X96133671Y-115485283D01*
X96128311Y-115476810D01*
X96121376Y-115460882D01*
X96121052Y-115461047D01*
X96087292Y-115394790D01*
X96075110Y-115357297D01*
X96071691Y-115335710D01*
X96071691Y-115296290D01*
X96075110Y-115274703D01*
X96087292Y-115237210D01*
X96097217Y-115217731D01*
X96120389Y-115185839D01*
X96135839Y-115170389D01*
X96167731Y-115147217D01*
X96187210Y-115137292D01*
X96224702Y-115125110D01*
X96246293Y-115121691D01*
X96285707Y-115121691D01*
X96307300Y-115125111D01*
G37*
%TD.AperFunction*%
%TD*%
M02*
