M48
; DRILL file {KiCad (6.0.11-0)} date Thursday, March 16, 2023 at 06:41:50 PM
; FORMAT={2:4/ absolute / inch / suppress leading zeros}
; #@! TF.CreationDate,2023-03-16T18:41:50-05:00
; #@! TF.GenerationSoftware,Kicad,Pcbnew,(6.0.11-0)
; #@! TF.FileFunction,Plated,1,4,PTH
FMAT,2
INCH,TZ
; #@! TA.AperFunction,Plated,PTH,ViaDrill
T1C0.0079
%
G90
G05
T1
X35868Y-43350
X36100Y-48750
X36150Y-37550
X36150Y-37950
X36150Y-38350
X36150Y-38750
X36171Y-43350
X36185Y-43600
X36300Y-42363
X36350Y-48000
X36350Y-48236
X36350Y-48472
X36372Y-43950
X36586Y-48472
X36586Y-48000
X36588Y-38750
X36589Y-48236
X36600Y-39450
X36600Y-39750
X36613Y-43950
X36850Y-37550
X36850Y-38000
X36950Y-40550
X37025Y-38750
X37038Y-39750
X37050Y-44400
X37150Y-40550
X37400Y-42450
X37450Y-37550
X37463Y-38750
X37475Y-39750
X37550Y-42650
X37641Y-48012
X37700Y-40100
X37700Y-40500
X37800Y-49400
X37900Y-38750
X37900Y-45400
X37900Y-45650
X37912Y-39750
X38000Y-37550
X38050Y-49250
X38100Y-48250
X38100Y-48500
X38100Y-48750
X38100Y-49000
X38150Y-45400
X38150Y-45650
X38300Y-46300
X38300Y-46550
X38332Y-44382
X38350Y-39750
X38500Y-37550
X38505Y-44195
X38550Y-47250
X38700Y-38450
X38700Y-42600
X38700Y-47050
X38850Y-47250
X38857Y-44407
X38900Y-40600
X38900Y-48250
X38900Y-48500
X38900Y-48750
X38905Y-40895
X38950Y-49000
X39000Y-37550
X39000Y-38000
X39000Y-47050
X39050Y-39800
X39100Y-49200
X39250Y-48100
X39300Y-43000
X39300Y-49400
X39400Y-38650
X39400Y-38900
X39400Y-39150
X39400Y-39400
X39400Y-39650
X39400Y-39900
X39400Y-40150
X39500Y-48050
X39550Y-49550
X39700Y-48200
X39750Y-42467
X39750Y-48450
X39750Y-48700
X39750Y-48950
X39800Y-44200
X39950Y-39900
X39950Y-40100
X40000Y-40350
X40250Y-44200
X40250Y-47250
X40347Y-42573
X40350Y-47850
X40600Y-47250
X40700Y-40800
X40900Y-37850
X40900Y-47250
X40950Y-37550
X41000Y-44250
X41000Y-44550
X41000Y-44850
X41050Y-47500
X41200Y-47250
X41300Y-37900
X41350Y-44250
X41350Y-44550
X41350Y-44850
X41350Y-47500
X41361Y-39828
X41400Y-48850
X41450Y-37550
X41500Y-39350
X41500Y-40300
X41500Y-47250
X41506Y-38405
X41506Y-38895
T0
M30
